%TF.GenerationSoftware,KiCad,Pcbnew,8.0.1*%
%TF.CreationDate,2024-04-28T21:32:14+02:00*%
%TF.ProjectId,Sword-keyboard,53776f72-642d-46b6-9579-626f6172642e,rev?*%
%TF.SameCoordinates,Original*%
%TF.FileFunction,Legend,Top*%
%TF.FilePolarity,Positive*%
%FSLAX46Y46*%
G04 Gerber Fmt 4.6, Leading zero omitted, Abs format (unit mm)*
G04 Created by KiCad (PCBNEW 8.0.1) date 2024-04-28 21:32:14*
%MOMM*%
%LPD*%
G01*
G04 APERTURE LIST*
%ADD10C,0.150000*%
%ADD11C,0.100000*%
%ADD12C,0.120000*%
%ADD13C,0.000000*%
%ADD14C,0.127000*%
%ADD15C,0.200000*%
G04 APERTURE END LIST*
D10*
X122690476Y-108152200D02*
X122833333Y-108199819D01*
X122833333Y-108199819D02*
X123071428Y-108199819D01*
X123071428Y-108199819D02*
X123166666Y-108152200D01*
X123166666Y-108152200D02*
X123214285Y-108104580D01*
X123214285Y-108104580D02*
X123261904Y-108009342D01*
X123261904Y-108009342D02*
X123261904Y-107914104D01*
X123261904Y-107914104D02*
X123214285Y-107818866D01*
X123214285Y-107818866D02*
X123166666Y-107771247D01*
X123166666Y-107771247D02*
X123071428Y-107723628D01*
X123071428Y-107723628D02*
X122880952Y-107676009D01*
X122880952Y-107676009D02*
X122785714Y-107628390D01*
X122785714Y-107628390D02*
X122738095Y-107580771D01*
X122738095Y-107580771D02*
X122690476Y-107485533D01*
X122690476Y-107485533D02*
X122690476Y-107390295D01*
X122690476Y-107390295D02*
X122738095Y-107295057D01*
X122738095Y-107295057D02*
X122785714Y-107247438D01*
X122785714Y-107247438D02*
X122880952Y-107199819D01*
X122880952Y-107199819D02*
X123119047Y-107199819D01*
X123119047Y-107199819D02*
X123261904Y-107247438D01*
X123595238Y-107199819D02*
X123833333Y-108199819D01*
X123833333Y-108199819D02*
X124023809Y-107485533D01*
X124023809Y-107485533D02*
X124214285Y-108199819D01*
X124214285Y-108199819D02*
X124452381Y-107199819D01*
X125357142Y-108199819D02*
X124785714Y-108199819D01*
X125071428Y-108199819D02*
X125071428Y-107199819D01*
X125071428Y-107199819D02*
X124976190Y-107342676D01*
X124976190Y-107342676D02*
X124880952Y-107437914D01*
X124880952Y-107437914D02*
X124785714Y-107485533D01*
X125690476Y-107199819D02*
X126309523Y-107199819D01*
X126309523Y-107199819D02*
X125976190Y-107580771D01*
X125976190Y-107580771D02*
X126119047Y-107580771D01*
X126119047Y-107580771D02*
X126214285Y-107628390D01*
X126214285Y-107628390D02*
X126261904Y-107676009D01*
X126261904Y-107676009D02*
X126309523Y-107771247D01*
X126309523Y-107771247D02*
X126309523Y-108009342D01*
X126309523Y-108009342D02*
X126261904Y-108104580D01*
X126261904Y-108104580D02*
X126214285Y-108152200D01*
X126214285Y-108152200D02*
X126119047Y-108199819D01*
X126119047Y-108199819D02*
X125833333Y-108199819D01*
X125833333Y-108199819D02*
X125738095Y-108152200D01*
X125738095Y-108152200D02*
X125690476Y-108104580D01*
X209190476Y-102652200D02*
X209333333Y-102699819D01*
X209333333Y-102699819D02*
X209571428Y-102699819D01*
X209571428Y-102699819D02*
X209666666Y-102652200D01*
X209666666Y-102652200D02*
X209714285Y-102604580D01*
X209714285Y-102604580D02*
X209761904Y-102509342D01*
X209761904Y-102509342D02*
X209761904Y-102414104D01*
X209761904Y-102414104D02*
X209714285Y-102318866D01*
X209714285Y-102318866D02*
X209666666Y-102271247D01*
X209666666Y-102271247D02*
X209571428Y-102223628D01*
X209571428Y-102223628D02*
X209380952Y-102176009D01*
X209380952Y-102176009D02*
X209285714Y-102128390D01*
X209285714Y-102128390D02*
X209238095Y-102080771D01*
X209238095Y-102080771D02*
X209190476Y-101985533D01*
X209190476Y-101985533D02*
X209190476Y-101890295D01*
X209190476Y-101890295D02*
X209238095Y-101795057D01*
X209238095Y-101795057D02*
X209285714Y-101747438D01*
X209285714Y-101747438D02*
X209380952Y-101699819D01*
X209380952Y-101699819D02*
X209619047Y-101699819D01*
X209619047Y-101699819D02*
X209761904Y-101747438D01*
X210095238Y-101699819D02*
X210333333Y-102699819D01*
X210333333Y-102699819D02*
X210523809Y-101985533D01*
X210523809Y-101985533D02*
X210714285Y-102699819D01*
X210714285Y-102699819D02*
X210952381Y-101699819D01*
X211857142Y-102699819D02*
X211285714Y-102699819D01*
X211571428Y-102699819D02*
X211571428Y-101699819D01*
X211571428Y-101699819D02*
X211476190Y-101842676D01*
X211476190Y-101842676D02*
X211380952Y-101937914D01*
X211380952Y-101937914D02*
X211285714Y-101985533D01*
X212238095Y-101795057D02*
X212285714Y-101747438D01*
X212285714Y-101747438D02*
X212380952Y-101699819D01*
X212380952Y-101699819D02*
X212619047Y-101699819D01*
X212619047Y-101699819D02*
X212714285Y-101747438D01*
X212714285Y-101747438D02*
X212761904Y-101795057D01*
X212761904Y-101795057D02*
X212809523Y-101890295D01*
X212809523Y-101890295D02*
X212809523Y-101985533D01*
X212809523Y-101985533D02*
X212761904Y-102128390D01*
X212761904Y-102128390D02*
X212190476Y-102699819D01*
X212190476Y-102699819D02*
X212809523Y-102699819D01*
X138230476Y-156407200D02*
X138373333Y-156454819D01*
X138373333Y-156454819D02*
X138611428Y-156454819D01*
X138611428Y-156454819D02*
X138706666Y-156407200D01*
X138706666Y-156407200D02*
X138754285Y-156359580D01*
X138754285Y-156359580D02*
X138801904Y-156264342D01*
X138801904Y-156264342D02*
X138801904Y-156169104D01*
X138801904Y-156169104D02*
X138754285Y-156073866D01*
X138754285Y-156073866D02*
X138706666Y-156026247D01*
X138706666Y-156026247D02*
X138611428Y-155978628D01*
X138611428Y-155978628D02*
X138420952Y-155931009D01*
X138420952Y-155931009D02*
X138325714Y-155883390D01*
X138325714Y-155883390D02*
X138278095Y-155835771D01*
X138278095Y-155835771D02*
X138230476Y-155740533D01*
X138230476Y-155740533D02*
X138230476Y-155645295D01*
X138230476Y-155645295D02*
X138278095Y-155550057D01*
X138278095Y-155550057D02*
X138325714Y-155502438D01*
X138325714Y-155502438D02*
X138420952Y-155454819D01*
X138420952Y-155454819D02*
X138659047Y-155454819D01*
X138659047Y-155454819D02*
X138801904Y-155502438D01*
X139135238Y-155454819D02*
X139373333Y-156454819D01*
X139373333Y-156454819D02*
X139563809Y-155740533D01*
X139563809Y-155740533D02*
X139754285Y-156454819D01*
X139754285Y-156454819D02*
X139992381Y-155454819D01*
X140325714Y-155550057D02*
X140373333Y-155502438D01*
X140373333Y-155502438D02*
X140468571Y-155454819D01*
X140468571Y-155454819D02*
X140706666Y-155454819D01*
X140706666Y-155454819D02*
X140801904Y-155502438D01*
X140801904Y-155502438D02*
X140849523Y-155550057D01*
X140849523Y-155550057D02*
X140897142Y-155645295D01*
X140897142Y-155645295D02*
X140897142Y-155740533D01*
X140897142Y-155740533D02*
X140849523Y-155883390D01*
X140849523Y-155883390D02*
X140278095Y-156454819D01*
X140278095Y-156454819D02*
X140897142Y-156454819D01*
X141278095Y-155550057D02*
X141325714Y-155502438D01*
X141325714Y-155502438D02*
X141420952Y-155454819D01*
X141420952Y-155454819D02*
X141659047Y-155454819D01*
X141659047Y-155454819D02*
X141754285Y-155502438D01*
X141754285Y-155502438D02*
X141801904Y-155550057D01*
X141801904Y-155550057D02*
X141849523Y-155645295D01*
X141849523Y-155645295D02*
X141849523Y-155740533D01*
X141849523Y-155740533D02*
X141801904Y-155883390D01*
X141801904Y-155883390D02*
X141230476Y-156454819D01*
X141230476Y-156454819D02*
X141849523Y-156454819D01*
X178666667Y-66652200D02*
X178809524Y-66699819D01*
X178809524Y-66699819D02*
X179047619Y-66699819D01*
X179047619Y-66699819D02*
X179142857Y-66652200D01*
X179142857Y-66652200D02*
X179190476Y-66604580D01*
X179190476Y-66604580D02*
X179238095Y-66509342D01*
X179238095Y-66509342D02*
X179238095Y-66414104D01*
X179238095Y-66414104D02*
X179190476Y-66318866D01*
X179190476Y-66318866D02*
X179142857Y-66271247D01*
X179142857Y-66271247D02*
X179047619Y-66223628D01*
X179047619Y-66223628D02*
X178857143Y-66176009D01*
X178857143Y-66176009D02*
X178761905Y-66128390D01*
X178761905Y-66128390D02*
X178714286Y-66080771D01*
X178714286Y-66080771D02*
X178666667Y-65985533D01*
X178666667Y-65985533D02*
X178666667Y-65890295D01*
X178666667Y-65890295D02*
X178714286Y-65795057D01*
X178714286Y-65795057D02*
X178761905Y-65747438D01*
X178761905Y-65747438D02*
X178857143Y-65699819D01*
X178857143Y-65699819D02*
X179095238Y-65699819D01*
X179095238Y-65699819D02*
X179238095Y-65747438D01*
X179571429Y-65699819D02*
X179809524Y-66699819D01*
X179809524Y-66699819D02*
X180000000Y-65985533D01*
X180000000Y-65985533D02*
X180190476Y-66699819D01*
X180190476Y-66699819D02*
X180428572Y-65699819D01*
X181238095Y-66033152D02*
X181238095Y-66699819D01*
X181000000Y-65652200D02*
X180761905Y-66366485D01*
X180761905Y-66366485D02*
X181380952Y-66366485D01*
X112854819Y-119281904D02*
X111854819Y-119281904D01*
X112854819Y-118710476D02*
X112283390Y-119139047D01*
X111854819Y-118710476D02*
X112426247Y-119281904D01*
X104928095Y-139154819D02*
X104928095Y-138154819D01*
X105499523Y-139154819D02*
X105070952Y-138583390D01*
X105499523Y-138154819D02*
X104928095Y-138726247D01*
X123166667Y-77152200D02*
X123309524Y-77199819D01*
X123309524Y-77199819D02*
X123547619Y-77199819D01*
X123547619Y-77199819D02*
X123642857Y-77152200D01*
X123642857Y-77152200D02*
X123690476Y-77104580D01*
X123690476Y-77104580D02*
X123738095Y-77009342D01*
X123738095Y-77009342D02*
X123738095Y-76914104D01*
X123738095Y-76914104D02*
X123690476Y-76818866D01*
X123690476Y-76818866D02*
X123642857Y-76771247D01*
X123642857Y-76771247D02*
X123547619Y-76723628D01*
X123547619Y-76723628D02*
X123357143Y-76676009D01*
X123357143Y-76676009D02*
X123261905Y-76628390D01*
X123261905Y-76628390D02*
X123214286Y-76580771D01*
X123214286Y-76580771D02*
X123166667Y-76485533D01*
X123166667Y-76485533D02*
X123166667Y-76390295D01*
X123166667Y-76390295D02*
X123214286Y-76295057D01*
X123214286Y-76295057D02*
X123261905Y-76247438D01*
X123261905Y-76247438D02*
X123357143Y-76199819D01*
X123357143Y-76199819D02*
X123595238Y-76199819D01*
X123595238Y-76199819D02*
X123738095Y-76247438D01*
X124071429Y-76199819D02*
X124309524Y-77199819D01*
X124309524Y-77199819D02*
X124500000Y-76485533D01*
X124500000Y-76485533D02*
X124690476Y-77199819D01*
X124690476Y-77199819D02*
X124928572Y-76199819D01*
X125833333Y-77199819D02*
X125261905Y-77199819D01*
X125547619Y-77199819D02*
X125547619Y-76199819D01*
X125547619Y-76199819D02*
X125452381Y-76342676D01*
X125452381Y-76342676D02*
X125357143Y-76437914D01*
X125357143Y-76437914D02*
X125261905Y-76485533D01*
X148834819Y-116414285D02*
X147834819Y-116414285D01*
X147834819Y-116414285D02*
X147834819Y-116176190D01*
X147834819Y-116176190D02*
X147882438Y-116033333D01*
X147882438Y-116033333D02*
X147977676Y-115938095D01*
X147977676Y-115938095D02*
X148072914Y-115890476D01*
X148072914Y-115890476D02*
X148263390Y-115842857D01*
X148263390Y-115842857D02*
X148406247Y-115842857D01*
X148406247Y-115842857D02*
X148596723Y-115890476D01*
X148596723Y-115890476D02*
X148691961Y-115938095D01*
X148691961Y-115938095D02*
X148787200Y-116033333D01*
X148787200Y-116033333D02*
X148834819Y-116176190D01*
X148834819Y-116176190D02*
X148834819Y-116414285D01*
X148834819Y-114890476D02*
X148834819Y-115461904D01*
X148834819Y-115176190D02*
X147834819Y-115176190D01*
X147834819Y-115176190D02*
X147977676Y-115271428D01*
X147977676Y-115271428D02*
X148072914Y-115366666D01*
X148072914Y-115366666D02*
X148120533Y-115461904D01*
X148168152Y-114033333D02*
X148834819Y-114033333D01*
X147787200Y-114271428D02*
X148501485Y-114509523D01*
X148501485Y-114509523D02*
X148501485Y-113890476D01*
X149154819Y-119271904D02*
X148154819Y-119271904D01*
X149154819Y-118700476D02*
X148583390Y-119129047D01*
X148154819Y-118700476D02*
X148726247Y-119271904D01*
X205238095Y-84954819D02*
X205238095Y-83954819D01*
X205809523Y-84954819D02*
X205380952Y-84383390D01*
X205809523Y-83954819D02*
X205238095Y-84526247D01*
X120428095Y-139154819D02*
X120428095Y-138154819D01*
X120999523Y-139154819D02*
X120570952Y-138583390D01*
X120999523Y-138154819D02*
X120428095Y-138726247D01*
X148834819Y-100448094D02*
X147834819Y-100448094D01*
X147834819Y-100448094D02*
X147834819Y-100209999D01*
X147834819Y-100209999D02*
X147882438Y-100067142D01*
X147882438Y-100067142D02*
X147977676Y-99971904D01*
X147977676Y-99971904D02*
X148072914Y-99924285D01*
X148072914Y-99924285D02*
X148263390Y-99876666D01*
X148263390Y-99876666D02*
X148406247Y-99876666D01*
X148406247Y-99876666D02*
X148596723Y-99924285D01*
X148596723Y-99924285D02*
X148691961Y-99971904D01*
X148691961Y-99971904D02*
X148787200Y-100067142D01*
X148787200Y-100067142D02*
X148834819Y-100209999D01*
X148834819Y-100209999D02*
X148834819Y-100448094D01*
X148263390Y-99305237D02*
X148215771Y-99400475D01*
X148215771Y-99400475D02*
X148168152Y-99448094D01*
X148168152Y-99448094D02*
X148072914Y-99495713D01*
X148072914Y-99495713D02*
X148025295Y-99495713D01*
X148025295Y-99495713D02*
X147930057Y-99448094D01*
X147930057Y-99448094D02*
X147882438Y-99400475D01*
X147882438Y-99400475D02*
X147834819Y-99305237D01*
X147834819Y-99305237D02*
X147834819Y-99114761D01*
X147834819Y-99114761D02*
X147882438Y-99019523D01*
X147882438Y-99019523D02*
X147930057Y-98971904D01*
X147930057Y-98971904D02*
X148025295Y-98924285D01*
X148025295Y-98924285D02*
X148072914Y-98924285D01*
X148072914Y-98924285D02*
X148168152Y-98971904D01*
X148168152Y-98971904D02*
X148215771Y-99019523D01*
X148215771Y-99019523D02*
X148263390Y-99114761D01*
X148263390Y-99114761D02*
X148263390Y-99305237D01*
X148263390Y-99305237D02*
X148311009Y-99400475D01*
X148311009Y-99400475D02*
X148358628Y-99448094D01*
X148358628Y-99448094D02*
X148453866Y-99495713D01*
X148453866Y-99495713D02*
X148644342Y-99495713D01*
X148644342Y-99495713D02*
X148739580Y-99448094D01*
X148739580Y-99448094D02*
X148787200Y-99400475D01*
X148787200Y-99400475D02*
X148834819Y-99305237D01*
X148834819Y-99305237D02*
X148834819Y-99114761D01*
X148834819Y-99114761D02*
X148787200Y-99019523D01*
X148787200Y-99019523D02*
X148739580Y-98971904D01*
X148739580Y-98971904D02*
X148644342Y-98924285D01*
X148644342Y-98924285D02*
X148453866Y-98924285D01*
X148453866Y-98924285D02*
X148358628Y-98971904D01*
X148358628Y-98971904D02*
X148311009Y-99019523D01*
X148311009Y-99019523D02*
X148263390Y-99114761D01*
X149154819Y-103781904D02*
X148154819Y-103781904D01*
X149154819Y-103210476D02*
X148583390Y-103639047D01*
X148154819Y-103210476D02*
X148726247Y-103781904D01*
X168834819Y-90824285D02*
X167834819Y-90824285D01*
X167834819Y-90824285D02*
X167834819Y-90586190D01*
X167834819Y-90586190D02*
X167882438Y-90443333D01*
X167882438Y-90443333D02*
X167977676Y-90348095D01*
X167977676Y-90348095D02*
X168072914Y-90300476D01*
X168072914Y-90300476D02*
X168263390Y-90252857D01*
X168263390Y-90252857D02*
X168406247Y-90252857D01*
X168406247Y-90252857D02*
X168596723Y-90300476D01*
X168596723Y-90300476D02*
X168691961Y-90348095D01*
X168691961Y-90348095D02*
X168787200Y-90443333D01*
X168787200Y-90443333D02*
X168834819Y-90586190D01*
X168834819Y-90586190D02*
X168834819Y-90824285D01*
X168834819Y-89300476D02*
X168834819Y-89871904D01*
X168834819Y-89586190D02*
X167834819Y-89586190D01*
X167834819Y-89586190D02*
X167977676Y-89681428D01*
X167977676Y-89681428D02*
X168072914Y-89776666D01*
X168072914Y-89776666D02*
X168120533Y-89871904D01*
X167834819Y-88681428D02*
X167834819Y-88586190D01*
X167834819Y-88586190D02*
X167882438Y-88490952D01*
X167882438Y-88490952D02*
X167930057Y-88443333D01*
X167930057Y-88443333D02*
X168025295Y-88395714D01*
X168025295Y-88395714D02*
X168215771Y-88348095D01*
X168215771Y-88348095D02*
X168453866Y-88348095D01*
X168453866Y-88348095D02*
X168644342Y-88395714D01*
X168644342Y-88395714D02*
X168739580Y-88443333D01*
X168739580Y-88443333D02*
X168787200Y-88490952D01*
X168787200Y-88490952D02*
X168834819Y-88586190D01*
X168834819Y-88586190D02*
X168834819Y-88681428D01*
X168834819Y-88681428D02*
X168787200Y-88776666D01*
X168787200Y-88776666D02*
X168739580Y-88824285D01*
X168739580Y-88824285D02*
X168644342Y-88871904D01*
X168644342Y-88871904D02*
X168453866Y-88919523D01*
X168453866Y-88919523D02*
X168215771Y-88919523D01*
X168215771Y-88919523D02*
X168025295Y-88871904D01*
X168025295Y-88871904D02*
X167930057Y-88824285D01*
X167930057Y-88824285D02*
X167882438Y-88776666D01*
X167882438Y-88776666D02*
X167834819Y-88681428D01*
X169154819Y-93681904D02*
X168154819Y-93681904D01*
X169154819Y-93110476D02*
X168583390Y-93539047D01*
X168154819Y-93110476D02*
X168726247Y-93681904D01*
X107230476Y-156407200D02*
X107373333Y-156454819D01*
X107373333Y-156454819D02*
X107611428Y-156454819D01*
X107611428Y-156454819D02*
X107706666Y-156407200D01*
X107706666Y-156407200D02*
X107754285Y-156359580D01*
X107754285Y-156359580D02*
X107801904Y-156264342D01*
X107801904Y-156264342D02*
X107801904Y-156169104D01*
X107801904Y-156169104D02*
X107754285Y-156073866D01*
X107754285Y-156073866D02*
X107706666Y-156026247D01*
X107706666Y-156026247D02*
X107611428Y-155978628D01*
X107611428Y-155978628D02*
X107420952Y-155931009D01*
X107420952Y-155931009D02*
X107325714Y-155883390D01*
X107325714Y-155883390D02*
X107278095Y-155835771D01*
X107278095Y-155835771D02*
X107230476Y-155740533D01*
X107230476Y-155740533D02*
X107230476Y-155645295D01*
X107230476Y-155645295D02*
X107278095Y-155550057D01*
X107278095Y-155550057D02*
X107325714Y-155502438D01*
X107325714Y-155502438D02*
X107420952Y-155454819D01*
X107420952Y-155454819D02*
X107659047Y-155454819D01*
X107659047Y-155454819D02*
X107801904Y-155502438D01*
X108135238Y-155454819D02*
X108373333Y-156454819D01*
X108373333Y-156454819D02*
X108563809Y-155740533D01*
X108563809Y-155740533D02*
X108754285Y-156454819D01*
X108754285Y-156454819D02*
X108992381Y-155454819D01*
X109325714Y-155550057D02*
X109373333Y-155502438D01*
X109373333Y-155502438D02*
X109468571Y-155454819D01*
X109468571Y-155454819D02*
X109706666Y-155454819D01*
X109706666Y-155454819D02*
X109801904Y-155502438D01*
X109801904Y-155502438D02*
X109849523Y-155550057D01*
X109849523Y-155550057D02*
X109897142Y-155645295D01*
X109897142Y-155645295D02*
X109897142Y-155740533D01*
X109897142Y-155740533D02*
X109849523Y-155883390D01*
X109849523Y-155883390D02*
X109278095Y-156454819D01*
X109278095Y-156454819D02*
X109897142Y-156454819D01*
X110754285Y-155788152D02*
X110754285Y-156454819D01*
X110516190Y-155407200D02*
X110278095Y-156121485D01*
X110278095Y-156121485D02*
X110897142Y-156121485D01*
X112534819Y-85338094D02*
X111534819Y-85338094D01*
X111534819Y-85338094D02*
X111534819Y-85099999D01*
X111534819Y-85099999D02*
X111582438Y-84957142D01*
X111582438Y-84957142D02*
X111677676Y-84861904D01*
X111677676Y-84861904D02*
X111772914Y-84814285D01*
X111772914Y-84814285D02*
X111963390Y-84766666D01*
X111963390Y-84766666D02*
X112106247Y-84766666D01*
X112106247Y-84766666D02*
X112296723Y-84814285D01*
X112296723Y-84814285D02*
X112391961Y-84861904D01*
X112391961Y-84861904D02*
X112487200Y-84957142D01*
X112487200Y-84957142D02*
X112534819Y-85099999D01*
X112534819Y-85099999D02*
X112534819Y-85338094D01*
X112534819Y-83814285D02*
X112534819Y-84385713D01*
X112534819Y-84099999D02*
X111534819Y-84099999D01*
X111534819Y-84099999D02*
X111677676Y-84195237D01*
X111677676Y-84195237D02*
X111772914Y-84290475D01*
X111772914Y-84290475D02*
X111820533Y-84385713D01*
X112854819Y-88671904D02*
X111854819Y-88671904D01*
X112854819Y-88100476D02*
X112283390Y-88529047D01*
X111854819Y-88100476D02*
X112426247Y-88671904D01*
X138190476Y-108152200D02*
X138333333Y-108199819D01*
X138333333Y-108199819D02*
X138571428Y-108199819D01*
X138571428Y-108199819D02*
X138666666Y-108152200D01*
X138666666Y-108152200D02*
X138714285Y-108104580D01*
X138714285Y-108104580D02*
X138761904Y-108009342D01*
X138761904Y-108009342D02*
X138761904Y-107914104D01*
X138761904Y-107914104D02*
X138714285Y-107818866D01*
X138714285Y-107818866D02*
X138666666Y-107771247D01*
X138666666Y-107771247D02*
X138571428Y-107723628D01*
X138571428Y-107723628D02*
X138380952Y-107676009D01*
X138380952Y-107676009D02*
X138285714Y-107628390D01*
X138285714Y-107628390D02*
X138238095Y-107580771D01*
X138238095Y-107580771D02*
X138190476Y-107485533D01*
X138190476Y-107485533D02*
X138190476Y-107390295D01*
X138190476Y-107390295D02*
X138238095Y-107295057D01*
X138238095Y-107295057D02*
X138285714Y-107247438D01*
X138285714Y-107247438D02*
X138380952Y-107199819D01*
X138380952Y-107199819D02*
X138619047Y-107199819D01*
X138619047Y-107199819D02*
X138761904Y-107247438D01*
X139095238Y-107199819D02*
X139333333Y-108199819D01*
X139333333Y-108199819D02*
X139523809Y-107485533D01*
X139523809Y-107485533D02*
X139714285Y-108199819D01*
X139714285Y-108199819D02*
X139952381Y-107199819D01*
X140857142Y-108199819D02*
X140285714Y-108199819D01*
X140571428Y-108199819D02*
X140571428Y-107199819D01*
X140571428Y-107199819D02*
X140476190Y-107342676D01*
X140476190Y-107342676D02*
X140380952Y-107437914D01*
X140380952Y-107437914D02*
X140285714Y-107485533D01*
X141714285Y-107533152D02*
X141714285Y-108199819D01*
X141476190Y-107152200D02*
X141238095Y-107866485D01*
X141238095Y-107866485D02*
X141857142Y-107866485D01*
X158666667Y-77152200D02*
X158809524Y-77199819D01*
X158809524Y-77199819D02*
X159047619Y-77199819D01*
X159047619Y-77199819D02*
X159142857Y-77152200D01*
X159142857Y-77152200D02*
X159190476Y-77104580D01*
X159190476Y-77104580D02*
X159238095Y-77009342D01*
X159238095Y-77009342D02*
X159238095Y-76914104D01*
X159238095Y-76914104D02*
X159190476Y-76818866D01*
X159190476Y-76818866D02*
X159142857Y-76771247D01*
X159142857Y-76771247D02*
X159047619Y-76723628D01*
X159047619Y-76723628D02*
X158857143Y-76676009D01*
X158857143Y-76676009D02*
X158761905Y-76628390D01*
X158761905Y-76628390D02*
X158714286Y-76580771D01*
X158714286Y-76580771D02*
X158666667Y-76485533D01*
X158666667Y-76485533D02*
X158666667Y-76390295D01*
X158666667Y-76390295D02*
X158714286Y-76295057D01*
X158714286Y-76295057D02*
X158761905Y-76247438D01*
X158761905Y-76247438D02*
X158857143Y-76199819D01*
X158857143Y-76199819D02*
X159095238Y-76199819D01*
X159095238Y-76199819D02*
X159238095Y-76247438D01*
X159571429Y-76199819D02*
X159809524Y-77199819D01*
X159809524Y-77199819D02*
X160000000Y-76485533D01*
X160000000Y-76485533D02*
X160190476Y-77199819D01*
X160190476Y-77199819D02*
X160428572Y-76199819D01*
X160857143Y-77199819D02*
X161047619Y-77199819D01*
X161047619Y-77199819D02*
X161142857Y-77152200D01*
X161142857Y-77152200D02*
X161190476Y-77104580D01*
X161190476Y-77104580D02*
X161285714Y-76961723D01*
X161285714Y-76961723D02*
X161333333Y-76771247D01*
X161333333Y-76771247D02*
X161333333Y-76390295D01*
X161333333Y-76390295D02*
X161285714Y-76295057D01*
X161285714Y-76295057D02*
X161238095Y-76247438D01*
X161238095Y-76247438D02*
X161142857Y-76199819D01*
X161142857Y-76199819D02*
X160952381Y-76199819D01*
X160952381Y-76199819D02*
X160857143Y-76247438D01*
X160857143Y-76247438D02*
X160809524Y-76295057D01*
X160809524Y-76295057D02*
X160761905Y-76390295D01*
X160761905Y-76390295D02*
X160761905Y-76628390D01*
X160761905Y-76628390D02*
X160809524Y-76723628D01*
X160809524Y-76723628D02*
X160857143Y-76771247D01*
X160857143Y-76771247D02*
X160952381Y-76818866D01*
X160952381Y-76818866D02*
X161142857Y-76818866D01*
X161142857Y-76818866D02*
X161238095Y-76771247D01*
X161238095Y-76771247D02*
X161285714Y-76723628D01*
X161285714Y-76723628D02*
X161333333Y-76628390D01*
X123166667Y-92652200D02*
X123309524Y-92699819D01*
X123309524Y-92699819D02*
X123547619Y-92699819D01*
X123547619Y-92699819D02*
X123642857Y-92652200D01*
X123642857Y-92652200D02*
X123690476Y-92604580D01*
X123690476Y-92604580D02*
X123738095Y-92509342D01*
X123738095Y-92509342D02*
X123738095Y-92414104D01*
X123738095Y-92414104D02*
X123690476Y-92318866D01*
X123690476Y-92318866D02*
X123642857Y-92271247D01*
X123642857Y-92271247D02*
X123547619Y-92223628D01*
X123547619Y-92223628D02*
X123357143Y-92176009D01*
X123357143Y-92176009D02*
X123261905Y-92128390D01*
X123261905Y-92128390D02*
X123214286Y-92080771D01*
X123214286Y-92080771D02*
X123166667Y-91985533D01*
X123166667Y-91985533D02*
X123166667Y-91890295D01*
X123166667Y-91890295D02*
X123214286Y-91795057D01*
X123214286Y-91795057D02*
X123261905Y-91747438D01*
X123261905Y-91747438D02*
X123357143Y-91699819D01*
X123357143Y-91699819D02*
X123595238Y-91699819D01*
X123595238Y-91699819D02*
X123738095Y-91747438D01*
X124071429Y-91699819D02*
X124309524Y-92699819D01*
X124309524Y-92699819D02*
X124500000Y-91985533D01*
X124500000Y-91985533D02*
X124690476Y-92699819D01*
X124690476Y-92699819D02*
X124928572Y-91699819D01*
X125214286Y-91699819D02*
X125880952Y-91699819D01*
X125880952Y-91699819D02*
X125452381Y-92699819D01*
X159285714Y-117334819D02*
X159285714Y-116334819D01*
X159285714Y-116334819D02*
X159523809Y-116334819D01*
X159523809Y-116334819D02*
X159666666Y-116382438D01*
X159666666Y-116382438D02*
X159761904Y-116477676D01*
X159761904Y-116477676D02*
X159809523Y-116572914D01*
X159809523Y-116572914D02*
X159857142Y-116763390D01*
X159857142Y-116763390D02*
X159857142Y-116906247D01*
X159857142Y-116906247D02*
X159809523Y-117096723D01*
X159809523Y-117096723D02*
X159761904Y-117191961D01*
X159761904Y-117191961D02*
X159666666Y-117287200D01*
X159666666Y-117287200D02*
X159523809Y-117334819D01*
X159523809Y-117334819D02*
X159285714Y-117334819D01*
X160809523Y-117334819D02*
X160238095Y-117334819D01*
X160523809Y-117334819D02*
X160523809Y-116334819D01*
X160523809Y-116334819D02*
X160428571Y-116477676D01*
X160428571Y-116477676D02*
X160333333Y-116572914D01*
X160333333Y-116572914D02*
X160238095Y-116620533D01*
X161714285Y-116334819D02*
X161238095Y-116334819D01*
X161238095Y-116334819D02*
X161190476Y-116811009D01*
X161190476Y-116811009D02*
X161238095Y-116763390D01*
X161238095Y-116763390D02*
X161333333Y-116715771D01*
X161333333Y-116715771D02*
X161571428Y-116715771D01*
X161571428Y-116715771D02*
X161666666Y-116763390D01*
X161666666Y-116763390D02*
X161714285Y-116811009D01*
X161714285Y-116811009D02*
X161761904Y-116906247D01*
X161761904Y-116906247D02*
X161761904Y-117144342D01*
X161761904Y-117144342D02*
X161714285Y-117239580D01*
X161714285Y-117239580D02*
X161666666Y-117287200D01*
X161666666Y-117287200D02*
X161571428Y-117334819D01*
X161571428Y-117334819D02*
X161333333Y-117334819D01*
X161333333Y-117334819D02*
X161238095Y-117287200D01*
X161238095Y-117287200D02*
X161190476Y-117239580D01*
X156428095Y-117654819D02*
X156428095Y-116654819D01*
X156999523Y-117654819D02*
X156570952Y-117083390D01*
X156999523Y-116654819D02*
X156428095Y-117226247D01*
X168834819Y-75238094D02*
X167834819Y-75238094D01*
X167834819Y-75238094D02*
X167834819Y-74999999D01*
X167834819Y-74999999D02*
X167882438Y-74857142D01*
X167882438Y-74857142D02*
X167977676Y-74761904D01*
X167977676Y-74761904D02*
X168072914Y-74714285D01*
X168072914Y-74714285D02*
X168263390Y-74666666D01*
X168263390Y-74666666D02*
X168406247Y-74666666D01*
X168406247Y-74666666D02*
X168596723Y-74714285D01*
X168596723Y-74714285D02*
X168691961Y-74761904D01*
X168691961Y-74761904D02*
X168787200Y-74857142D01*
X168787200Y-74857142D02*
X168834819Y-74999999D01*
X168834819Y-74999999D02*
X168834819Y-75238094D01*
X168168152Y-73809523D02*
X168834819Y-73809523D01*
X167787200Y-74047618D02*
X168501485Y-74285713D01*
X168501485Y-74285713D02*
X168501485Y-73666666D01*
X169154819Y-78571904D02*
X168154819Y-78571904D01*
X169154819Y-78000476D02*
X168583390Y-78429047D01*
X168154819Y-78000476D02*
X168726247Y-78571904D01*
X112548095Y-164254819D02*
X112548095Y-163254819D01*
X113119523Y-164254819D02*
X112690952Y-163683390D01*
X113119523Y-163254819D02*
X112548095Y-163826247D01*
X178190476Y-82152200D02*
X178333333Y-82199819D01*
X178333333Y-82199819D02*
X178571428Y-82199819D01*
X178571428Y-82199819D02*
X178666666Y-82152200D01*
X178666666Y-82152200D02*
X178714285Y-82104580D01*
X178714285Y-82104580D02*
X178761904Y-82009342D01*
X178761904Y-82009342D02*
X178761904Y-81914104D01*
X178761904Y-81914104D02*
X178714285Y-81818866D01*
X178714285Y-81818866D02*
X178666666Y-81771247D01*
X178666666Y-81771247D02*
X178571428Y-81723628D01*
X178571428Y-81723628D02*
X178380952Y-81676009D01*
X178380952Y-81676009D02*
X178285714Y-81628390D01*
X178285714Y-81628390D02*
X178238095Y-81580771D01*
X178238095Y-81580771D02*
X178190476Y-81485533D01*
X178190476Y-81485533D02*
X178190476Y-81390295D01*
X178190476Y-81390295D02*
X178238095Y-81295057D01*
X178238095Y-81295057D02*
X178285714Y-81247438D01*
X178285714Y-81247438D02*
X178380952Y-81199819D01*
X178380952Y-81199819D02*
X178619047Y-81199819D01*
X178619047Y-81199819D02*
X178761904Y-81247438D01*
X179095238Y-81199819D02*
X179333333Y-82199819D01*
X179333333Y-82199819D02*
X179523809Y-81485533D01*
X179523809Y-81485533D02*
X179714285Y-82199819D01*
X179714285Y-82199819D02*
X179952381Y-81199819D01*
X180857142Y-82199819D02*
X180285714Y-82199819D01*
X180571428Y-82199819D02*
X180571428Y-81199819D01*
X180571428Y-81199819D02*
X180476190Y-81342676D01*
X180476190Y-81342676D02*
X180380952Y-81437914D01*
X180380952Y-81437914D02*
X180285714Y-81485533D01*
X181476190Y-81199819D02*
X181571428Y-81199819D01*
X181571428Y-81199819D02*
X181666666Y-81247438D01*
X181666666Y-81247438D02*
X181714285Y-81295057D01*
X181714285Y-81295057D02*
X181761904Y-81390295D01*
X181761904Y-81390295D02*
X181809523Y-81580771D01*
X181809523Y-81580771D02*
X181809523Y-81818866D01*
X181809523Y-81818866D02*
X181761904Y-82009342D01*
X181761904Y-82009342D02*
X181714285Y-82104580D01*
X181714285Y-82104580D02*
X181666666Y-82152200D01*
X181666666Y-82152200D02*
X181571428Y-82199819D01*
X181571428Y-82199819D02*
X181476190Y-82199819D01*
X181476190Y-82199819D02*
X181380952Y-82152200D01*
X181380952Y-82152200D02*
X181333333Y-82104580D01*
X181333333Y-82104580D02*
X181285714Y-82009342D01*
X181285714Y-82009342D02*
X181238095Y-81818866D01*
X181238095Y-81818866D02*
X181238095Y-81580771D01*
X181238095Y-81580771D02*
X181285714Y-81390295D01*
X181285714Y-81390295D02*
X181333333Y-81295057D01*
X181333333Y-81295057D02*
X181380952Y-81247438D01*
X181380952Y-81247438D02*
X181476190Y-81199819D01*
X209666667Y-87152200D02*
X209809524Y-87199819D01*
X209809524Y-87199819D02*
X210047619Y-87199819D01*
X210047619Y-87199819D02*
X210142857Y-87152200D01*
X210142857Y-87152200D02*
X210190476Y-87104580D01*
X210190476Y-87104580D02*
X210238095Y-87009342D01*
X210238095Y-87009342D02*
X210238095Y-86914104D01*
X210238095Y-86914104D02*
X210190476Y-86818866D01*
X210190476Y-86818866D02*
X210142857Y-86771247D01*
X210142857Y-86771247D02*
X210047619Y-86723628D01*
X210047619Y-86723628D02*
X209857143Y-86676009D01*
X209857143Y-86676009D02*
X209761905Y-86628390D01*
X209761905Y-86628390D02*
X209714286Y-86580771D01*
X209714286Y-86580771D02*
X209666667Y-86485533D01*
X209666667Y-86485533D02*
X209666667Y-86390295D01*
X209666667Y-86390295D02*
X209714286Y-86295057D01*
X209714286Y-86295057D02*
X209761905Y-86247438D01*
X209761905Y-86247438D02*
X209857143Y-86199819D01*
X209857143Y-86199819D02*
X210095238Y-86199819D01*
X210095238Y-86199819D02*
X210238095Y-86247438D01*
X210571429Y-86199819D02*
X210809524Y-87199819D01*
X210809524Y-87199819D02*
X211000000Y-86485533D01*
X211000000Y-86485533D02*
X211190476Y-87199819D01*
X211190476Y-87199819D02*
X211428572Y-86199819D01*
X212238095Y-86199819D02*
X212047619Y-86199819D01*
X212047619Y-86199819D02*
X211952381Y-86247438D01*
X211952381Y-86247438D02*
X211904762Y-86295057D01*
X211904762Y-86295057D02*
X211809524Y-86437914D01*
X211809524Y-86437914D02*
X211761905Y-86628390D01*
X211761905Y-86628390D02*
X211761905Y-87009342D01*
X211761905Y-87009342D02*
X211809524Y-87104580D01*
X211809524Y-87104580D02*
X211857143Y-87152200D01*
X211857143Y-87152200D02*
X211952381Y-87199819D01*
X211952381Y-87199819D02*
X212142857Y-87199819D01*
X212142857Y-87199819D02*
X212238095Y-87152200D01*
X212238095Y-87152200D02*
X212285714Y-87104580D01*
X212285714Y-87104580D02*
X212333333Y-87009342D01*
X212333333Y-87009342D02*
X212333333Y-86771247D01*
X212333333Y-86771247D02*
X212285714Y-86676009D01*
X212285714Y-86676009D02*
X212238095Y-86628390D01*
X212238095Y-86628390D02*
X212142857Y-86580771D01*
X212142857Y-86580771D02*
X211952381Y-86580771D01*
X211952381Y-86580771D02*
X211857143Y-86628390D01*
X211857143Y-86628390D02*
X211809524Y-86676009D01*
X211809524Y-86676009D02*
X211761905Y-86771247D01*
X106475714Y-120334819D02*
X106475714Y-119334819D01*
X106475714Y-119334819D02*
X106713809Y-119334819D01*
X106713809Y-119334819D02*
X106856666Y-119382438D01*
X106856666Y-119382438D02*
X106951904Y-119477676D01*
X106951904Y-119477676D02*
X106999523Y-119572914D01*
X106999523Y-119572914D02*
X107047142Y-119763390D01*
X107047142Y-119763390D02*
X107047142Y-119906247D01*
X107047142Y-119906247D02*
X106999523Y-120096723D01*
X106999523Y-120096723D02*
X106951904Y-120191961D01*
X106951904Y-120191961D02*
X106856666Y-120287200D01*
X106856666Y-120287200D02*
X106713809Y-120334819D01*
X106713809Y-120334819D02*
X106475714Y-120334819D01*
X107999523Y-120334819D02*
X107428095Y-120334819D01*
X107713809Y-120334819D02*
X107713809Y-119334819D01*
X107713809Y-119334819D02*
X107618571Y-119477676D01*
X107618571Y-119477676D02*
X107523333Y-119572914D01*
X107523333Y-119572914D02*
X107428095Y-119620533D01*
X108475714Y-120334819D02*
X108666190Y-120334819D01*
X108666190Y-120334819D02*
X108761428Y-120287200D01*
X108761428Y-120287200D02*
X108809047Y-120239580D01*
X108809047Y-120239580D02*
X108904285Y-120096723D01*
X108904285Y-120096723D02*
X108951904Y-119906247D01*
X108951904Y-119906247D02*
X108951904Y-119525295D01*
X108951904Y-119525295D02*
X108904285Y-119430057D01*
X108904285Y-119430057D02*
X108856666Y-119382438D01*
X108856666Y-119382438D02*
X108761428Y-119334819D01*
X108761428Y-119334819D02*
X108570952Y-119334819D01*
X108570952Y-119334819D02*
X108475714Y-119382438D01*
X108475714Y-119382438D02*
X108428095Y-119430057D01*
X108428095Y-119430057D02*
X108380476Y-119525295D01*
X108380476Y-119525295D02*
X108380476Y-119763390D01*
X108380476Y-119763390D02*
X108428095Y-119858628D01*
X108428095Y-119858628D02*
X108475714Y-119906247D01*
X108475714Y-119906247D02*
X108570952Y-119953866D01*
X108570952Y-119953866D02*
X108761428Y-119953866D01*
X108761428Y-119953866D02*
X108856666Y-119906247D01*
X108856666Y-119906247D02*
X108904285Y-119858628D01*
X108904285Y-119858628D02*
X108951904Y-119763390D01*
X103618095Y-120654819D02*
X103618095Y-119654819D01*
X104189523Y-120654819D02*
X103760952Y-120083390D01*
X104189523Y-119654819D02*
X103618095Y-120226247D01*
X193690476Y-102652200D02*
X193833333Y-102699819D01*
X193833333Y-102699819D02*
X194071428Y-102699819D01*
X194071428Y-102699819D02*
X194166666Y-102652200D01*
X194166666Y-102652200D02*
X194214285Y-102604580D01*
X194214285Y-102604580D02*
X194261904Y-102509342D01*
X194261904Y-102509342D02*
X194261904Y-102414104D01*
X194261904Y-102414104D02*
X194214285Y-102318866D01*
X194214285Y-102318866D02*
X194166666Y-102271247D01*
X194166666Y-102271247D02*
X194071428Y-102223628D01*
X194071428Y-102223628D02*
X193880952Y-102176009D01*
X193880952Y-102176009D02*
X193785714Y-102128390D01*
X193785714Y-102128390D02*
X193738095Y-102080771D01*
X193738095Y-102080771D02*
X193690476Y-101985533D01*
X193690476Y-101985533D02*
X193690476Y-101890295D01*
X193690476Y-101890295D02*
X193738095Y-101795057D01*
X193738095Y-101795057D02*
X193785714Y-101747438D01*
X193785714Y-101747438D02*
X193880952Y-101699819D01*
X193880952Y-101699819D02*
X194119047Y-101699819D01*
X194119047Y-101699819D02*
X194261904Y-101747438D01*
X194595238Y-101699819D02*
X194833333Y-102699819D01*
X194833333Y-102699819D02*
X195023809Y-101985533D01*
X195023809Y-101985533D02*
X195214285Y-102699819D01*
X195214285Y-102699819D02*
X195452381Y-101699819D01*
X196357142Y-102699819D02*
X195785714Y-102699819D01*
X196071428Y-102699819D02*
X196071428Y-101699819D01*
X196071428Y-101699819D02*
X195976190Y-101842676D01*
X195976190Y-101842676D02*
X195880952Y-101937914D01*
X195880952Y-101937914D02*
X195785714Y-101985533D01*
X197309523Y-102699819D02*
X196738095Y-102699819D01*
X197023809Y-102699819D02*
X197023809Y-101699819D01*
X197023809Y-101699819D02*
X196928571Y-101842676D01*
X196928571Y-101842676D02*
X196833333Y-101937914D01*
X196833333Y-101937914D02*
X196738095Y-101985533D01*
X193690476Y-118152200D02*
X193833333Y-118199819D01*
X193833333Y-118199819D02*
X194071428Y-118199819D01*
X194071428Y-118199819D02*
X194166666Y-118152200D01*
X194166666Y-118152200D02*
X194214285Y-118104580D01*
X194214285Y-118104580D02*
X194261904Y-118009342D01*
X194261904Y-118009342D02*
X194261904Y-117914104D01*
X194261904Y-117914104D02*
X194214285Y-117818866D01*
X194214285Y-117818866D02*
X194166666Y-117771247D01*
X194166666Y-117771247D02*
X194071428Y-117723628D01*
X194071428Y-117723628D02*
X193880952Y-117676009D01*
X193880952Y-117676009D02*
X193785714Y-117628390D01*
X193785714Y-117628390D02*
X193738095Y-117580771D01*
X193738095Y-117580771D02*
X193690476Y-117485533D01*
X193690476Y-117485533D02*
X193690476Y-117390295D01*
X193690476Y-117390295D02*
X193738095Y-117295057D01*
X193738095Y-117295057D02*
X193785714Y-117247438D01*
X193785714Y-117247438D02*
X193880952Y-117199819D01*
X193880952Y-117199819D02*
X194119047Y-117199819D01*
X194119047Y-117199819D02*
X194261904Y-117247438D01*
X194595238Y-117199819D02*
X194833333Y-118199819D01*
X194833333Y-118199819D02*
X195023809Y-117485533D01*
X195023809Y-117485533D02*
X195214285Y-118199819D01*
X195214285Y-118199819D02*
X195452381Y-117199819D01*
X196357142Y-118199819D02*
X195785714Y-118199819D01*
X196071428Y-118199819D02*
X196071428Y-117199819D01*
X196071428Y-117199819D02*
X195976190Y-117342676D01*
X195976190Y-117342676D02*
X195880952Y-117437914D01*
X195880952Y-117437914D02*
X195785714Y-117485533D01*
X196690476Y-117199819D02*
X197357142Y-117199819D01*
X197357142Y-117199819D02*
X196928571Y-118199819D01*
X194166667Y-87152200D02*
X194309524Y-87199819D01*
X194309524Y-87199819D02*
X194547619Y-87199819D01*
X194547619Y-87199819D02*
X194642857Y-87152200D01*
X194642857Y-87152200D02*
X194690476Y-87104580D01*
X194690476Y-87104580D02*
X194738095Y-87009342D01*
X194738095Y-87009342D02*
X194738095Y-86914104D01*
X194738095Y-86914104D02*
X194690476Y-86818866D01*
X194690476Y-86818866D02*
X194642857Y-86771247D01*
X194642857Y-86771247D02*
X194547619Y-86723628D01*
X194547619Y-86723628D02*
X194357143Y-86676009D01*
X194357143Y-86676009D02*
X194261905Y-86628390D01*
X194261905Y-86628390D02*
X194214286Y-86580771D01*
X194214286Y-86580771D02*
X194166667Y-86485533D01*
X194166667Y-86485533D02*
X194166667Y-86390295D01*
X194166667Y-86390295D02*
X194214286Y-86295057D01*
X194214286Y-86295057D02*
X194261905Y-86247438D01*
X194261905Y-86247438D02*
X194357143Y-86199819D01*
X194357143Y-86199819D02*
X194595238Y-86199819D01*
X194595238Y-86199819D02*
X194738095Y-86247438D01*
X195071429Y-86199819D02*
X195309524Y-87199819D01*
X195309524Y-87199819D02*
X195500000Y-86485533D01*
X195500000Y-86485533D02*
X195690476Y-87199819D01*
X195690476Y-87199819D02*
X195928572Y-86199819D01*
X196785714Y-86199819D02*
X196309524Y-86199819D01*
X196309524Y-86199819D02*
X196261905Y-86676009D01*
X196261905Y-86676009D02*
X196309524Y-86628390D01*
X196309524Y-86628390D02*
X196404762Y-86580771D01*
X196404762Y-86580771D02*
X196642857Y-86580771D01*
X196642857Y-86580771D02*
X196738095Y-86628390D01*
X196738095Y-86628390D02*
X196785714Y-86676009D01*
X196785714Y-86676009D02*
X196833333Y-86771247D01*
X196833333Y-86771247D02*
X196833333Y-87009342D01*
X196833333Y-87009342D02*
X196785714Y-87104580D01*
X196785714Y-87104580D02*
X196738095Y-87152200D01*
X196738095Y-87152200D02*
X196642857Y-87199819D01*
X196642857Y-87199819D02*
X196404762Y-87199819D01*
X196404762Y-87199819D02*
X196309524Y-87152200D01*
X196309524Y-87152200D02*
X196261905Y-87104580D01*
X138190476Y-136907200D02*
X138333333Y-136954819D01*
X138333333Y-136954819D02*
X138571428Y-136954819D01*
X138571428Y-136954819D02*
X138666666Y-136907200D01*
X138666666Y-136907200D02*
X138714285Y-136859580D01*
X138714285Y-136859580D02*
X138761904Y-136764342D01*
X138761904Y-136764342D02*
X138761904Y-136669104D01*
X138761904Y-136669104D02*
X138714285Y-136573866D01*
X138714285Y-136573866D02*
X138666666Y-136526247D01*
X138666666Y-136526247D02*
X138571428Y-136478628D01*
X138571428Y-136478628D02*
X138380952Y-136431009D01*
X138380952Y-136431009D02*
X138285714Y-136383390D01*
X138285714Y-136383390D02*
X138238095Y-136335771D01*
X138238095Y-136335771D02*
X138190476Y-136240533D01*
X138190476Y-136240533D02*
X138190476Y-136145295D01*
X138190476Y-136145295D02*
X138238095Y-136050057D01*
X138238095Y-136050057D02*
X138285714Y-136002438D01*
X138285714Y-136002438D02*
X138380952Y-135954819D01*
X138380952Y-135954819D02*
X138619047Y-135954819D01*
X138619047Y-135954819D02*
X138761904Y-136002438D01*
X139095238Y-135954819D02*
X139333333Y-136954819D01*
X139333333Y-136954819D02*
X139523809Y-136240533D01*
X139523809Y-136240533D02*
X139714285Y-136954819D01*
X139714285Y-136954819D02*
X139952381Y-135954819D01*
X140285714Y-136050057D02*
X140333333Y-136002438D01*
X140333333Y-136002438D02*
X140428571Y-135954819D01*
X140428571Y-135954819D02*
X140666666Y-135954819D01*
X140666666Y-135954819D02*
X140761904Y-136002438D01*
X140761904Y-136002438D02*
X140809523Y-136050057D01*
X140809523Y-136050057D02*
X140857142Y-136145295D01*
X140857142Y-136145295D02*
X140857142Y-136240533D01*
X140857142Y-136240533D02*
X140809523Y-136383390D01*
X140809523Y-136383390D02*
X140238095Y-136954819D01*
X140238095Y-136954819D02*
X140857142Y-136954819D01*
X141809523Y-136954819D02*
X141238095Y-136954819D01*
X141523809Y-136954819D02*
X141523809Y-135954819D01*
X141523809Y-135954819D02*
X141428571Y-136097676D01*
X141428571Y-136097676D02*
X141333333Y-136192914D01*
X141333333Y-136192914D02*
X141238095Y-136240533D01*
X138666667Y-77152200D02*
X138809524Y-77199819D01*
X138809524Y-77199819D02*
X139047619Y-77199819D01*
X139047619Y-77199819D02*
X139142857Y-77152200D01*
X139142857Y-77152200D02*
X139190476Y-77104580D01*
X139190476Y-77104580D02*
X139238095Y-77009342D01*
X139238095Y-77009342D02*
X139238095Y-76914104D01*
X139238095Y-76914104D02*
X139190476Y-76818866D01*
X139190476Y-76818866D02*
X139142857Y-76771247D01*
X139142857Y-76771247D02*
X139047619Y-76723628D01*
X139047619Y-76723628D02*
X138857143Y-76676009D01*
X138857143Y-76676009D02*
X138761905Y-76628390D01*
X138761905Y-76628390D02*
X138714286Y-76580771D01*
X138714286Y-76580771D02*
X138666667Y-76485533D01*
X138666667Y-76485533D02*
X138666667Y-76390295D01*
X138666667Y-76390295D02*
X138714286Y-76295057D01*
X138714286Y-76295057D02*
X138761905Y-76247438D01*
X138761905Y-76247438D02*
X138857143Y-76199819D01*
X138857143Y-76199819D02*
X139095238Y-76199819D01*
X139095238Y-76199819D02*
X139238095Y-76247438D01*
X139571429Y-76199819D02*
X139809524Y-77199819D01*
X139809524Y-77199819D02*
X140000000Y-76485533D01*
X140000000Y-76485533D02*
X140190476Y-77199819D01*
X140190476Y-77199819D02*
X140428572Y-76199819D01*
X140761905Y-76295057D02*
X140809524Y-76247438D01*
X140809524Y-76247438D02*
X140904762Y-76199819D01*
X140904762Y-76199819D02*
X141142857Y-76199819D01*
X141142857Y-76199819D02*
X141238095Y-76247438D01*
X141238095Y-76247438D02*
X141285714Y-76295057D01*
X141285714Y-76295057D02*
X141333333Y-76390295D01*
X141333333Y-76390295D02*
X141333333Y-76485533D01*
X141333333Y-76485533D02*
X141285714Y-76628390D01*
X141285714Y-76628390D02*
X140714286Y-77199819D01*
X140714286Y-77199819D02*
X141333333Y-77199819D01*
X112634819Y-100248094D02*
X111634819Y-100248094D01*
X111634819Y-100248094D02*
X111634819Y-100009999D01*
X111634819Y-100009999D02*
X111682438Y-99867142D01*
X111682438Y-99867142D02*
X111777676Y-99771904D01*
X111777676Y-99771904D02*
X111872914Y-99724285D01*
X111872914Y-99724285D02*
X112063390Y-99676666D01*
X112063390Y-99676666D02*
X112206247Y-99676666D01*
X112206247Y-99676666D02*
X112396723Y-99724285D01*
X112396723Y-99724285D02*
X112491961Y-99771904D01*
X112491961Y-99771904D02*
X112587200Y-99867142D01*
X112587200Y-99867142D02*
X112634819Y-100009999D01*
X112634819Y-100009999D02*
X112634819Y-100248094D01*
X111634819Y-99343332D02*
X111634819Y-98676666D01*
X111634819Y-98676666D02*
X112634819Y-99105237D01*
X112954819Y-103581904D02*
X111954819Y-103581904D01*
X112954819Y-103010476D02*
X112383390Y-103439047D01*
X111954819Y-103010476D02*
X112526247Y-103581904D01*
X135828095Y-160454819D02*
X135828095Y-159454819D01*
X136399523Y-160454819D02*
X135970952Y-159883390D01*
X136399523Y-159454819D02*
X135828095Y-160026247D01*
X209885714Y-120234819D02*
X209885714Y-119234819D01*
X209885714Y-119234819D02*
X210123809Y-119234819D01*
X210123809Y-119234819D02*
X210266666Y-119282438D01*
X210266666Y-119282438D02*
X210361904Y-119377676D01*
X210361904Y-119377676D02*
X210409523Y-119472914D01*
X210409523Y-119472914D02*
X210457142Y-119663390D01*
X210457142Y-119663390D02*
X210457142Y-119806247D01*
X210457142Y-119806247D02*
X210409523Y-119996723D01*
X210409523Y-119996723D02*
X210361904Y-120091961D01*
X210361904Y-120091961D02*
X210266666Y-120187200D01*
X210266666Y-120187200D02*
X210123809Y-120234819D01*
X210123809Y-120234819D02*
X209885714Y-120234819D01*
X211409523Y-120234819D02*
X210838095Y-120234819D01*
X211123809Y-120234819D02*
X211123809Y-119234819D01*
X211123809Y-119234819D02*
X211028571Y-119377676D01*
X211028571Y-119377676D02*
X210933333Y-119472914D01*
X210933333Y-119472914D02*
X210838095Y-119520533D01*
X211790476Y-119330057D02*
X211838095Y-119282438D01*
X211838095Y-119282438D02*
X211933333Y-119234819D01*
X211933333Y-119234819D02*
X212171428Y-119234819D01*
X212171428Y-119234819D02*
X212266666Y-119282438D01*
X212266666Y-119282438D02*
X212314285Y-119330057D01*
X212314285Y-119330057D02*
X212361904Y-119425295D01*
X212361904Y-119425295D02*
X212361904Y-119520533D01*
X212361904Y-119520533D02*
X212314285Y-119663390D01*
X212314285Y-119663390D02*
X211742857Y-120234819D01*
X211742857Y-120234819D02*
X212361904Y-120234819D01*
X207028095Y-120554819D02*
X207028095Y-119554819D01*
X207599523Y-120554819D02*
X207170952Y-119983390D01*
X207599523Y-119554819D02*
X207028095Y-120126247D01*
X103954819Y-103833333D02*
X104669104Y-103833333D01*
X104669104Y-103833333D02*
X104811961Y-103880952D01*
X104811961Y-103880952D02*
X104907200Y-103976190D01*
X104907200Y-103976190D02*
X104954819Y-104119047D01*
X104954819Y-104119047D02*
X104954819Y-104214285D01*
X104954819Y-102833333D02*
X104954819Y-103404761D01*
X104954819Y-103119047D02*
X103954819Y-103119047D01*
X103954819Y-103119047D02*
X104097676Y-103214285D01*
X104097676Y-103214285D02*
X104192914Y-103309523D01*
X104192914Y-103309523D02*
X104240533Y-103404761D01*
X158190476Y-92652200D02*
X158333333Y-92699819D01*
X158333333Y-92699819D02*
X158571428Y-92699819D01*
X158571428Y-92699819D02*
X158666666Y-92652200D01*
X158666666Y-92652200D02*
X158714285Y-92604580D01*
X158714285Y-92604580D02*
X158761904Y-92509342D01*
X158761904Y-92509342D02*
X158761904Y-92414104D01*
X158761904Y-92414104D02*
X158714285Y-92318866D01*
X158714285Y-92318866D02*
X158666666Y-92271247D01*
X158666666Y-92271247D02*
X158571428Y-92223628D01*
X158571428Y-92223628D02*
X158380952Y-92176009D01*
X158380952Y-92176009D02*
X158285714Y-92128390D01*
X158285714Y-92128390D02*
X158238095Y-92080771D01*
X158238095Y-92080771D02*
X158190476Y-91985533D01*
X158190476Y-91985533D02*
X158190476Y-91890295D01*
X158190476Y-91890295D02*
X158238095Y-91795057D01*
X158238095Y-91795057D02*
X158285714Y-91747438D01*
X158285714Y-91747438D02*
X158380952Y-91699819D01*
X158380952Y-91699819D02*
X158619047Y-91699819D01*
X158619047Y-91699819D02*
X158761904Y-91747438D01*
X159095238Y-91699819D02*
X159333333Y-92699819D01*
X159333333Y-92699819D02*
X159523809Y-91985533D01*
X159523809Y-91985533D02*
X159714285Y-92699819D01*
X159714285Y-92699819D02*
X159952381Y-91699819D01*
X160857142Y-92699819D02*
X160285714Y-92699819D01*
X160571428Y-92699819D02*
X160571428Y-91699819D01*
X160571428Y-91699819D02*
X160476190Y-91842676D01*
X160476190Y-91842676D02*
X160380952Y-91937914D01*
X160380952Y-91937914D02*
X160285714Y-91985533D01*
X161761904Y-91699819D02*
X161285714Y-91699819D01*
X161285714Y-91699819D02*
X161238095Y-92176009D01*
X161238095Y-92176009D02*
X161285714Y-92128390D01*
X161285714Y-92128390D02*
X161380952Y-92080771D01*
X161380952Y-92080771D02*
X161619047Y-92080771D01*
X161619047Y-92080771D02*
X161714285Y-92128390D01*
X161714285Y-92128390D02*
X161761904Y-92176009D01*
X161761904Y-92176009D02*
X161809523Y-92271247D01*
X161809523Y-92271247D02*
X161809523Y-92509342D01*
X161809523Y-92509342D02*
X161761904Y-92604580D01*
X161761904Y-92604580D02*
X161714285Y-92652200D01*
X161714285Y-92652200D02*
X161619047Y-92699819D01*
X161619047Y-92699819D02*
X161380952Y-92699819D01*
X161380952Y-92699819D02*
X161285714Y-92652200D01*
X161285714Y-92652200D02*
X161238095Y-92604580D01*
X174928095Y-119154819D02*
X174928095Y-118154819D01*
X175499523Y-119154819D02*
X175070952Y-118583390D01*
X175499523Y-118154819D02*
X174928095Y-118726247D01*
X122690476Y-136907200D02*
X122833333Y-136954819D01*
X122833333Y-136954819D02*
X123071428Y-136954819D01*
X123071428Y-136954819D02*
X123166666Y-136907200D01*
X123166666Y-136907200D02*
X123214285Y-136859580D01*
X123214285Y-136859580D02*
X123261904Y-136764342D01*
X123261904Y-136764342D02*
X123261904Y-136669104D01*
X123261904Y-136669104D02*
X123214285Y-136573866D01*
X123214285Y-136573866D02*
X123166666Y-136526247D01*
X123166666Y-136526247D02*
X123071428Y-136478628D01*
X123071428Y-136478628D02*
X122880952Y-136431009D01*
X122880952Y-136431009D02*
X122785714Y-136383390D01*
X122785714Y-136383390D02*
X122738095Y-136335771D01*
X122738095Y-136335771D02*
X122690476Y-136240533D01*
X122690476Y-136240533D02*
X122690476Y-136145295D01*
X122690476Y-136145295D02*
X122738095Y-136050057D01*
X122738095Y-136050057D02*
X122785714Y-136002438D01*
X122785714Y-136002438D02*
X122880952Y-135954819D01*
X122880952Y-135954819D02*
X123119047Y-135954819D01*
X123119047Y-135954819D02*
X123261904Y-136002438D01*
X123595238Y-135954819D02*
X123833333Y-136954819D01*
X123833333Y-136954819D02*
X124023809Y-136240533D01*
X124023809Y-136240533D02*
X124214285Y-136954819D01*
X124214285Y-136954819D02*
X124452381Y-135954819D01*
X124785714Y-136050057D02*
X124833333Y-136002438D01*
X124833333Y-136002438D02*
X124928571Y-135954819D01*
X124928571Y-135954819D02*
X125166666Y-135954819D01*
X125166666Y-135954819D02*
X125261904Y-136002438D01*
X125261904Y-136002438D02*
X125309523Y-136050057D01*
X125309523Y-136050057D02*
X125357142Y-136145295D01*
X125357142Y-136145295D02*
X125357142Y-136240533D01*
X125357142Y-136240533D02*
X125309523Y-136383390D01*
X125309523Y-136383390D02*
X124738095Y-136954819D01*
X124738095Y-136954819D02*
X125357142Y-136954819D01*
X125976190Y-135954819D02*
X126071428Y-135954819D01*
X126071428Y-135954819D02*
X126166666Y-136002438D01*
X126166666Y-136002438D02*
X126214285Y-136050057D01*
X126214285Y-136050057D02*
X126261904Y-136145295D01*
X126261904Y-136145295D02*
X126309523Y-136335771D01*
X126309523Y-136335771D02*
X126309523Y-136573866D01*
X126309523Y-136573866D02*
X126261904Y-136764342D01*
X126261904Y-136764342D02*
X126214285Y-136859580D01*
X126214285Y-136859580D02*
X126166666Y-136907200D01*
X126166666Y-136907200D02*
X126071428Y-136954819D01*
X126071428Y-136954819D02*
X125976190Y-136954819D01*
X125976190Y-136954819D02*
X125880952Y-136907200D01*
X125880952Y-136907200D02*
X125833333Y-136859580D01*
X125833333Y-136859580D02*
X125785714Y-136764342D01*
X125785714Y-136764342D02*
X125738095Y-136573866D01*
X125738095Y-136573866D02*
X125738095Y-136335771D01*
X125738095Y-136335771D02*
X125785714Y-136145295D01*
X125785714Y-136145295D02*
X125833333Y-136050057D01*
X125833333Y-136050057D02*
X125880952Y-136002438D01*
X125880952Y-136002438D02*
X125976190Y-135954819D01*
X120328095Y-160654819D02*
X120328095Y-159654819D01*
X120899523Y-160654819D02*
X120470952Y-160083390D01*
X120899523Y-159654819D02*
X120328095Y-160226247D01*
X168834819Y-108024285D02*
X167834819Y-108024285D01*
X167834819Y-108024285D02*
X167834819Y-107786190D01*
X167834819Y-107786190D02*
X167882438Y-107643333D01*
X167882438Y-107643333D02*
X167977676Y-107548095D01*
X167977676Y-107548095D02*
X168072914Y-107500476D01*
X168072914Y-107500476D02*
X168263390Y-107452857D01*
X168263390Y-107452857D02*
X168406247Y-107452857D01*
X168406247Y-107452857D02*
X168596723Y-107500476D01*
X168596723Y-107500476D02*
X168691961Y-107548095D01*
X168691961Y-107548095D02*
X168787200Y-107643333D01*
X168787200Y-107643333D02*
X168834819Y-107786190D01*
X168834819Y-107786190D02*
X168834819Y-108024285D01*
X168834819Y-106500476D02*
X168834819Y-107071904D01*
X168834819Y-106786190D02*
X167834819Y-106786190D01*
X167834819Y-106786190D02*
X167977676Y-106881428D01*
X167977676Y-106881428D02*
X168072914Y-106976666D01*
X168072914Y-106976666D02*
X168120533Y-107071904D01*
X167834819Y-105643333D02*
X167834819Y-105833809D01*
X167834819Y-105833809D02*
X167882438Y-105929047D01*
X167882438Y-105929047D02*
X167930057Y-105976666D01*
X167930057Y-105976666D02*
X168072914Y-106071904D01*
X168072914Y-106071904D02*
X168263390Y-106119523D01*
X168263390Y-106119523D02*
X168644342Y-106119523D01*
X168644342Y-106119523D02*
X168739580Y-106071904D01*
X168739580Y-106071904D02*
X168787200Y-106024285D01*
X168787200Y-106024285D02*
X168834819Y-105929047D01*
X168834819Y-105929047D02*
X168834819Y-105738571D01*
X168834819Y-105738571D02*
X168787200Y-105643333D01*
X168787200Y-105643333D02*
X168739580Y-105595714D01*
X168739580Y-105595714D02*
X168644342Y-105548095D01*
X168644342Y-105548095D02*
X168406247Y-105548095D01*
X168406247Y-105548095D02*
X168311009Y-105595714D01*
X168311009Y-105595714D02*
X168263390Y-105643333D01*
X168263390Y-105643333D02*
X168215771Y-105738571D01*
X168215771Y-105738571D02*
X168215771Y-105929047D01*
X168215771Y-105929047D02*
X168263390Y-106024285D01*
X168263390Y-106024285D02*
X168311009Y-106071904D01*
X168311009Y-106071904D02*
X168406247Y-106119523D01*
X169154819Y-110881904D02*
X168154819Y-110881904D01*
X169154819Y-110310476D02*
X168583390Y-110739047D01*
X168154819Y-110310476D02*
X168726247Y-110881904D01*
X138951905Y-71934819D02*
X138951905Y-70934819D01*
X138951905Y-70934819D02*
X139190000Y-70934819D01*
X139190000Y-70934819D02*
X139332857Y-70982438D01*
X139332857Y-70982438D02*
X139428095Y-71077676D01*
X139428095Y-71077676D02*
X139475714Y-71172914D01*
X139475714Y-71172914D02*
X139523333Y-71363390D01*
X139523333Y-71363390D02*
X139523333Y-71506247D01*
X139523333Y-71506247D02*
X139475714Y-71696723D01*
X139475714Y-71696723D02*
X139428095Y-71791961D01*
X139428095Y-71791961D02*
X139332857Y-71887200D01*
X139332857Y-71887200D02*
X139190000Y-71934819D01*
X139190000Y-71934819D02*
X138951905Y-71934819D01*
X139904286Y-71030057D02*
X139951905Y-70982438D01*
X139951905Y-70982438D02*
X140047143Y-70934819D01*
X140047143Y-70934819D02*
X140285238Y-70934819D01*
X140285238Y-70934819D02*
X140380476Y-70982438D01*
X140380476Y-70982438D02*
X140428095Y-71030057D01*
X140428095Y-71030057D02*
X140475714Y-71125295D01*
X140475714Y-71125295D02*
X140475714Y-71220533D01*
X140475714Y-71220533D02*
X140428095Y-71363390D01*
X140428095Y-71363390D02*
X139856667Y-71934819D01*
X139856667Y-71934819D02*
X140475714Y-71934819D01*
X135618095Y-72254819D02*
X135618095Y-71254819D01*
X136189523Y-72254819D02*
X135760952Y-71683390D01*
X136189523Y-71254819D02*
X135618095Y-71826247D01*
X178190476Y-97652200D02*
X178333333Y-97699819D01*
X178333333Y-97699819D02*
X178571428Y-97699819D01*
X178571428Y-97699819D02*
X178666666Y-97652200D01*
X178666666Y-97652200D02*
X178714285Y-97604580D01*
X178714285Y-97604580D02*
X178761904Y-97509342D01*
X178761904Y-97509342D02*
X178761904Y-97414104D01*
X178761904Y-97414104D02*
X178714285Y-97318866D01*
X178714285Y-97318866D02*
X178666666Y-97271247D01*
X178666666Y-97271247D02*
X178571428Y-97223628D01*
X178571428Y-97223628D02*
X178380952Y-97176009D01*
X178380952Y-97176009D02*
X178285714Y-97128390D01*
X178285714Y-97128390D02*
X178238095Y-97080771D01*
X178238095Y-97080771D02*
X178190476Y-96985533D01*
X178190476Y-96985533D02*
X178190476Y-96890295D01*
X178190476Y-96890295D02*
X178238095Y-96795057D01*
X178238095Y-96795057D02*
X178285714Y-96747438D01*
X178285714Y-96747438D02*
X178380952Y-96699819D01*
X178380952Y-96699819D02*
X178619047Y-96699819D01*
X178619047Y-96699819D02*
X178761904Y-96747438D01*
X179095238Y-96699819D02*
X179333333Y-97699819D01*
X179333333Y-97699819D02*
X179523809Y-96985533D01*
X179523809Y-96985533D02*
X179714285Y-97699819D01*
X179714285Y-97699819D02*
X179952381Y-96699819D01*
X180857142Y-97699819D02*
X180285714Y-97699819D01*
X180571428Y-97699819D02*
X180571428Y-96699819D01*
X180571428Y-96699819D02*
X180476190Y-96842676D01*
X180476190Y-96842676D02*
X180380952Y-96937914D01*
X180380952Y-96937914D02*
X180285714Y-96985533D01*
X181714285Y-96699819D02*
X181523809Y-96699819D01*
X181523809Y-96699819D02*
X181428571Y-96747438D01*
X181428571Y-96747438D02*
X181380952Y-96795057D01*
X181380952Y-96795057D02*
X181285714Y-96937914D01*
X181285714Y-96937914D02*
X181238095Y-97128390D01*
X181238095Y-97128390D02*
X181238095Y-97509342D01*
X181238095Y-97509342D02*
X181285714Y-97604580D01*
X181285714Y-97604580D02*
X181333333Y-97652200D01*
X181333333Y-97652200D02*
X181428571Y-97699819D01*
X181428571Y-97699819D02*
X181619047Y-97699819D01*
X181619047Y-97699819D02*
X181714285Y-97652200D01*
X181714285Y-97652200D02*
X181761904Y-97604580D01*
X181761904Y-97604580D02*
X181809523Y-97509342D01*
X181809523Y-97509342D02*
X181809523Y-97271247D01*
X181809523Y-97271247D02*
X181761904Y-97176009D01*
X181761904Y-97176009D02*
X181714285Y-97128390D01*
X181714285Y-97128390D02*
X181619047Y-97080771D01*
X181619047Y-97080771D02*
X181428571Y-97080771D01*
X181428571Y-97080771D02*
X181333333Y-97128390D01*
X181333333Y-97128390D02*
X181285714Y-97176009D01*
X181285714Y-97176009D02*
X181238095Y-97271247D01*
D11*
X202863095Y-70077419D02*
X202863095Y-70886942D01*
X202863095Y-70886942D02*
X202910714Y-70982180D01*
X202910714Y-70982180D02*
X202958333Y-71029800D01*
X202958333Y-71029800D02*
X203053571Y-71077419D01*
X203053571Y-71077419D02*
X203244047Y-71077419D01*
X203244047Y-71077419D02*
X203339285Y-71029800D01*
X203339285Y-71029800D02*
X203386904Y-70982180D01*
X203386904Y-70982180D02*
X203434523Y-70886942D01*
X203434523Y-70886942D02*
X203434523Y-70077419D01*
X204434523Y-71077419D02*
X203863095Y-71077419D01*
X204148809Y-71077419D02*
X204148809Y-70077419D01*
X204148809Y-70077419D02*
X204053571Y-70220276D01*
X204053571Y-70220276D02*
X203958333Y-70315514D01*
X203958333Y-70315514D02*
X203863095Y-70363133D01*
D10*
X107190476Y-136907200D02*
X107333333Y-136954819D01*
X107333333Y-136954819D02*
X107571428Y-136954819D01*
X107571428Y-136954819D02*
X107666666Y-136907200D01*
X107666666Y-136907200D02*
X107714285Y-136859580D01*
X107714285Y-136859580D02*
X107761904Y-136764342D01*
X107761904Y-136764342D02*
X107761904Y-136669104D01*
X107761904Y-136669104D02*
X107714285Y-136573866D01*
X107714285Y-136573866D02*
X107666666Y-136526247D01*
X107666666Y-136526247D02*
X107571428Y-136478628D01*
X107571428Y-136478628D02*
X107380952Y-136431009D01*
X107380952Y-136431009D02*
X107285714Y-136383390D01*
X107285714Y-136383390D02*
X107238095Y-136335771D01*
X107238095Y-136335771D02*
X107190476Y-136240533D01*
X107190476Y-136240533D02*
X107190476Y-136145295D01*
X107190476Y-136145295D02*
X107238095Y-136050057D01*
X107238095Y-136050057D02*
X107285714Y-136002438D01*
X107285714Y-136002438D02*
X107380952Y-135954819D01*
X107380952Y-135954819D02*
X107619047Y-135954819D01*
X107619047Y-135954819D02*
X107761904Y-136002438D01*
X108095238Y-135954819D02*
X108333333Y-136954819D01*
X108333333Y-136954819D02*
X108523809Y-136240533D01*
X108523809Y-136240533D02*
X108714285Y-136954819D01*
X108714285Y-136954819D02*
X108952381Y-135954819D01*
X109857142Y-136954819D02*
X109285714Y-136954819D01*
X109571428Y-136954819D02*
X109571428Y-135954819D01*
X109571428Y-135954819D02*
X109476190Y-136097676D01*
X109476190Y-136097676D02*
X109380952Y-136192914D01*
X109380952Y-136192914D02*
X109285714Y-136240533D01*
X110333333Y-136954819D02*
X110523809Y-136954819D01*
X110523809Y-136954819D02*
X110619047Y-136907200D01*
X110619047Y-136907200D02*
X110666666Y-136859580D01*
X110666666Y-136859580D02*
X110761904Y-136716723D01*
X110761904Y-136716723D02*
X110809523Y-136526247D01*
X110809523Y-136526247D02*
X110809523Y-136145295D01*
X110809523Y-136145295D02*
X110761904Y-136050057D01*
X110761904Y-136050057D02*
X110714285Y-136002438D01*
X110714285Y-136002438D02*
X110619047Y-135954819D01*
X110619047Y-135954819D02*
X110428571Y-135954819D01*
X110428571Y-135954819D02*
X110333333Y-136002438D01*
X110333333Y-136002438D02*
X110285714Y-136050057D01*
X110285714Y-136050057D02*
X110238095Y-136145295D01*
X110238095Y-136145295D02*
X110238095Y-136383390D01*
X110238095Y-136383390D02*
X110285714Y-136478628D01*
X110285714Y-136478628D02*
X110333333Y-136526247D01*
X110333333Y-136526247D02*
X110428571Y-136573866D01*
X110428571Y-136573866D02*
X110619047Y-136573866D01*
X110619047Y-136573866D02*
X110714285Y-136526247D01*
X110714285Y-136526247D02*
X110761904Y-136478628D01*
X110761904Y-136478628D02*
X110809523Y-136383390D01*
X158666667Y-61652200D02*
X158809524Y-61699819D01*
X158809524Y-61699819D02*
X159047619Y-61699819D01*
X159047619Y-61699819D02*
X159142857Y-61652200D01*
X159142857Y-61652200D02*
X159190476Y-61604580D01*
X159190476Y-61604580D02*
X159238095Y-61509342D01*
X159238095Y-61509342D02*
X159238095Y-61414104D01*
X159238095Y-61414104D02*
X159190476Y-61318866D01*
X159190476Y-61318866D02*
X159142857Y-61271247D01*
X159142857Y-61271247D02*
X159047619Y-61223628D01*
X159047619Y-61223628D02*
X158857143Y-61176009D01*
X158857143Y-61176009D02*
X158761905Y-61128390D01*
X158761905Y-61128390D02*
X158714286Y-61080771D01*
X158714286Y-61080771D02*
X158666667Y-60985533D01*
X158666667Y-60985533D02*
X158666667Y-60890295D01*
X158666667Y-60890295D02*
X158714286Y-60795057D01*
X158714286Y-60795057D02*
X158761905Y-60747438D01*
X158761905Y-60747438D02*
X158857143Y-60699819D01*
X158857143Y-60699819D02*
X159095238Y-60699819D01*
X159095238Y-60699819D02*
X159238095Y-60747438D01*
X159571429Y-60699819D02*
X159809524Y-61699819D01*
X159809524Y-61699819D02*
X160000000Y-60985533D01*
X160000000Y-60985533D02*
X160190476Y-61699819D01*
X160190476Y-61699819D02*
X160428572Y-60699819D01*
X160714286Y-60699819D02*
X161333333Y-60699819D01*
X161333333Y-60699819D02*
X161000000Y-61080771D01*
X161000000Y-61080771D02*
X161142857Y-61080771D01*
X161142857Y-61080771D02*
X161238095Y-61128390D01*
X161238095Y-61128390D02*
X161285714Y-61176009D01*
X161285714Y-61176009D02*
X161333333Y-61271247D01*
X161333333Y-61271247D02*
X161333333Y-61509342D01*
X161333333Y-61509342D02*
X161285714Y-61604580D01*
X161285714Y-61604580D02*
X161238095Y-61652200D01*
X161238095Y-61652200D02*
X161142857Y-61699819D01*
X161142857Y-61699819D02*
X160857143Y-61699819D01*
X160857143Y-61699819D02*
X160761905Y-61652200D01*
X160761905Y-61652200D02*
X160714286Y-61604580D01*
X122690476Y-156407200D02*
X122833333Y-156454819D01*
X122833333Y-156454819D02*
X123071428Y-156454819D01*
X123071428Y-156454819D02*
X123166666Y-156407200D01*
X123166666Y-156407200D02*
X123214285Y-156359580D01*
X123214285Y-156359580D02*
X123261904Y-156264342D01*
X123261904Y-156264342D02*
X123261904Y-156169104D01*
X123261904Y-156169104D02*
X123214285Y-156073866D01*
X123214285Y-156073866D02*
X123166666Y-156026247D01*
X123166666Y-156026247D02*
X123071428Y-155978628D01*
X123071428Y-155978628D02*
X122880952Y-155931009D01*
X122880952Y-155931009D02*
X122785714Y-155883390D01*
X122785714Y-155883390D02*
X122738095Y-155835771D01*
X122738095Y-155835771D02*
X122690476Y-155740533D01*
X122690476Y-155740533D02*
X122690476Y-155645295D01*
X122690476Y-155645295D02*
X122738095Y-155550057D01*
X122738095Y-155550057D02*
X122785714Y-155502438D01*
X122785714Y-155502438D02*
X122880952Y-155454819D01*
X122880952Y-155454819D02*
X123119047Y-155454819D01*
X123119047Y-155454819D02*
X123261904Y-155502438D01*
X123595238Y-155454819D02*
X123833333Y-156454819D01*
X123833333Y-156454819D02*
X124023809Y-155740533D01*
X124023809Y-155740533D02*
X124214285Y-156454819D01*
X124214285Y-156454819D02*
X124452381Y-155454819D01*
X124785714Y-155550057D02*
X124833333Y-155502438D01*
X124833333Y-155502438D02*
X124928571Y-155454819D01*
X124928571Y-155454819D02*
X125166666Y-155454819D01*
X125166666Y-155454819D02*
X125261904Y-155502438D01*
X125261904Y-155502438D02*
X125309523Y-155550057D01*
X125309523Y-155550057D02*
X125357142Y-155645295D01*
X125357142Y-155645295D02*
X125357142Y-155740533D01*
X125357142Y-155740533D02*
X125309523Y-155883390D01*
X125309523Y-155883390D02*
X124738095Y-156454819D01*
X124738095Y-156454819D02*
X125357142Y-156454819D01*
X125690476Y-155454819D02*
X126309523Y-155454819D01*
X126309523Y-155454819D02*
X125976190Y-155835771D01*
X125976190Y-155835771D02*
X126119047Y-155835771D01*
X126119047Y-155835771D02*
X126214285Y-155883390D01*
X126214285Y-155883390D02*
X126261904Y-155931009D01*
X126261904Y-155931009D02*
X126309523Y-156026247D01*
X126309523Y-156026247D02*
X126309523Y-156264342D01*
X126309523Y-156264342D02*
X126261904Y-156359580D01*
X126261904Y-156359580D02*
X126214285Y-156407200D01*
X126214285Y-156407200D02*
X126119047Y-156454819D01*
X126119047Y-156454819D02*
X125833333Y-156454819D01*
X125833333Y-156454819D02*
X125738095Y-156407200D01*
X125738095Y-156407200D02*
X125690476Y-156359580D01*
X148834819Y-86738094D02*
X147834819Y-86738094D01*
X147834819Y-86738094D02*
X147834819Y-86499999D01*
X147834819Y-86499999D02*
X147882438Y-86357142D01*
X147882438Y-86357142D02*
X147977676Y-86261904D01*
X147977676Y-86261904D02*
X148072914Y-86214285D01*
X148072914Y-86214285D02*
X148263390Y-86166666D01*
X148263390Y-86166666D02*
X148406247Y-86166666D01*
X148406247Y-86166666D02*
X148596723Y-86214285D01*
X148596723Y-86214285D02*
X148691961Y-86261904D01*
X148691961Y-86261904D02*
X148787200Y-86357142D01*
X148787200Y-86357142D02*
X148834819Y-86499999D01*
X148834819Y-86499999D02*
X148834819Y-86738094D01*
X148834819Y-85690475D02*
X148834819Y-85499999D01*
X148834819Y-85499999D02*
X148787200Y-85404761D01*
X148787200Y-85404761D02*
X148739580Y-85357142D01*
X148739580Y-85357142D02*
X148596723Y-85261904D01*
X148596723Y-85261904D02*
X148406247Y-85214285D01*
X148406247Y-85214285D02*
X148025295Y-85214285D01*
X148025295Y-85214285D02*
X147930057Y-85261904D01*
X147930057Y-85261904D02*
X147882438Y-85309523D01*
X147882438Y-85309523D02*
X147834819Y-85404761D01*
X147834819Y-85404761D02*
X147834819Y-85595237D01*
X147834819Y-85595237D02*
X147882438Y-85690475D01*
X147882438Y-85690475D02*
X147930057Y-85738094D01*
X147930057Y-85738094D02*
X148025295Y-85785713D01*
X148025295Y-85785713D02*
X148263390Y-85785713D01*
X148263390Y-85785713D02*
X148358628Y-85738094D01*
X148358628Y-85738094D02*
X148406247Y-85690475D01*
X148406247Y-85690475D02*
X148453866Y-85595237D01*
X148453866Y-85595237D02*
X148453866Y-85404761D01*
X148453866Y-85404761D02*
X148406247Y-85309523D01*
X148406247Y-85309523D02*
X148358628Y-85261904D01*
X148358628Y-85261904D02*
X148263390Y-85214285D01*
X149154819Y-90071904D02*
X148154819Y-90071904D01*
X149154819Y-89500476D02*
X148583390Y-89929047D01*
X148154819Y-89500476D02*
X148726247Y-90071904D01*
X190928095Y-83154819D02*
X190928095Y-82154819D01*
X191499523Y-83154819D02*
X191070952Y-82583390D01*
X191499523Y-82154819D02*
X190928095Y-82726247D01*
X138666667Y-92652200D02*
X138809524Y-92699819D01*
X138809524Y-92699819D02*
X139047619Y-92699819D01*
X139047619Y-92699819D02*
X139142857Y-92652200D01*
X139142857Y-92652200D02*
X139190476Y-92604580D01*
X139190476Y-92604580D02*
X139238095Y-92509342D01*
X139238095Y-92509342D02*
X139238095Y-92414104D01*
X139238095Y-92414104D02*
X139190476Y-92318866D01*
X139190476Y-92318866D02*
X139142857Y-92271247D01*
X139142857Y-92271247D02*
X139047619Y-92223628D01*
X139047619Y-92223628D02*
X138857143Y-92176009D01*
X138857143Y-92176009D02*
X138761905Y-92128390D01*
X138761905Y-92128390D02*
X138714286Y-92080771D01*
X138714286Y-92080771D02*
X138666667Y-91985533D01*
X138666667Y-91985533D02*
X138666667Y-91890295D01*
X138666667Y-91890295D02*
X138714286Y-91795057D01*
X138714286Y-91795057D02*
X138761905Y-91747438D01*
X138761905Y-91747438D02*
X138857143Y-91699819D01*
X138857143Y-91699819D02*
X139095238Y-91699819D01*
X139095238Y-91699819D02*
X139238095Y-91747438D01*
X139571429Y-91699819D02*
X139809524Y-92699819D01*
X139809524Y-92699819D02*
X140000000Y-91985533D01*
X140000000Y-91985533D02*
X140190476Y-92699819D01*
X140190476Y-92699819D02*
X140428572Y-91699819D01*
X140952381Y-92128390D02*
X140857143Y-92080771D01*
X140857143Y-92080771D02*
X140809524Y-92033152D01*
X140809524Y-92033152D02*
X140761905Y-91937914D01*
X140761905Y-91937914D02*
X140761905Y-91890295D01*
X140761905Y-91890295D02*
X140809524Y-91795057D01*
X140809524Y-91795057D02*
X140857143Y-91747438D01*
X140857143Y-91747438D02*
X140952381Y-91699819D01*
X140952381Y-91699819D02*
X141142857Y-91699819D01*
X141142857Y-91699819D02*
X141238095Y-91747438D01*
X141238095Y-91747438D02*
X141285714Y-91795057D01*
X141285714Y-91795057D02*
X141333333Y-91890295D01*
X141333333Y-91890295D02*
X141333333Y-91937914D01*
X141333333Y-91937914D02*
X141285714Y-92033152D01*
X141285714Y-92033152D02*
X141238095Y-92080771D01*
X141238095Y-92080771D02*
X141142857Y-92128390D01*
X141142857Y-92128390D02*
X140952381Y-92128390D01*
X140952381Y-92128390D02*
X140857143Y-92176009D01*
X140857143Y-92176009D02*
X140809524Y-92223628D01*
X140809524Y-92223628D02*
X140761905Y-92318866D01*
X140761905Y-92318866D02*
X140761905Y-92509342D01*
X140761905Y-92509342D02*
X140809524Y-92604580D01*
X140809524Y-92604580D02*
X140857143Y-92652200D01*
X140857143Y-92652200D02*
X140952381Y-92699819D01*
X140952381Y-92699819D02*
X141142857Y-92699819D01*
X141142857Y-92699819D02*
X141238095Y-92652200D01*
X141238095Y-92652200D02*
X141285714Y-92604580D01*
X141285714Y-92604580D02*
X141333333Y-92509342D01*
X141333333Y-92509342D02*
X141333333Y-92318866D01*
X141333333Y-92318866D02*
X141285714Y-92223628D01*
X141285714Y-92223628D02*
X141238095Y-92176009D01*
X141238095Y-92176009D02*
X141142857Y-92128390D01*
X148334819Y-70138094D02*
X147334819Y-70138094D01*
X147334819Y-70138094D02*
X147334819Y-69899999D01*
X147334819Y-69899999D02*
X147382438Y-69757142D01*
X147382438Y-69757142D02*
X147477676Y-69661904D01*
X147477676Y-69661904D02*
X147572914Y-69614285D01*
X147572914Y-69614285D02*
X147763390Y-69566666D01*
X147763390Y-69566666D02*
X147906247Y-69566666D01*
X147906247Y-69566666D02*
X148096723Y-69614285D01*
X148096723Y-69614285D02*
X148191961Y-69661904D01*
X148191961Y-69661904D02*
X148287200Y-69757142D01*
X148287200Y-69757142D02*
X148334819Y-69899999D01*
X148334819Y-69899999D02*
X148334819Y-70138094D01*
X147334819Y-69233332D02*
X147334819Y-68614285D01*
X147334819Y-68614285D02*
X147715771Y-68947618D01*
X147715771Y-68947618D02*
X147715771Y-68804761D01*
X147715771Y-68804761D02*
X147763390Y-68709523D01*
X147763390Y-68709523D02*
X147811009Y-68661904D01*
X147811009Y-68661904D02*
X147906247Y-68614285D01*
X147906247Y-68614285D02*
X148144342Y-68614285D01*
X148144342Y-68614285D02*
X148239580Y-68661904D01*
X148239580Y-68661904D02*
X148287200Y-68709523D01*
X148287200Y-68709523D02*
X148334819Y-68804761D01*
X148334819Y-68804761D02*
X148334819Y-69090475D01*
X148334819Y-69090475D02*
X148287200Y-69185713D01*
X148287200Y-69185713D02*
X148239580Y-69233332D01*
X148654819Y-73471904D02*
X147654819Y-73471904D01*
X148654819Y-72900476D02*
X148083390Y-73329047D01*
X147654819Y-72900476D02*
X148226247Y-73471904D01*
X175118095Y-115154819D02*
X175118095Y-114154819D01*
X175689523Y-115154819D02*
X175260952Y-114583390D01*
X175689523Y-114154819D02*
X175118095Y-114726247D01*
%TO.C,SW13*%
X117500000Y-109000000D02*
X118500000Y-109000000D01*
X117500000Y-110000000D02*
X117500000Y-109000000D01*
X117500000Y-123000000D02*
X117500000Y-122000000D01*
X118500000Y-123000000D02*
X117500000Y-123000000D01*
X130500000Y-109000000D02*
X131500000Y-109000000D01*
X131500000Y-109000000D02*
X131500000Y-110000000D01*
X131500000Y-122000000D02*
X131500000Y-123000000D01*
X131500000Y-123000000D02*
X130500000Y-123000000D01*
%TO.C,SW12*%
X204000000Y-103500000D02*
X205000000Y-103500000D01*
X204000000Y-104500000D02*
X204000000Y-103500000D01*
X204000000Y-117500000D02*
X204000000Y-116500000D01*
X205000000Y-117500000D02*
X204000000Y-117500000D01*
X217000000Y-103500000D02*
X218000000Y-103500000D01*
X218000000Y-103500000D02*
X218000000Y-104500000D01*
X218000000Y-116500000D02*
X218000000Y-117500000D01*
X218000000Y-117500000D02*
X217000000Y-117500000D01*
%TO.C,SW22*%
X133040000Y-144080000D02*
X134040000Y-144080000D01*
X133040000Y-145080000D02*
X133040000Y-144080000D01*
X133040000Y-158080000D02*
X133040000Y-157080000D01*
X134040000Y-158080000D02*
X133040000Y-158080000D01*
X146040000Y-144080000D02*
X147040000Y-144080000D01*
X147040000Y-144080000D02*
X147040000Y-145080000D01*
X147040000Y-157080000D02*
X147040000Y-158080000D01*
X147040000Y-158080000D02*
X146040000Y-158080000D01*
%TO.C,SW4*%
X173000000Y-67500000D02*
X174000000Y-67500000D01*
X173000000Y-68500000D02*
X173000000Y-67500000D01*
X173000000Y-81500000D02*
X173000000Y-80500000D01*
X174000000Y-81500000D02*
X173000000Y-81500000D01*
X186000000Y-67500000D02*
X187000000Y-67500000D01*
X187000000Y-67500000D02*
X187000000Y-68500000D01*
X187000000Y-80500000D02*
X187000000Y-81500000D01*
X187000000Y-81500000D02*
X186000000Y-81500000D01*
D12*
%TO.C,D13*%
X113080000Y-113090000D02*
X113080000Y-117330000D01*
X113080000Y-116490000D02*
X115320000Y-116490000D01*
X113080000Y-116610000D02*
X115320000Y-116610000D01*
X113080000Y-116730000D02*
X115320000Y-116730000D01*
X113080000Y-117330000D02*
X115320000Y-117330000D01*
X114200000Y-112440000D02*
X114200000Y-113090000D01*
X114200000Y-117980000D02*
X114200000Y-117330000D01*
X115320000Y-113090000D02*
X113080000Y-113090000D01*
X115320000Y-117330000D02*
X115320000Y-113090000D01*
%TO.C,D20*%
X106230000Y-140500000D02*
X106880000Y-140500000D01*
X106880000Y-139380000D02*
X106880000Y-141620000D01*
X106880000Y-141620000D02*
X111120000Y-141620000D01*
X107480000Y-139380000D02*
X107480000Y-141620000D01*
X107600000Y-139380000D02*
X107600000Y-141620000D01*
X107720000Y-139380000D02*
X107720000Y-141620000D01*
X111120000Y-139380000D02*
X106880000Y-139380000D01*
X111120000Y-141620000D02*
X111120000Y-139380000D01*
X111770000Y-140500000D02*
X111120000Y-140500000D01*
D10*
%TO.C,SW1*%
X117500000Y-78000000D02*
X118500000Y-78000000D01*
X117500000Y-79000000D02*
X117500000Y-78000000D01*
X117500000Y-92000000D02*
X117500000Y-91000000D01*
X118500000Y-92000000D02*
X117500000Y-92000000D01*
X130500000Y-78000000D02*
X131500000Y-78000000D01*
X131500000Y-78000000D02*
X131500000Y-79000000D01*
X131500000Y-91000000D02*
X131500000Y-92000000D01*
X131500000Y-92000000D02*
X130500000Y-92000000D01*
D12*
%TO.C,D14*%
X149380000Y-113080000D02*
X149380000Y-117320000D01*
X149380000Y-116480000D02*
X151620000Y-116480000D01*
X149380000Y-116600000D02*
X151620000Y-116600000D01*
X149380000Y-116720000D02*
X151620000Y-116720000D01*
X149380000Y-117320000D02*
X151620000Y-117320000D01*
X150500000Y-112430000D02*
X150500000Y-113080000D01*
X150500000Y-117970000D02*
X150500000Y-117320000D01*
X151620000Y-113080000D02*
X149380000Y-113080000D01*
X151620000Y-117320000D02*
X151620000Y-113080000D01*
%TO.C,D6*%
X208230000Y-84500000D02*
X208880000Y-84500000D01*
X208880000Y-83380000D02*
X208880000Y-85620000D01*
X208880000Y-85620000D02*
X213120000Y-85620000D01*
X209480000Y-83380000D02*
X209480000Y-85620000D01*
X209600000Y-83380000D02*
X209600000Y-85620000D01*
X209720000Y-83380000D02*
X209720000Y-85620000D01*
X213120000Y-83380000D02*
X208880000Y-83380000D01*
X213120000Y-85620000D02*
X213120000Y-83380000D01*
X213770000Y-84500000D02*
X213120000Y-84500000D01*
%TO.C,D21*%
X121730000Y-140500000D02*
X122380000Y-140500000D01*
X122380000Y-139380000D02*
X122380000Y-141620000D01*
X122380000Y-141620000D02*
X126620000Y-141620000D01*
X122980000Y-139380000D02*
X122980000Y-141620000D01*
X123100000Y-139380000D02*
X123100000Y-141620000D01*
X123220000Y-139380000D02*
X123220000Y-141620000D01*
X126620000Y-139380000D02*
X122380000Y-139380000D01*
X126620000Y-141620000D02*
X126620000Y-139380000D01*
X127270000Y-140500000D02*
X126620000Y-140500000D01*
%TO.C,D8*%
X149380000Y-97590000D02*
X149380000Y-101830000D01*
X149380000Y-100990000D02*
X151620000Y-100990000D01*
X149380000Y-101110000D02*
X151620000Y-101110000D01*
X149380000Y-101230000D02*
X151620000Y-101230000D01*
X149380000Y-101830000D02*
X151620000Y-101830000D01*
X150500000Y-96940000D02*
X150500000Y-97590000D01*
X150500000Y-102480000D02*
X150500000Y-101830000D01*
X151620000Y-97590000D02*
X149380000Y-97590000D01*
X151620000Y-101830000D02*
X151620000Y-97590000D01*
%TO.C,D10*%
X169380000Y-87490000D02*
X169380000Y-91730000D01*
X169380000Y-90890000D02*
X171620000Y-90890000D01*
X169380000Y-91010000D02*
X171620000Y-91010000D01*
X169380000Y-91130000D02*
X171620000Y-91130000D01*
X169380000Y-91730000D02*
X171620000Y-91730000D01*
X170500000Y-86840000D02*
X170500000Y-87490000D01*
X170500000Y-92380000D02*
X170500000Y-91730000D01*
X171620000Y-87490000D02*
X169380000Y-87490000D01*
X171620000Y-91730000D02*
X171620000Y-87490000D01*
D10*
%TO.C,SW24*%
X102040000Y-144080000D02*
X103040000Y-144080000D01*
X102040000Y-145080000D02*
X102040000Y-144080000D01*
X102040000Y-158080000D02*
X102040000Y-157080000D01*
X103040000Y-158080000D02*
X102040000Y-158080000D01*
X115040000Y-144080000D02*
X116040000Y-144080000D01*
X116040000Y-144080000D02*
X116040000Y-145080000D01*
X116040000Y-157080000D02*
X116040000Y-158080000D01*
X116040000Y-158080000D02*
X115040000Y-158080000D01*
D12*
%TO.C,D1*%
X113080000Y-82480000D02*
X113080000Y-86720000D01*
X113080000Y-85880000D02*
X115320000Y-85880000D01*
X113080000Y-86000000D02*
X115320000Y-86000000D01*
X113080000Y-86120000D02*
X115320000Y-86120000D01*
X113080000Y-86720000D02*
X115320000Y-86720000D01*
X114200000Y-81830000D02*
X114200000Y-82480000D01*
X114200000Y-87370000D02*
X114200000Y-86720000D01*
X115320000Y-82480000D02*
X113080000Y-82480000D01*
X115320000Y-86720000D02*
X115320000Y-82480000D01*
D10*
%TO.C,SW14*%
X133000000Y-109000000D02*
X134000000Y-109000000D01*
X133000000Y-110000000D02*
X133000000Y-109000000D01*
X133000000Y-123000000D02*
X133000000Y-122000000D01*
X134000000Y-123000000D02*
X133000000Y-123000000D01*
X146000000Y-109000000D02*
X147000000Y-109000000D01*
X147000000Y-109000000D02*
X147000000Y-110000000D01*
X147000000Y-122000000D02*
X147000000Y-123000000D01*
X147000000Y-123000000D02*
X146000000Y-123000000D01*
%TO.C,SW9*%
X153000000Y-78000000D02*
X154000000Y-78000000D01*
X153000000Y-79000000D02*
X153000000Y-78000000D01*
X153000000Y-92000000D02*
X153000000Y-91000000D01*
X154000000Y-92000000D02*
X153000000Y-92000000D01*
X166000000Y-78000000D02*
X167000000Y-78000000D01*
X167000000Y-78000000D02*
X167000000Y-79000000D01*
X167000000Y-91000000D02*
X167000000Y-92000000D01*
X167000000Y-92000000D02*
X166000000Y-92000000D01*
%TO.C,SW7*%
X117500000Y-93500000D02*
X118500000Y-93500000D01*
X117500000Y-94500000D02*
X117500000Y-93500000D01*
X117500000Y-107500000D02*
X117500000Y-106500000D01*
X118500000Y-107500000D02*
X117500000Y-107500000D01*
X130500000Y-93500000D02*
X131500000Y-93500000D01*
X131500000Y-93500000D02*
X131500000Y-94500000D01*
X131500000Y-106500000D02*
X131500000Y-107500000D01*
X131500000Y-107500000D02*
X130500000Y-107500000D01*
D12*
%TO.C,D15*%
X157730000Y-119000000D02*
X158380000Y-119000000D01*
X158380000Y-117880000D02*
X158380000Y-120120000D01*
X158380000Y-120120000D02*
X162620000Y-120120000D01*
X158980000Y-117880000D02*
X158980000Y-120120000D01*
X159100000Y-117880000D02*
X159100000Y-120120000D01*
X159220000Y-117880000D02*
X159220000Y-120120000D01*
X162620000Y-117880000D02*
X158380000Y-117880000D01*
X162620000Y-120120000D02*
X162620000Y-117880000D01*
X163270000Y-119000000D02*
X162620000Y-119000000D01*
%TO.C,D4*%
X169380000Y-72380000D02*
X169380000Y-76620000D01*
X169380000Y-75780000D02*
X171620000Y-75780000D01*
X169380000Y-75900000D02*
X171620000Y-75900000D01*
X169380000Y-76020000D02*
X171620000Y-76020000D01*
X169380000Y-76620000D02*
X171620000Y-76620000D01*
X170500000Y-71730000D02*
X170500000Y-72380000D01*
X170500000Y-77270000D02*
X170500000Y-76620000D01*
X171620000Y-72380000D02*
X169380000Y-72380000D01*
X171620000Y-76620000D02*
X171620000Y-72380000D01*
%TO.C,D24*%
X106230000Y-162000000D02*
X106880000Y-162000000D01*
X106880000Y-160880000D02*
X106880000Y-163120000D01*
X106880000Y-163120000D02*
X111120000Y-163120000D01*
X110280000Y-163120000D02*
X110280000Y-160880000D01*
X110400000Y-163120000D02*
X110400000Y-160880000D01*
X110520000Y-163120000D02*
X110520000Y-160880000D01*
X111120000Y-160880000D02*
X106880000Y-160880000D01*
X111120000Y-163120000D02*
X111120000Y-160880000D01*
X111770000Y-162000000D02*
X111120000Y-162000000D01*
D13*
%TO.C,G\u002A\u002A\u002A*%
G36*
X210694411Y-127796897D02*
G01*
X210741333Y-127797989D01*
X210906405Y-127802135D01*
X210906405Y-128139238D01*
X210906405Y-128476341D01*
X210737586Y-128480441D01*
X210657384Y-128481392D01*
X210601370Y-128479389D01*
X210564526Y-128473999D01*
X210541837Y-128464788D01*
X210539721Y-128463328D01*
X210529678Y-128454137D01*
X210522135Y-128440541D01*
X210516645Y-128418434D01*
X210512760Y-128383711D01*
X210510032Y-128332266D01*
X210508015Y-128259994D01*
X210506261Y-128162789D01*
X210506142Y-128155305D01*
X210501609Y-127868496D01*
X210538935Y-127831169D01*
X210556468Y-127815007D01*
X210574544Y-127804521D01*
X210599401Y-127798689D01*
X210637277Y-127796489D01*
X210694411Y-127796897D01*
G37*
G36*
X211757318Y-123733847D02*
G01*
X211761162Y-123770384D01*
X211763431Y-123823500D01*
X211763820Y-123859492D01*
X211763820Y-123998730D01*
X211575115Y-123998730D01*
X211499248Y-123999434D01*
X211430130Y-124001354D01*
X211375147Y-124004200D01*
X211341682Y-124007685D01*
X211340609Y-124007891D01*
X211309889Y-124012008D01*
X211297325Y-124002456D01*
X211294816Y-123971874D01*
X211294807Y-123966273D01*
X211299973Y-123927500D01*
X211320274Y-123904474D01*
X211335112Y-123896468D01*
X211376774Y-123877445D01*
X211432675Y-123852803D01*
X211497160Y-123824930D01*
X211564575Y-123796214D01*
X211629265Y-123769041D01*
X211685575Y-123745801D01*
X211727851Y-123728881D01*
X211750437Y-123720668D01*
X211752419Y-123720254D01*
X211757318Y-123733847D01*
G37*
G36*
X211759041Y-123264858D02*
G01*
X211761094Y-123301603D01*
X211761489Y-123355319D01*
X211760668Y-123399621D01*
X211756491Y-123548002D01*
X211551298Y-123626908D01*
X211477253Y-123655273D01*
X211411433Y-123680283D01*
X211359401Y-123699840D01*
X211326719Y-123711847D01*
X211319930Y-123714188D01*
X211308185Y-123715761D01*
X211300856Y-123708123D01*
X211297180Y-123686374D01*
X211296392Y-123645616D01*
X211297730Y-123580950D01*
X211297945Y-123573178D01*
X211302135Y-123423794D01*
X211360762Y-123401672D01*
X211398115Y-123387367D01*
X211454626Y-123365472D01*
X211522178Y-123339143D01*
X211582814Y-123315395D01*
X211647014Y-123290481D01*
X211700983Y-123270080D01*
X211739051Y-123256297D01*
X211755542Y-123251240D01*
X211759041Y-123264858D01*
G37*
G36*
X210649913Y-127259838D02*
G01*
X210649913Y-127604270D01*
X210410350Y-127604270D01*
X210320947Y-127604046D01*
X210256159Y-127603015D01*
X210211286Y-127600634D01*
X210181630Y-127596363D01*
X210162494Y-127589661D01*
X210149179Y-127579986D01*
X210142866Y-127573457D01*
X210132922Y-127559892D01*
X210125483Y-127541354D01*
X210120087Y-127513496D01*
X210116272Y-127471974D01*
X210113574Y-127412442D01*
X210111530Y-127330556D01*
X210110423Y-127268734D01*
X210108999Y-127172349D01*
X210108622Y-127100756D01*
X210109679Y-127049440D01*
X210112552Y-127013888D01*
X210117627Y-126989585D01*
X210125288Y-126972017D01*
X210135920Y-126956670D01*
X210137136Y-126955115D01*
X210168371Y-126915407D01*
X210409142Y-126915407D01*
X210649913Y-126915407D01*
X210649913Y-127259838D01*
G37*
G36*
X214925833Y-126007060D02*
G01*
X214981223Y-126012641D01*
X215019657Y-126026374D01*
X215044143Y-126051674D01*
X215057687Y-126091956D01*
X215063298Y-126150637D01*
X215063983Y-126231130D01*
X215062750Y-126336851D01*
X215062554Y-126359169D01*
X215061396Y-126464400D01*
X215059536Y-126544000D01*
X215056699Y-126601651D01*
X215052610Y-126641032D01*
X215046993Y-126665824D01*
X215039571Y-126679707D01*
X215038462Y-126680900D01*
X215024082Y-126689465D01*
X214997650Y-126695941D01*
X214955212Y-126700718D01*
X214892814Y-126704186D01*
X214806502Y-126706733D01*
X214768246Y-126707511D01*
X214519863Y-126712136D01*
X214482926Y-126675199D01*
X214445989Y-126638262D01*
X214445989Y-126351791D01*
X214445608Y-126242440D01*
X214446505Y-126158896D01*
X214451743Y-126097707D01*
X214464385Y-126055420D01*
X214487494Y-126028583D01*
X214524133Y-126013743D01*
X214577364Y-126007450D01*
X214650251Y-126006249D01*
X214745855Y-126006690D01*
X214752156Y-126006693D01*
X214850480Y-126006216D01*
X214925833Y-126007060D01*
G37*
G36*
X207503739Y-126007197D02*
G01*
X207573969Y-126008947D01*
X207623664Y-126012304D01*
X207657207Y-126017629D01*
X207678982Y-126025283D01*
X207686006Y-126029510D01*
X207696883Y-126038070D01*
X207705022Y-126049075D01*
X207710820Y-126066517D01*
X207714674Y-126094390D01*
X207716981Y-126136686D01*
X207718136Y-126197400D01*
X207718536Y-126280524D01*
X207718580Y-126357490D01*
X207718329Y-126461266D01*
X207717382Y-126539591D01*
X207715453Y-126596321D01*
X207712254Y-126635315D01*
X207707499Y-126660431D01*
X207700899Y-126675527D01*
X207694357Y-126682770D01*
X207675317Y-126691111D01*
X207638690Y-126697574D01*
X207581334Y-126702453D01*
X207500107Y-126706041D01*
X207424005Y-126708011D01*
X207177876Y-126713138D01*
X207140438Y-126675700D01*
X207103000Y-126638262D01*
X207103000Y-126361096D01*
X207103201Y-126263700D01*
X207104088Y-126191148D01*
X207106093Y-126138973D01*
X207109644Y-126102707D01*
X207115172Y-126077881D01*
X207123106Y-126060028D01*
X207133378Y-126045312D01*
X207163755Y-126006693D01*
X207408593Y-126006693D01*
X207503739Y-126007197D01*
G37*
G36*
X209899703Y-127796408D02*
G01*
X209965530Y-127797545D01*
X210062387Y-127799012D01*
X210136161Y-127801717D01*
X210189977Y-127809204D01*
X210226963Y-127825018D01*
X210250245Y-127852705D01*
X210262948Y-127895811D01*
X210268198Y-127957881D01*
X210269123Y-128042459D01*
X210268840Y-128141528D01*
X210269026Y-128250241D01*
X210267401Y-128333157D01*
X210260691Y-128393759D01*
X210245622Y-128435527D01*
X210218922Y-128461941D01*
X210177315Y-128476484D01*
X210117529Y-128482635D01*
X210036289Y-128483876D01*
X209947060Y-128483670D01*
X209855186Y-128483428D01*
X209788026Y-128482381D01*
X209740979Y-128480046D01*
X209709447Y-128475939D01*
X209688832Y-128469578D01*
X209674533Y-128460480D01*
X209667917Y-128454356D01*
X209657774Y-128442396D01*
X209650277Y-128426879D01*
X209645030Y-128403556D01*
X209641636Y-128368178D01*
X209639697Y-128316498D01*
X209638819Y-128244265D01*
X209638604Y-128147233D01*
X209638603Y-128140302D01*
X209638603Y-127855561D01*
X209678399Y-127824257D01*
X209694596Y-127812790D01*
X209712635Y-127804651D01*
X209737340Y-127799392D01*
X209773536Y-127796565D01*
X209826049Y-127795720D01*
X209899703Y-127796408D01*
G37*
G36*
X213586067Y-127796218D02*
G01*
X213666597Y-127800798D01*
X213724589Y-127809070D01*
X213763372Y-127821554D01*
X213786272Y-127838771D01*
X213789581Y-127843358D01*
X213793002Y-127862823D01*
X213796016Y-127906818D01*
X213798447Y-127970556D01*
X213800119Y-128049256D01*
X213800855Y-128138131D01*
X213800872Y-128149400D01*
X213800835Y-128248231D01*
X213800265Y-128321872D01*
X213798733Y-128374448D01*
X213795810Y-128410081D01*
X213791068Y-128432895D01*
X213784079Y-128447013D01*
X213774415Y-128456559D01*
X213768522Y-128460854D01*
X213750181Y-128469806D01*
X213721786Y-128476181D01*
X213678876Y-128480356D01*
X213616990Y-128482710D01*
X213531667Y-128483621D01*
X213499350Y-128483670D01*
X213409946Y-128483391D01*
X213344903Y-128482189D01*
X213299268Y-128479519D01*
X213268091Y-128474834D01*
X213246420Y-128467587D01*
X213229304Y-128457231D01*
X213224135Y-128453293D01*
X213185516Y-128422916D01*
X213185516Y-128139238D01*
X213185516Y-127855561D01*
X213224135Y-127825184D01*
X213241650Y-127813292D01*
X213262399Y-127804963D01*
X213291629Y-127799574D01*
X213334587Y-127796500D01*
X213396518Y-127795119D01*
X213479672Y-127794807D01*
X213586067Y-127796218D01*
G37*
G36*
X214623048Y-129580879D02*
G01*
X214632890Y-129595294D01*
X214640143Y-129613733D01*
X214645197Y-129640551D01*
X214648439Y-129680103D01*
X214650257Y-129736744D01*
X214651040Y-129814828D01*
X214651183Y-129896400D01*
X214650789Y-129998198D01*
X214649411Y-130074765D01*
X214646752Y-130130178D01*
X214642515Y-130168512D01*
X214636403Y-130193842D01*
X214628367Y-130209895D01*
X214605551Y-130242470D01*
X214050260Y-130242470D01*
X213494968Y-130242470D01*
X213472152Y-130209895D01*
X213464024Y-130193529D01*
X213458008Y-130168247D01*
X213453818Y-130130026D01*
X213451168Y-130074842D01*
X213449770Y-129998669D01*
X213449338Y-129897484D01*
X213449336Y-129889720D01*
X213449544Y-129790230D01*
X213450410Y-129715906D01*
X213452301Y-129662603D01*
X213455582Y-129626177D01*
X213460619Y-129602481D01*
X213467779Y-129587371D01*
X213476926Y-129577151D01*
X213486423Y-129570635D01*
X213501014Y-129565310D01*
X213523579Y-129561035D01*
X213556995Y-129557670D01*
X213604142Y-129555075D01*
X213667898Y-129553108D01*
X213751142Y-129551631D01*
X213856752Y-129550503D01*
X213987608Y-129549583D01*
X214049714Y-129549231D01*
X214594914Y-129546278D01*
X214623048Y-129580879D01*
G37*
G36*
X209885450Y-129539870D02*
G01*
X209993218Y-129541567D01*
X210111493Y-129543635D01*
X210227597Y-129545947D01*
X210334465Y-129548566D01*
X210428531Y-129551365D01*
X210506227Y-129554220D01*
X210563989Y-129557005D01*
X210598248Y-129559594D01*
X210606155Y-129561066D01*
X210610915Y-129578461D01*
X210614847Y-129622568D01*
X210617842Y-129690793D01*
X210619791Y-129780543D01*
X210620587Y-129889224D01*
X210620600Y-129906231D01*
X210620600Y-130242470D01*
X210109888Y-130242470D01*
X209973517Y-130242384D01*
X209863465Y-130242028D01*
X209776740Y-130241251D01*
X209710346Y-130239903D01*
X209661291Y-130237834D01*
X209626582Y-130234895D01*
X209603224Y-130230935D01*
X209588224Y-130225804D01*
X209578588Y-130219352D01*
X209574920Y-130215666D01*
X209566517Y-130202887D01*
X209560268Y-130183043D01*
X209555869Y-130152118D01*
X209553016Y-130106094D01*
X209551408Y-130040954D01*
X209550740Y-129952681D01*
X209550663Y-129894283D01*
X209550663Y-129599704D01*
X209590969Y-129567418D01*
X209602503Y-129558610D01*
X209614849Y-129551628D01*
X209631212Y-129546325D01*
X209654796Y-129542554D01*
X209688807Y-129540170D01*
X209736450Y-129539025D01*
X209800929Y-129538974D01*
X209885450Y-129539870D01*
G37*
G36*
X212633383Y-127797267D02*
G01*
X212691408Y-127799594D01*
X212775983Y-127803864D01*
X212836060Y-127808390D01*
X212876454Y-127813924D01*
X212901977Y-127821219D01*
X212917442Y-127831027D01*
X212921696Y-127835587D01*
X212929498Y-127849840D01*
X212935146Y-127873468D01*
X212938885Y-127910410D01*
X212940959Y-127964606D01*
X212941615Y-128039997D01*
X212941095Y-128140521D01*
X212941035Y-128147101D01*
X212940253Y-128254848D01*
X212938315Y-128336831D01*
X212932440Y-128396554D01*
X212919845Y-128437522D01*
X212897748Y-128463240D01*
X212863368Y-128477212D01*
X212813922Y-128482941D01*
X212746628Y-128483934D01*
X212673841Y-128483670D01*
X212577678Y-128482426D01*
X212509666Y-128478637D01*
X212468742Y-128472217D01*
X212455614Y-128466082D01*
X212449102Y-128449135D01*
X212444201Y-128411602D01*
X212440798Y-128351373D01*
X212438781Y-128266339D01*
X212438036Y-128154392D01*
X212438026Y-128138101D01*
X212438317Y-128032382D01*
X212439360Y-127952270D01*
X212441407Y-127894060D01*
X212444712Y-127854052D01*
X212449529Y-127828542D01*
X212456112Y-127813827D01*
X212460566Y-127809003D01*
X212477729Y-127801405D01*
X212509577Y-127797025D01*
X212560123Y-127795701D01*
X212633383Y-127797267D01*
G37*
G36*
X213309025Y-128674765D02*
G01*
X213366332Y-128680710D01*
X213405614Y-128695096D01*
X213430235Y-128721422D01*
X213443555Y-128763185D01*
X213448938Y-128823884D01*
X213449745Y-128907016D01*
X213449336Y-129009686D01*
X213449046Y-129108252D01*
X213447939Y-129181785D01*
X213445656Y-129234564D01*
X213441842Y-129270865D01*
X213436140Y-129294967D01*
X213428192Y-129311147D01*
X213423687Y-129317103D01*
X213412345Y-129328345D01*
X213396991Y-129336612D01*
X213373089Y-129342496D01*
X213336103Y-129346590D01*
X213281496Y-129349488D01*
X213204732Y-129351781D01*
X213148595Y-129353062D01*
X213063177Y-129354078D01*
X212986743Y-129353427D01*
X212924778Y-129351273D01*
X212882766Y-129347781D01*
X212868126Y-129344613D01*
X212846865Y-129331677D01*
X212830828Y-129311821D01*
X212819314Y-129281205D01*
X212811622Y-129235989D01*
X212807050Y-129172332D01*
X212804896Y-129086394D01*
X212804443Y-128995963D01*
X212804049Y-128890966D01*
X212805245Y-128811591D01*
X212811604Y-128754275D01*
X212826693Y-128715457D01*
X212854084Y-128691572D01*
X212897346Y-128679060D01*
X212960050Y-128674358D01*
X213045765Y-128673903D01*
X213126890Y-128674206D01*
X213230331Y-128673763D01*
X213309025Y-128674765D01*
G37*
G36*
X214980113Y-127798132D02*
G01*
X215162354Y-127799014D01*
X215317529Y-127799903D01*
X215447890Y-127800876D01*
X215555683Y-127802007D01*
X215643160Y-127803374D01*
X215712567Y-127805050D01*
X215766154Y-127807112D01*
X215806171Y-127809635D01*
X215834865Y-127812695D01*
X215854486Y-127816366D01*
X215867283Y-127820725D01*
X215875504Y-127825847D01*
X215878162Y-127828272D01*
X215887469Y-127840613D01*
X215894476Y-127859256D01*
X215899606Y-127888395D01*
X215903283Y-127932222D01*
X215905931Y-127994931D01*
X215907974Y-128080715D01*
X215908878Y-128132178D01*
X215913428Y-128409947D01*
X215876567Y-128446808D01*
X215839705Y-128483670D01*
X214969522Y-128483670D01*
X214099339Y-128483670D01*
X214067471Y-128449748D01*
X214056297Y-128436438D01*
X214048092Y-128420832D01*
X214042397Y-128398513D01*
X214038758Y-128365062D01*
X214036717Y-128316059D01*
X214035818Y-128247087D01*
X214035604Y-128153726D01*
X214035603Y-128141291D01*
X214035703Y-128045286D01*
X214036348Y-127974161D01*
X214038056Y-127923482D01*
X214041345Y-127888815D01*
X214046734Y-127865728D01*
X214054739Y-127849786D01*
X214065879Y-127836557D01*
X214071917Y-127830444D01*
X214108230Y-127794130D01*
X214980113Y-127798132D01*
G37*
G36*
X213564068Y-126006669D02*
G01*
X213581246Y-126006693D01*
X213679058Y-126006266D01*
X213753710Y-126007294D01*
X213808313Y-126013240D01*
X213845976Y-126027568D01*
X213869809Y-126053741D01*
X213882922Y-126095224D01*
X213888424Y-126155479D01*
X213889426Y-126237970D01*
X213889037Y-126346161D01*
X213889036Y-126349501D01*
X213889372Y-126460057D01*
X213888407Y-126544817D01*
X213883180Y-126607249D01*
X213870729Y-126650824D01*
X213848094Y-126679011D01*
X213812314Y-126695280D01*
X213760428Y-126703101D01*
X213689475Y-126705943D01*
X213596494Y-126707276D01*
X213583526Y-126707503D01*
X213492109Y-126708997D01*
X213425372Y-126709302D01*
X213378692Y-126707994D01*
X213347445Y-126704647D01*
X213327008Y-126698840D01*
X213312758Y-126690147D01*
X213303723Y-126681853D01*
X213293399Y-126669963D01*
X213285730Y-126655060D01*
X213280322Y-126632953D01*
X213276784Y-126599451D01*
X213274724Y-126550360D01*
X213273748Y-126481489D01*
X213273465Y-126388647D01*
X213273456Y-126358453D01*
X213273056Y-126247908D01*
X213273850Y-126163203D01*
X213278829Y-126100920D01*
X213290983Y-126057641D01*
X213313304Y-126029948D01*
X213348782Y-126014422D01*
X213400408Y-126007646D01*
X213471173Y-126006201D01*
X213564068Y-126006669D01*
G37*
G36*
X215767181Y-126007413D02*
G01*
X215821860Y-126013460D01*
X215859796Y-126027873D01*
X215884018Y-126054083D01*
X215897555Y-126095522D01*
X215903434Y-126155622D01*
X215904685Y-126237812D01*
X215904334Y-126345525D01*
X215904328Y-126356635D01*
X215904092Y-126457863D01*
X215903164Y-126533865D01*
X215901209Y-126588723D01*
X215897894Y-126626521D01*
X215892886Y-126651345D01*
X215885851Y-126667277D01*
X215878195Y-126676712D01*
X215864611Y-126686846D01*
X215844117Y-126694192D01*
X215812037Y-126699287D01*
X215763696Y-126702667D01*
X215694417Y-126704869D01*
X215621703Y-126706130D01*
X215540142Y-126706421D01*
X215467002Y-126705086D01*
X215408190Y-126702354D01*
X215369612Y-126698453D01*
X215359325Y-126695964D01*
X215338458Y-126684671D01*
X215322708Y-126668027D01*
X215311371Y-126642159D01*
X215303744Y-126603190D01*
X215299123Y-126547247D01*
X215296806Y-126470454D01*
X215296089Y-126368937D01*
X215296076Y-126347524D01*
X215295786Y-126238981D01*
X215296954Y-126156228D01*
X215302637Y-126095783D01*
X215315893Y-126054166D01*
X215339780Y-126027897D01*
X215377355Y-126013496D01*
X215431675Y-126007481D01*
X215505799Y-126006372D01*
X215595485Y-126006693D01*
X215692732Y-126006302D01*
X215767181Y-126007413D01*
G37*
G36*
X207886997Y-129540340D02*
G01*
X207943335Y-129541390D01*
X207984022Y-129543564D01*
X208012474Y-129547058D01*
X208032105Y-129552065D01*
X208046332Y-129558779D01*
X208058569Y-129567393D01*
X208060256Y-129568714D01*
X208099654Y-129599704D01*
X208099654Y-129896830D01*
X208099443Y-129998310D01*
X208098587Y-130074525D01*
X208096747Y-130129522D01*
X208093586Y-130167347D01*
X208088767Y-130192046D01*
X208081952Y-130207667D01*
X208072850Y-130218213D01*
X208062401Y-130225188D01*
X208046061Y-130230703D01*
X208020618Y-130234924D01*
X207982856Y-130238019D01*
X207929563Y-130240153D01*
X207857524Y-130241493D01*
X207763527Y-130242206D01*
X207644356Y-130242459D01*
X207604901Y-130242470D01*
X207163755Y-130242470D01*
X207133378Y-130203851D01*
X207122691Y-130188422D01*
X207114846Y-130170290D01*
X207109406Y-130144964D01*
X207105937Y-130107953D01*
X207104004Y-130054765D01*
X207103170Y-129980909D01*
X207103000Y-129890357D01*
X207103245Y-129792905D01*
X207104244Y-129720352D01*
X207106398Y-129668286D01*
X207110106Y-129632294D01*
X207115766Y-129607965D01*
X207123778Y-129590886D01*
X207131001Y-129580879D01*
X207159002Y-129546278D01*
X207589930Y-129542001D01*
X207713710Y-129540839D01*
X207811594Y-129540221D01*
X207886997Y-129540340D01*
G37*
G36*
X208887493Y-126916259D02*
G01*
X208942222Y-126922534D01*
X208979934Y-126937339D01*
X209003767Y-126964148D01*
X209016856Y-127006433D01*
X209022338Y-127067667D01*
X209023349Y-127151323D01*
X209023024Y-127257148D01*
X209022633Y-127359136D01*
X209021263Y-127435885D01*
X209018620Y-127491464D01*
X209014409Y-127529939D01*
X209008334Y-127555378D01*
X209000207Y-127571695D01*
X208991064Y-127583179D01*
X208979236Y-127591589D01*
X208960432Y-127597403D01*
X208930359Y-127601100D01*
X208884728Y-127603157D01*
X208819245Y-127604053D01*
X208729619Y-127604267D01*
X208707905Y-127604270D01*
X208612808Y-127604137D01*
X208542732Y-127603419D01*
X208493386Y-127601638D01*
X208460477Y-127598316D01*
X208439716Y-127592975D01*
X208426809Y-127585135D01*
X208417465Y-127574320D01*
X208415603Y-127571695D01*
X208407389Y-127555131D01*
X208401333Y-127529542D01*
X208397141Y-127490857D01*
X208394517Y-127435006D01*
X208393164Y-127357917D01*
X208392787Y-127257641D01*
X208392787Y-126976161D01*
X208431405Y-126945784D01*
X208447824Y-126934517D01*
X208467185Y-126926429D01*
X208494334Y-126920997D01*
X208534117Y-126917704D01*
X208591381Y-126916027D01*
X208670971Y-126915448D01*
X208714446Y-126915407D01*
X208812614Y-126915041D01*
X208887493Y-126916259D01*
G37*
G36*
X212907889Y-126007286D02*
G01*
X212961920Y-126013237D01*
X212999075Y-126027589D01*
X213022437Y-126053816D01*
X213035088Y-126095392D01*
X213040111Y-126155790D01*
X213040589Y-126238484D01*
X213039605Y-126346947D01*
X213039601Y-126347800D01*
X213038675Y-126438143D01*
X213037037Y-126519336D01*
X213034849Y-126586479D01*
X213032275Y-126634672D01*
X213029480Y-126659017D01*
X213029151Y-126660066D01*
X213016683Y-126678267D01*
X212992766Y-126691694D01*
X212953692Y-126700973D01*
X212895750Y-126706730D01*
X212815232Y-126709590D01*
X212731829Y-126710213D01*
X212645830Y-126709825D01*
X212584020Y-126708283D01*
X212541281Y-126705016D01*
X212512496Y-126699456D01*
X212492546Y-126691035D01*
X212479956Y-126682219D01*
X212468189Y-126671797D01*
X212459367Y-126659461D01*
X212452983Y-126641058D01*
X212448527Y-126612436D01*
X212445492Y-126569442D01*
X212443369Y-126507925D01*
X212441649Y-126423732D01*
X212440603Y-126360860D01*
X212438459Y-126249877D01*
X212437980Y-126164768D01*
X212442023Y-126102120D01*
X212453444Y-126058517D01*
X212475099Y-126030545D01*
X212509846Y-126014789D01*
X212560539Y-126007835D01*
X212630036Y-126006268D01*
X212721192Y-126006674D01*
X212736864Y-126006693D01*
X212833898Y-126006263D01*
X212907889Y-126007286D01*
G37*
G36*
X215876550Y-126952251D02*
G01*
X215913394Y-126989096D01*
X215908861Y-127275905D01*
X215907095Y-127375034D01*
X215905082Y-127448942D01*
X215902381Y-127501725D01*
X215898555Y-127537474D01*
X215893163Y-127560283D01*
X215885767Y-127574246D01*
X215875929Y-127583454D01*
X215875877Y-127583493D01*
X215853958Y-127588885D01*
X215806373Y-127593565D01*
X215736759Y-127597530D01*
X215648757Y-127600781D01*
X215546004Y-127603318D01*
X215432140Y-127605141D01*
X215310801Y-127606251D01*
X215185627Y-127606646D01*
X215060257Y-127606328D01*
X214938328Y-127605296D01*
X214823480Y-127603550D01*
X214719350Y-127601090D01*
X214629578Y-127597915D01*
X214557801Y-127594028D01*
X214507659Y-127589426D01*
X214482790Y-127584110D01*
X214481768Y-127583493D01*
X214471948Y-127574329D01*
X214464557Y-127560451D01*
X214459160Y-127537780D01*
X214455323Y-127502240D01*
X214452611Y-127449752D01*
X214450590Y-127376239D01*
X214448824Y-127277625D01*
X214448766Y-127273928D01*
X214447322Y-127174985D01*
X214446801Y-127101063D01*
X214447574Y-127047874D01*
X214450016Y-127011130D01*
X214454501Y-126986544D01*
X214461402Y-126969829D01*
X214471092Y-126956697D01*
X214476970Y-126950274D01*
X214509726Y-126915407D01*
X215174715Y-126915407D01*
X215839705Y-126915407D01*
X215876550Y-126952251D01*
G37*
G36*
X208871922Y-126007190D02*
G01*
X208926454Y-126012959D01*
X208964260Y-126026984D01*
X208988370Y-126052698D01*
X209001809Y-126093533D01*
X209007606Y-126152920D01*
X209008786Y-126234293D01*
X209008379Y-126341084D01*
X209008367Y-126355652D01*
X209007911Y-126461428D01*
X209006385Y-126541527D01*
X209003553Y-126599573D01*
X208999179Y-126639192D01*
X208993027Y-126664008D01*
X208987592Y-126674435D01*
X208977618Y-126684962D01*
X208962409Y-126692697D01*
X208937515Y-126698189D01*
X208898490Y-126701986D01*
X208840883Y-126704634D01*
X208760249Y-126706682D01*
X208719217Y-126707480D01*
X208627143Y-126708897D01*
X208559711Y-126708970D01*
X208512269Y-126707335D01*
X208480161Y-126703625D01*
X208458735Y-126697474D01*
X208443335Y-126688517D01*
X208439517Y-126685495D01*
X208428553Y-126674973D01*
X208420210Y-126661276D01*
X208413951Y-126640279D01*
X208409241Y-126607855D01*
X208405545Y-126559878D01*
X208402328Y-126492223D01*
X208399055Y-126400762D01*
X208397861Y-126364358D01*
X208393879Y-126252737D01*
X208392006Y-126167019D01*
X208395121Y-126103804D01*
X208406100Y-126059692D01*
X208427823Y-126031282D01*
X208463166Y-126015174D01*
X208515007Y-126007968D01*
X208586225Y-126006264D01*
X208679697Y-126006661D01*
X208700577Y-126006693D01*
X208797639Y-126006246D01*
X208871922Y-126007190D01*
G37*
G36*
X210355167Y-126006678D02*
G01*
X210368505Y-126006693D01*
X210470091Y-126007650D01*
X210544093Y-126010599D01*
X210592184Y-126015658D01*
X210616034Y-126022944D01*
X210617669Y-126024281D01*
X210624089Y-126040984D01*
X210628944Y-126078025D01*
X210632345Y-126137526D01*
X210634403Y-126221608D01*
X210635229Y-126332391D01*
X210635257Y-126360869D01*
X210635117Y-126465692D01*
X210634482Y-126544996D01*
X210633031Y-126602576D01*
X210630442Y-126642225D01*
X210626393Y-126667738D01*
X210620562Y-126682909D01*
X210612626Y-126691531D01*
X210606907Y-126695041D01*
X210582242Y-126700585D01*
X210534203Y-126705195D01*
X210468722Y-126708496D01*
X210391732Y-126710113D01*
X210366696Y-126710213D01*
X210281820Y-126709805D01*
X210221050Y-126708186D01*
X210179182Y-126704766D01*
X210151015Y-126698954D01*
X210131347Y-126690159D01*
X210120233Y-126682223D01*
X210108471Y-126671814D01*
X210099656Y-126659507D01*
X210093284Y-126641153D01*
X210088850Y-126612600D01*
X210085849Y-126569698D01*
X210083776Y-126508299D01*
X210082127Y-126424250D01*
X210081121Y-126360622D01*
X210079098Y-126249692D01*
X210078718Y-126164635D01*
X210082757Y-126102036D01*
X210093990Y-126058476D01*
X210115191Y-126030540D01*
X210149134Y-126014809D01*
X210198594Y-126007867D01*
X210266347Y-126006295D01*
X210355167Y-126006678D01*
G37*
G36*
X212956250Y-126915406D02*
G01*
X212958338Y-126915407D01*
X213058692Y-126914964D01*
X213135232Y-126915949D01*
X213191164Y-126921833D01*
X213229692Y-126936084D01*
X213254022Y-126962174D01*
X213267358Y-127003572D01*
X213272906Y-127063748D01*
X213273870Y-127146173D01*
X213273457Y-127254316D01*
X213273456Y-127256577D01*
X213273067Y-127358668D01*
X213271702Y-127435517D01*
X213269068Y-127491185D01*
X213264871Y-127529737D01*
X213258816Y-127555234D01*
X213250640Y-127571695D01*
X213241497Y-127583179D01*
X213229669Y-127591589D01*
X213210864Y-127597403D01*
X213180792Y-127601100D01*
X213135160Y-127603157D01*
X213069677Y-127604053D01*
X212980051Y-127604267D01*
X212958338Y-127604270D01*
X212863241Y-127604137D01*
X212793165Y-127603419D01*
X212743818Y-127601638D01*
X212710910Y-127598316D01*
X212690149Y-127592975D01*
X212677242Y-127585135D01*
X212667898Y-127574320D01*
X212666036Y-127571695D01*
X212657837Y-127555166D01*
X212651788Y-127529631D01*
X212647597Y-127491029D01*
X212644967Y-127435295D01*
X212643606Y-127358369D01*
X212643220Y-127256577D01*
X212642811Y-127147926D01*
X212643721Y-127065058D01*
X212649155Y-127004502D01*
X212662318Y-126962789D01*
X212686416Y-126936448D01*
X212724653Y-126922009D01*
X212780234Y-126916003D01*
X212856365Y-126914959D01*
X212956250Y-126915406D01*
G37*
G36*
X213819332Y-126915407D02*
G01*
X213820143Y-126915407D01*
X213913812Y-126915709D01*
X213982528Y-126916884D01*
X214030648Y-126919335D01*
X214062531Y-126923465D01*
X214082532Y-126929676D01*
X214095009Y-126938372D01*
X214097528Y-126941056D01*
X214105854Y-126956069D01*
X214112372Y-126982315D01*
X214117448Y-127023590D01*
X214121445Y-127083689D01*
X214124731Y-127166408D01*
X214126987Y-127247139D01*
X214129116Y-127353193D01*
X214129251Y-127433915D01*
X214126950Y-127493242D01*
X214121770Y-127535115D01*
X214113268Y-127563473D01*
X214101004Y-127582254D01*
X214088154Y-127593053D01*
X214068939Y-127596550D01*
X214025457Y-127599599D01*
X213962751Y-127601998D01*
X213885867Y-127603547D01*
X213812089Y-127604045D01*
X213718165Y-127603905D01*
X213649067Y-127602995D01*
X213600306Y-127600867D01*
X213567397Y-127597069D01*
X213545851Y-127591149D01*
X213531183Y-127582658D01*
X213522620Y-127574957D01*
X213512387Y-127562872D01*
X213504850Y-127547185D01*
X213499601Y-127523598D01*
X213496230Y-127487810D01*
X213494330Y-127435521D01*
X213493492Y-127362433D01*
X213493306Y-127266500D01*
X213493069Y-127156179D01*
X213494490Y-127071697D01*
X213500764Y-127009621D01*
X213515088Y-126966517D01*
X213540659Y-126938952D01*
X213580672Y-126923492D01*
X213638325Y-126916703D01*
X213716812Y-126915153D01*
X213819332Y-126915407D01*
G37*
G36*
X209081948Y-127794807D02*
G01*
X209182936Y-127795657D01*
X209258780Y-127798650D01*
X209313608Y-127804446D01*
X209351552Y-127813709D01*
X209376741Y-127827100D01*
X209392880Y-127844635D01*
X209396207Y-127863691D01*
X209399140Y-127907303D01*
X209401506Y-127970714D01*
X209403135Y-128049166D01*
X209403855Y-128137903D01*
X209403872Y-128149400D01*
X209403836Y-128248231D01*
X209403266Y-128321872D01*
X209401733Y-128374448D01*
X209398810Y-128410081D01*
X209394069Y-128432895D01*
X209387080Y-128447013D01*
X209377416Y-128456559D01*
X209371522Y-128460854D01*
X209353634Y-128469622D01*
X209325964Y-128475921D01*
X209284144Y-128480107D01*
X209223808Y-128482537D01*
X209140589Y-128483567D01*
X209092379Y-128483670D01*
X209001968Y-128483530D01*
X208936124Y-128482708D01*
X208890104Y-128480601D01*
X208859163Y-128476602D01*
X208838557Y-128470110D01*
X208823539Y-128460519D01*
X208809836Y-128447694D01*
X208797225Y-128434278D01*
X208787970Y-128419987D01*
X208781552Y-128400368D01*
X208777453Y-128370971D01*
X208775151Y-128327343D01*
X208774130Y-128265034D01*
X208773868Y-128179590D01*
X208773860Y-128139238D01*
X208773723Y-128030129D01*
X208775383Y-127946831D01*
X208781946Y-127885872D01*
X208796518Y-127843781D01*
X208822204Y-127817083D01*
X208862111Y-127802308D01*
X208919346Y-127795982D01*
X208997013Y-127794633D01*
X209081948Y-127794807D01*
G37*
G36*
X213060108Y-129540159D02*
G01*
X213108597Y-129543556D01*
X213143107Y-129549568D01*
X213167464Y-129558524D01*
X213185495Y-129570752D01*
X213191820Y-129576660D01*
X213200675Y-129600147D01*
X213207670Y-129647327D01*
X213212804Y-129712640D01*
X213216077Y-129790526D01*
X213217490Y-129875424D01*
X213217042Y-129961773D01*
X213214735Y-130044014D01*
X213210567Y-130116584D01*
X213204540Y-130173925D01*
X213196653Y-130210474D01*
X213191798Y-130219438D01*
X213180621Y-130226924D01*
X213161593Y-130232633D01*
X213131118Y-130236792D01*
X213085597Y-130239627D01*
X213021433Y-130241367D01*
X212935028Y-130242239D01*
X212827176Y-130242470D01*
X212716857Y-130242258D01*
X212632220Y-130241463D01*
X212569635Y-130239840D01*
X212525472Y-130237147D01*
X212496102Y-130233142D01*
X212477895Y-130227581D01*
X212467221Y-130220221D01*
X212465470Y-130218273D01*
X212457898Y-130201455D01*
X212451976Y-130169274D01*
X212447454Y-130118539D01*
X212444078Y-130046057D01*
X212441599Y-129948635D01*
X212440861Y-129905804D01*
X212438581Y-129795180D01*
X212437842Y-129710157D01*
X212441967Y-129647300D01*
X212454283Y-129603173D01*
X212478112Y-129574339D01*
X212516779Y-129557362D01*
X212573610Y-129548808D01*
X212651928Y-129545240D01*
X212755057Y-129543222D01*
X212792503Y-129542375D01*
X212905888Y-129539898D01*
X212993814Y-129539049D01*
X213060108Y-129540159D01*
G37*
G36*
X209473614Y-128674206D02*
G01*
X209571026Y-128674580D01*
X209643243Y-128675918D01*
X209694377Y-128678549D01*
X209728537Y-128682802D01*
X209749835Y-128689005D01*
X209762138Y-128697238D01*
X209771025Y-128705789D01*
X209777634Y-128713889D01*
X209782258Y-128725582D01*
X209785193Y-128744911D01*
X209786733Y-128775921D01*
X209787172Y-128822655D01*
X209786805Y-128889157D01*
X209785926Y-128979471D01*
X209785540Y-129018638D01*
X209783970Y-129120962D01*
X209781298Y-129197730D01*
X209777225Y-129252690D01*
X209771450Y-129289588D01*
X209763672Y-129312171D01*
X209761763Y-129315436D01*
X209753402Y-129326912D01*
X209742453Y-129335361D01*
X209724720Y-129341245D01*
X209696007Y-129345028D01*
X209652116Y-129347173D01*
X209588853Y-129348144D01*
X209502020Y-129348404D01*
X209463217Y-129348413D01*
X209366579Y-129348288D01*
X209295033Y-129347609D01*
X209244359Y-129345916D01*
X209210337Y-129342753D01*
X209188745Y-129337660D01*
X209175363Y-129330180D01*
X209165971Y-129319855D01*
X209163093Y-129315838D01*
X209154750Y-129298972D01*
X209148636Y-129272913D01*
X209144442Y-129233520D01*
X209141859Y-129176653D01*
X209140576Y-129098170D01*
X209140277Y-129010603D01*
X209139933Y-128902867D01*
X209141212Y-128820886D01*
X209147583Y-128761161D01*
X209162513Y-128720192D01*
X209189470Y-128694479D01*
X209231922Y-128680523D01*
X209293338Y-128674823D01*
X209377185Y-128673880D01*
X209473614Y-128674206D01*
G37*
G36*
X209571011Y-126915407D02*
G01*
X209667422Y-126915885D01*
X209738852Y-126917553D01*
X209789624Y-126920756D01*
X209824056Y-126925843D01*
X209846471Y-126933158D01*
X209855192Y-126938223D01*
X209866330Y-126947033D01*
X209874589Y-126958389D01*
X209880398Y-126976411D01*
X209884188Y-127005219D01*
X209886389Y-127048935D01*
X209887432Y-127111677D01*
X209887748Y-127197566D01*
X209887767Y-127250080D01*
X209887392Y-127353341D01*
X209886079Y-127431310D01*
X209883543Y-127488000D01*
X209879498Y-127527424D01*
X209873660Y-127553596D01*
X209865745Y-127570530D01*
X209864951Y-127571695D01*
X209855803Y-127583183D01*
X209843970Y-127591595D01*
X209825156Y-127597409D01*
X209795069Y-127601104D01*
X209749415Y-127603160D01*
X209683900Y-127604054D01*
X209594230Y-127604267D01*
X209572864Y-127604270D01*
X209474713Y-127603905D01*
X209401790Y-127602595D01*
X209350017Y-127600019D01*
X209315315Y-127595857D01*
X209293607Y-127589786D01*
X209280813Y-127581487D01*
X209280584Y-127581260D01*
X209265812Y-127562903D01*
X209255079Y-127538920D01*
X209247999Y-127505183D01*
X209244189Y-127457563D01*
X209243263Y-127391933D01*
X209244836Y-127304165D01*
X209247318Y-127224442D01*
X209250464Y-127122406D01*
X209254449Y-127045612D01*
X209263010Y-126990494D01*
X209279881Y-126953484D01*
X209308801Y-126931016D01*
X209353504Y-126919523D01*
X209417727Y-126915438D01*
X209505205Y-126915193D01*
X209571011Y-126915407D01*
G37*
G36*
X209643119Y-126007110D02*
G01*
X209712236Y-126008599D01*
X209760556Y-126011521D01*
X209792333Y-126016237D01*
X209811820Y-126023107D01*
X209820765Y-126029725D01*
X209828644Y-126041538D01*
X209834547Y-126061605D01*
X209838738Y-126093740D01*
X209841487Y-126141758D01*
X209843059Y-126209473D01*
X209843723Y-126300700D01*
X209843797Y-126358669D01*
X209843697Y-126460776D01*
X209843133Y-126537558D01*
X209841711Y-126593002D01*
X209839035Y-126631095D01*
X209834710Y-126655826D01*
X209828341Y-126671182D01*
X209819533Y-126681151D01*
X209811222Y-126687397D01*
X209792898Y-126696343D01*
X209764530Y-126702715D01*
X209721660Y-126706891D01*
X209659832Y-126709248D01*
X209574587Y-126710163D01*
X209541698Y-126710213D01*
X209451676Y-126709887D01*
X209386122Y-126708575D01*
X209340194Y-126705779D01*
X209309048Y-126700999D01*
X209287845Y-126693736D01*
X209271741Y-126683490D01*
X209270146Y-126682219D01*
X209258259Y-126671666D01*
X209249379Y-126659153D01*
X209242980Y-126640470D01*
X209238535Y-126611406D01*
X209235517Y-126567753D01*
X209233400Y-126505300D01*
X209231656Y-126419837D01*
X209230766Y-126367550D01*
X209225987Y-126080874D01*
X209263077Y-126043784D01*
X209277411Y-126030266D01*
X209292356Y-126020510D01*
X209312641Y-126013903D01*
X209342996Y-126009832D01*
X209388150Y-126007682D01*
X209452832Y-126006841D01*
X209541770Y-126006694D01*
X209548950Y-126006693D01*
X209643119Y-126007110D01*
G37*
G36*
X210423465Y-128674458D02*
G01*
X210492039Y-128675503D01*
X210540171Y-128677779D01*
X210572293Y-128681722D01*
X210592842Y-128687769D01*
X210606249Y-128696357D01*
X210611869Y-128701969D01*
X210620454Y-128714262D01*
X210626706Y-128732123D01*
X210630887Y-128759639D01*
X210633256Y-128800900D01*
X210634074Y-128859994D01*
X210633602Y-128941009D01*
X210632461Y-129024974D01*
X210630532Y-129128342D01*
X210628141Y-129206035D01*
X210624977Y-129261688D01*
X210620729Y-129298939D01*
X210615082Y-129321425D01*
X210607727Y-129332782D01*
X210605943Y-129334090D01*
X210584644Y-129338622D01*
X210539257Y-129342561D01*
X210475007Y-129345641D01*
X210397118Y-129347602D01*
X210326074Y-129348189D01*
X210232155Y-129348001D01*
X210163155Y-129346976D01*
X210114683Y-129344698D01*
X210082348Y-129340755D01*
X210061759Y-129334733D01*
X210048526Y-129326218D01*
X210043933Y-129321610D01*
X210035415Y-129308632D01*
X210029113Y-129288481D01*
X210024709Y-129257073D01*
X210021887Y-129210325D01*
X210020332Y-129144153D01*
X210019725Y-129054472D01*
X210019677Y-129008763D01*
X210019902Y-128909368D01*
X210020815Y-128835148D01*
X210022773Y-128781969D01*
X210026134Y-128745695D01*
X210031255Y-128722189D01*
X210038493Y-128707318D01*
X210046480Y-128698463D01*
X210060233Y-128689505D01*
X210081594Y-128683008D01*
X210114902Y-128678601D01*
X210164496Y-128675913D01*
X210234716Y-128674571D01*
X210329899Y-128674206D01*
X210330013Y-128674206D01*
X210423465Y-128674458D01*
G37*
G36*
X207742433Y-126915645D02*
G01*
X207846038Y-126916451D01*
X207926329Y-126917957D01*
X207986307Y-126920297D01*
X208028968Y-126923605D01*
X208057312Y-126928016D01*
X208074337Y-126933662D01*
X208078531Y-126936210D01*
X208088151Y-126945000D01*
X208095325Y-126958010D01*
X208100410Y-126979242D01*
X208103762Y-127012700D01*
X208105736Y-127062386D01*
X208106688Y-127132303D01*
X208106973Y-127226454D01*
X208106982Y-127256404D01*
X208106532Y-127364181D01*
X208105043Y-127446053D01*
X208102303Y-127505418D01*
X208098100Y-127545673D01*
X208092224Y-127570216D01*
X208086866Y-127580032D01*
X208078579Y-127586929D01*
X208064352Y-127592392D01*
X208041046Y-127596581D01*
X208005523Y-127599658D01*
X207954646Y-127601782D01*
X207885275Y-127603116D01*
X207794272Y-127603818D01*
X207678500Y-127604051D01*
X207617853Y-127604045D01*
X207505575Y-127603650D01*
X207402519Y-127602636D01*
X207312403Y-127601093D01*
X207238944Y-127599107D01*
X207185859Y-127596768D01*
X207156866Y-127594162D01*
X207152829Y-127593053D01*
X207135725Y-127577531D01*
X207122922Y-127554299D01*
X207113839Y-127519407D01*
X207107899Y-127468906D01*
X207104523Y-127398846D01*
X207103132Y-127305276D01*
X207103000Y-127252807D01*
X207103115Y-127158576D01*
X207103818Y-127089133D01*
X207105649Y-127039951D01*
X207109150Y-127006504D01*
X207114860Y-126984267D01*
X207123319Y-126968714D01*
X207135068Y-126955318D01*
X207138976Y-126951382D01*
X207174951Y-126915407D01*
X207612516Y-126915407D01*
X207742433Y-126915645D01*
G37*
G36*
X211662336Y-121943680D02*
G01*
X211756163Y-121990443D01*
X211809595Y-122031815D01*
X211887857Y-122119761D01*
X211939414Y-122216640D01*
X211964131Y-122319006D01*
X211961870Y-122423408D01*
X211932498Y-122526400D01*
X211875878Y-122624532D01*
X211834818Y-122673348D01*
X211763820Y-122748418D01*
X211763820Y-122908630D01*
X211763820Y-123068841D01*
X211628246Y-123118636D01*
X211555029Y-123145916D01*
X211478387Y-123175100D01*
X211411596Y-123201114D01*
X211393739Y-123208236D01*
X211294807Y-123248041D01*
X211294807Y-123008978D01*
X211294807Y-122769916D01*
X211209789Y-122684467D01*
X211139992Y-122600714D01*
X211096821Y-122513750D01*
X211077821Y-122416960D01*
X211078232Y-122329967D01*
X211078941Y-122326301D01*
X211328334Y-122326301D01*
X211331128Y-122396799D01*
X211356438Y-122455352D01*
X211399169Y-122499861D01*
X211454227Y-122528223D01*
X211516516Y-122538339D01*
X211580941Y-122528107D01*
X211642408Y-122495427D01*
X211672216Y-122468099D01*
X211710038Y-122408131D01*
X211721498Y-122343909D01*
X211707846Y-122281007D01*
X211670335Y-122225001D01*
X211610218Y-122181466D01*
X211607539Y-122180149D01*
X211538009Y-122160850D01*
X211469760Y-122166899D01*
X211408738Y-122195183D01*
X211360889Y-122242592D01*
X211332156Y-122306011D01*
X211328334Y-122326301D01*
X211078941Y-122326301D01*
X211099017Y-122222447D01*
X211142446Y-122128703D01*
X211204660Y-122050308D01*
X211281796Y-121988838D01*
X211369993Y-121945866D01*
X211465390Y-121922966D01*
X211564124Y-121921713D01*
X211662336Y-121943680D01*
G37*
G36*
X215504857Y-129539524D02*
G01*
X215617741Y-129541190D01*
X215710021Y-129543865D01*
X215779230Y-129547465D01*
X215822901Y-129551907D01*
X215834801Y-129554558D01*
X215860368Y-129566119D01*
X215879736Y-129583133D01*
X215893648Y-129609328D01*
X215902848Y-129648437D01*
X215908079Y-129704190D01*
X215910085Y-129780319D01*
X215909610Y-129880552D01*
X215908920Y-129926508D01*
X215907085Y-130023257D01*
X215904971Y-130094889D01*
X215902110Y-130145601D01*
X215898031Y-130179590D01*
X215892264Y-130201051D01*
X215884340Y-130214181D01*
X215875877Y-130221693D01*
X215862692Y-130227715D01*
X215839472Y-130232506D01*
X215803290Y-130236193D01*
X215751218Y-130238901D01*
X215680327Y-130240754D01*
X215587691Y-130241877D01*
X215470380Y-130242396D01*
X215389374Y-130242470D01*
X215261573Y-130242431D01*
X215159906Y-130242170D01*
X215081194Y-130241473D01*
X215022260Y-130240124D01*
X214979924Y-130237907D01*
X214951007Y-130234608D01*
X214932330Y-130230010D01*
X214920715Y-130223900D01*
X214912983Y-130216060D01*
X214908505Y-130209895D01*
X214900316Y-130193387D01*
X214894272Y-130167887D01*
X214890080Y-130129335D01*
X214887448Y-130073675D01*
X214886082Y-129996850D01*
X214885689Y-129894800D01*
X214885689Y-129894111D01*
X214885785Y-129796396D01*
X214886397Y-129723650D01*
X214888017Y-129671527D01*
X214891133Y-129635683D01*
X214896236Y-129611773D01*
X214903814Y-129595451D01*
X214914359Y-129582374D01*
X214921665Y-129574925D01*
X214957640Y-129538950D01*
X215373834Y-129538950D01*
X215504857Y-129539524D01*
G37*
G36*
X207656185Y-127803339D02*
G01*
X207810031Y-127803631D01*
X207832595Y-127803683D01*
X208500481Y-127805231D01*
X208528107Y-127839348D01*
X208537777Y-127853504D01*
X208544766Y-127871431D01*
X208549397Y-127897516D01*
X208551997Y-127936146D01*
X208552891Y-127991709D01*
X208552406Y-128068591D01*
X208551207Y-128150578D01*
X208549508Y-128247175D01*
X208547652Y-128318759D01*
X208545089Y-128369624D01*
X208541268Y-128404068D01*
X208535638Y-128426387D01*
X208527647Y-128440878D01*
X208516746Y-128451836D01*
X208512081Y-128455680D01*
X208502596Y-128462360D01*
X208490391Y-128467885D01*
X208472791Y-128472365D01*
X208447124Y-128475909D01*
X208410715Y-128478626D01*
X208360890Y-128480624D01*
X208294975Y-128482015D01*
X208210298Y-128482905D01*
X208104183Y-128483405D01*
X207973957Y-128483623D01*
X207826215Y-128483670D01*
X207174951Y-128483670D01*
X207138976Y-128447694D01*
X207126453Y-128434389D01*
X207117236Y-128420225D01*
X207110819Y-128400796D01*
X207106694Y-128371694D01*
X207104357Y-128328513D01*
X207103298Y-128266846D01*
X207103012Y-128182285D01*
X207103000Y-128134848D01*
X207103165Y-128037980D01*
X207103951Y-127966122D01*
X207105793Y-127914970D01*
X207109126Y-127880220D01*
X207114387Y-127857570D01*
X207122011Y-127842716D01*
X207132433Y-127831354D01*
X207133855Y-127830056D01*
X207142286Y-127823475D01*
X207153457Y-127818026D01*
X207169992Y-127813611D01*
X207194513Y-127810131D01*
X207229641Y-127807487D01*
X207278000Y-127805580D01*
X207342211Y-127804311D01*
X207424897Y-127803580D01*
X207528681Y-127803289D01*
X207656185Y-127803339D01*
G37*
G36*
X208759655Y-129543745D02*
G01*
X208866739Y-129546356D01*
X208989342Y-129549851D01*
X209085838Y-129553274D01*
X209159427Y-129556878D01*
X209213314Y-129560912D01*
X209250701Y-129565627D01*
X209274791Y-129571273D01*
X209288786Y-129578101D01*
X209290508Y-129579498D01*
X209299294Y-129589951D01*
X209305835Y-129606314D01*
X209310453Y-129632595D01*
X209313471Y-129672801D01*
X209315212Y-129730940D01*
X209315998Y-129811021D01*
X209316157Y-129898038D01*
X209315945Y-129999293D01*
X209315083Y-130075292D01*
X209313230Y-130130091D01*
X209310049Y-130167747D01*
X209305198Y-130192315D01*
X209298339Y-130207852D01*
X209289354Y-130218213D01*
X209278800Y-130225255D01*
X209262307Y-130230808D01*
X209236624Y-130235042D01*
X209198501Y-130238131D01*
X209144687Y-130240246D01*
X209071933Y-130241559D01*
X208976987Y-130242241D01*
X208856600Y-130242465D01*
X208830470Y-130242470D01*
X208696076Y-130242126D01*
X208588597Y-130241031D01*
X208505644Y-130239090D01*
X208444827Y-130236205D01*
X208403755Y-130232282D01*
X208380039Y-130227224D01*
X208373818Y-130224149D01*
X208365077Y-130214103D01*
X208358356Y-130196074D01*
X208353243Y-130166103D01*
X208349324Y-130120231D01*
X208346184Y-130054499D01*
X208343410Y-129964948D01*
X208342345Y-129922970D01*
X208340346Y-129800846D01*
X208341026Y-129707711D01*
X208344389Y-129643363D01*
X208350442Y-129607600D01*
X208351617Y-129604611D01*
X208363011Y-129585108D01*
X208379513Y-129569706D01*
X208404228Y-129558053D01*
X208440261Y-129549798D01*
X208490716Y-129544591D01*
X208558697Y-129542081D01*
X208647308Y-129541916D01*
X208759655Y-129543745D01*
G37*
G36*
X208185405Y-128674274D02*
G01*
X208340039Y-128674517D01*
X208469800Y-128674993D01*
X208576906Y-128675759D01*
X208663578Y-128676875D01*
X208732034Y-128678398D01*
X208784494Y-128680387D01*
X208823178Y-128682899D01*
X208850305Y-128685994D01*
X208868095Y-128689728D01*
X208878768Y-128694160D01*
X208882738Y-128697238D01*
X208891702Y-128720844D01*
X208898754Y-128768063D01*
X208903895Y-128833261D01*
X208907124Y-128910801D01*
X208908442Y-128995045D01*
X208907849Y-129080358D01*
X208905344Y-129161104D01*
X208900928Y-129231645D01*
X208894601Y-129286345D01*
X208886362Y-129319568D01*
X208882738Y-129325381D01*
X208875289Y-129330295D01*
X208862061Y-129334467D01*
X208840823Y-129337957D01*
X208809341Y-129340823D01*
X208765383Y-129343124D01*
X208706715Y-129344920D01*
X208631106Y-129346271D01*
X208536321Y-129347234D01*
X208420128Y-129347870D01*
X208280295Y-129348237D01*
X208114589Y-129348394D01*
X208013468Y-129348413D01*
X207830217Y-129348316D01*
X207674130Y-129347990D01*
X207543059Y-129347384D01*
X207434855Y-129346448D01*
X207347371Y-129345130D01*
X207278457Y-129343379D01*
X207225965Y-129341144D01*
X207187748Y-129338375D01*
X207161656Y-129335020D01*
X207145541Y-129331028D01*
X207138779Y-129327636D01*
X207128835Y-129318334D01*
X207121382Y-129304228D01*
X207115966Y-129281178D01*
X207112135Y-129245042D01*
X207109435Y-129191679D01*
X207107412Y-129116947D01*
X207105764Y-129025976D01*
X207104470Y-128925206D01*
X207104483Y-128849497D01*
X207106053Y-128794613D01*
X207109429Y-128756321D01*
X207114861Y-128730386D01*
X207122599Y-128712575D01*
X207124423Y-128709650D01*
X207147646Y-128674206D01*
X208003676Y-128674206D01*
X208185405Y-128674274D01*
G37*
G36*
X214998079Y-128674280D02*
G01*
X215176329Y-128674525D01*
X215329110Y-128674979D01*
X215458345Y-128675678D01*
X215565955Y-128676659D01*
X215653862Y-128677960D01*
X215723988Y-128679617D01*
X215778256Y-128681666D01*
X215818588Y-128684146D01*
X215846905Y-128687093D01*
X215865130Y-128690543D01*
X215875185Y-128694535D01*
X215875877Y-128695010D01*
X215885552Y-128703860D01*
X215892752Y-128716961D01*
X215897840Y-128738347D01*
X215901178Y-128772050D01*
X215903129Y-128822102D01*
X215904056Y-128892536D01*
X215904322Y-128987384D01*
X215904328Y-129011310D01*
X215904157Y-129111924D01*
X215903402Y-129187257D01*
X215901701Y-129241344D01*
X215898691Y-129278215D01*
X215894010Y-129301905D01*
X215887294Y-129316444D01*
X215878180Y-129325866D01*
X215875877Y-129327610D01*
X215866615Y-129331658D01*
X215849399Y-129335163D01*
X215822309Y-129338161D01*
X215783425Y-129340690D01*
X215730828Y-129342785D01*
X215662598Y-129344484D01*
X215576816Y-129345823D01*
X215471561Y-129346839D01*
X215344913Y-129347569D01*
X215194954Y-129348051D01*
X215019764Y-129348319D01*
X214817422Y-129348412D01*
X214789891Y-129348413D01*
X214588152Y-129348384D01*
X214413694Y-129348265D01*
X214264482Y-129348005D01*
X214138483Y-129347554D01*
X214033665Y-129346860D01*
X213947994Y-129345875D01*
X213879437Y-129344547D01*
X213825961Y-129342826D01*
X213785532Y-129340662D01*
X213756118Y-129338005D01*
X213735684Y-129334803D01*
X213722199Y-129331007D01*
X213713628Y-129326566D01*
X213708099Y-129321610D01*
X213699581Y-129308632D01*
X213693279Y-129288481D01*
X213688875Y-129257073D01*
X213686054Y-129210325D01*
X213684498Y-129144153D01*
X213683891Y-129054472D01*
X213683843Y-129008763D01*
X213684068Y-128909368D01*
X213684981Y-128835148D01*
X213686939Y-128781969D01*
X213690300Y-128745695D01*
X213695421Y-128722189D01*
X213702659Y-128707318D01*
X213710646Y-128698463D01*
X213717706Y-128693811D01*
X213729222Y-128689789D01*
X213747212Y-128686352D01*
X213773699Y-128683456D01*
X213810701Y-128681054D01*
X213860239Y-128679101D01*
X213924334Y-128677553D01*
X214005004Y-128676363D01*
X214104271Y-128675487D01*
X214224154Y-128674879D01*
X214366675Y-128674493D01*
X214533852Y-128674285D01*
X214727706Y-128674210D01*
X214792438Y-128674206D01*
X214998079Y-128674280D01*
G37*
G36*
X209982445Y-124021404D02*
G01*
X210007899Y-124045729D01*
X210042435Y-124082471D01*
X210050307Y-124091236D01*
X210069047Y-124112824D01*
X210085658Y-124131856D01*
X210102008Y-124148488D01*
X210119963Y-124162872D01*
X210141391Y-124175166D01*
X210168160Y-124185523D01*
X210202136Y-124194099D01*
X210245187Y-124201048D01*
X210299181Y-124206526D01*
X210365984Y-124210688D01*
X210447465Y-124213688D01*
X210545489Y-124215682D01*
X210661925Y-124216823D01*
X210798640Y-124217269D01*
X210957501Y-124217172D01*
X211140376Y-124216689D01*
X211349131Y-124215974D01*
X211545410Y-124215310D01*
X212811771Y-124211252D01*
X212882708Y-124176329D01*
X212942857Y-124136924D01*
X212993156Y-124086652D01*
X212997358Y-124081061D01*
X213024701Y-124046540D01*
X213046490Y-124024701D01*
X213053978Y-124020715D01*
X213067534Y-124032059D01*
X213093802Y-124062763D01*
X213129176Y-124107836D01*
X213170050Y-124162285D01*
X213212816Y-124221121D01*
X213253870Y-124279352D01*
X213289604Y-124331986D01*
X213316412Y-124374032D01*
X213330689Y-124400499D01*
X213332083Y-124405636D01*
X213322715Y-124437211D01*
X213296772Y-124485018D01*
X213257494Y-124543686D01*
X213215685Y-124598529D01*
X213184535Y-124633412D01*
X213142175Y-124675776D01*
X213093640Y-124721199D01*
X213043961Y-124765263D01*
X212998172Y-124803545D01*
X212961304Y-124831626D01*
X212938391Y-124845086D01*
X212934511Y-124845495D01*
X212922653Y-124832425D01*
X212898138Y-124799489D01*
X212864321Y-124751373D01*
X212824557Y-124692765D01*
X212816231Y-124680265D01*
X212709175Y-124519042D01*
X212428169Y-124515065D01*
X212147164Y-124511089D01*
X211843006Y-124819191D01*
X211765859Y-124897058D01*
X211695348Y-124967688D01*
X211634092Y-125028502D01*
X211584708Y-125076919D01*
X211549817Y-125110359D01*
X211532035Y-125126243D01*
X211530417Y-125127199D01*
X211518309Y-125117218D01*
X211488140Y-125089029D01*
X211442538Y-125045184D01*
X211384134Y-124988238D01*
X211315557Y-124920745D01*
X211239438Y-124845260D01*
X211213491Y-124819409D01*
X210904996Y-124511714D01*
X210616977Y-124511714D01*
X210328958Y-124511714D01*
X210293835Y-124559348D01*
X210269870Y-124593987D01*
X210236771Y-124644565D01*
X210200513Y-124701900D01*
X210188902Y-124720689D01*
X210156637Y-124771870D01*
X210129105Y-124813041D01*
X210110486Y-124838056D01*
X210106032Y-124842468D01*
X210087242Y-124838457D01*
X210052630Y-124817585D01*
X210007065Y-124783752D01*
X209955419Y-124740862D01*
X209902561Y-124692814D01*
X209853361Y-124643510D01*
X209841111Y-124630240D01*
X209796339Y-124576340D01*
X209754124Y-124518074D01*
X209723430Y-124467835D01*
X209722874Y-124466764D01*
X209683601Y-124390544D01*
X209824829Y-124205630D01*
X209873167Y-124142356D01*
X209915029Y-124087590D01*
X209947284Y-124045429D01*
X209966797Y-124019966D01*
X209971109Y-124014381D01*
X209982445Y-124021404D01*
G37*
G36*
X210617309Y-125533747D02*
G01*
X210613272Y-125764858D01*
X208817830Y-125772187D01*
X208530703Y-125773436D01*
X208271852Y-125774732D01*
X208040242Y-125776088D01*
X207834837Y-125777518D01*
X207654599Y-125779036D01*
X207498494Y-125780655D01*
X207365483Y-125782390D01*
X207254532Y-125784254D01*
X207164604Y-125786261D01*
X207094662Y-125788426D01*
X207043671Y-125790761D01*
X207010593Y-125793281D01*
X206994392Y-125795999D01*
X206993075Y-125796575D01*
X206941064Y-125838143D01*
X206893067Y-125895743D01*
X206861943Y-125951260D01*
X206858809Y-125961098D01*
X206855972Y-125975804D01*
X206853418Y-125996780D01*
X206851132Y-126025425D01*
X206849099Y-126063139D01*
X206847306Y-126111322D01*
X206845738Y-126171375D01*
X206844380Y-126244696D01*
X206843217Y-126332688D01*
X206842236Y-126436748D01*
X206841423Y-126558278D01*
X206840761Y-126698677D01*
X206840238Y-126859346D01*
X206839838Y-127041684D01*
X206839547Y-127247092D01*
X206839351Y-127476969D01*
X206839236Y-127732715D01*
X206839185Y-128015732D01*
X206839180Y-128155388D01*
X206839246Y-128471856D01*
X206839447Y-128759975D01*
X206839791Y-129020709D01*
X206840286Y-129255021D01*
X206840939Y-129463876D01*
X206841758Y-129648237D01*
X206842749Y-129809068D01*
X206843921Y-129947333D01*
X206845280Y-130063996D01*
X206846835Y-130160020D01*
X206848592Y-130236370D01*
X206850559Y-130294009D01*
X206852744Y-130333901D01*
X206855154Y-130357010D01*
X206856190Y-130361798D01*
X206884395Y-130421717D01*
X206929877Y-130483608D01*
X206983621Y-130536485D01*
X207020196Y-130561636D01*
X207028644Y-130565432D01*
X207040432Y-130568848D01*
X207057128Y-130571912D01*
X207080299Y-130574653D01*
X207111511Y-130577097D01*
X207152332Y-130579274D01*
X207204330Y-130581211D01*
X207269071Y-130582936D01*
X207348122Y-130584479D01*
X207443050Y-130585865D01*
X207555423Y-130587125D01*
X207686808Y-130588285D01*
X207838772Y-130589373D01*
X208012882Y-130590419D01*
X208210704Y-130591450D01*
X208433808Y-130592493D01*
X208683758Y-130593578D01*
X208839815Y-130594230D01*
X210613272Y-130601558D01*
X210617299Y-130839729D01*
X210621326Y-131077899D01*
X208755902Y-131076935D01*
X208477841Y-131076752D01*
X208227606Y-131076493D01*
X208003714Y-131076142D01*
X207804679Y-131075682D01*
X207629015Y-131075095D01*
X207475236Y-131074365D01*
X207341857Y-131073475D01*
X207227393Y-131072407D01*
X207130357Y-131071146D01*
X207049265Y-131069673D01*
X206982630Y-131067971D01*
X206928967Y-131066025D01*
X206886792Y-131063816D01*
X206854617Y-131061329D01*
X206830958Y-131058545D01*
X206814328Y-131055448D01*
X206811401Y-131054705D01*
X206685169Y-131006005D01*
X206573031Y-130931641D01*
X206475144Y-130831738D01*
X206408548Y-130735764D01*
X206395995Y-130715285D01*
X206384572Y-130696763D01*
X206374225Y-130678797D01*
X206364902Y-130659985D01*
X206356549Y-130638927D01*
X206349113Y-130614220D01*
X206342541Y-130584464D01*
X206336780Y-130548256D01*
X206331777Y-130504197D01*
X206327479Y-130450885D01*
X206323831Y-130386917D01*
X206320783Y-130310894D01*
X206318279Y-130221413D01*
X206316267Y-130117074D01*
X206314695Y-129996474D01*
X206313508Y-129858213D01*
X206312653Y-129700889D01*
X206312079Y-129523101D01*
X206311730Y-129323448D01*
X206311555Y-129100529D01*
X206311500Y-128852941D01*
X206311512Y-128579284D01*
X206311538Y-128278157D01*
X206311541Y-128177407D01*
X206311541Y-125905610D01*
X206348407Y-125788907D01*
X206404264Y-125656299D01*
X206482116Y-125542941D01*
X206582290Y-125448476D01*
X206705114Y-125372548D01*
X206751240Y-125351256D01*
X206846509Y-125310502D01*
X208733928Y-125306568D01*
X210621347Y-125302635D01*
X210617309Y-125533747D01*
G37*
G36*
X211177283Y-125031755D02*
G01*
X211521210Y-125375916D01*
X211867301Y-125031755D01*
X212213392Y-124687594D01*
X212303724Y-124687594D01*
X212394056Y-124687594D01*
X212394056Y-124810544D01*
X212394056Y-124933495D01*
X212346422Y-124942916D01*
X212303682Y-124955390D01*
X212268982Y-124977546D01*
X212233307Y-125016017D01*
X212215327Y-125039354D01*
X212202742Y-125055967D01*
X212191462Y-125071357D01*
X212181415Y-125087136D01*
X212172531Y-125104914D01*
X212164737Y-125126303D01*
X212157963Y-125152915D01*
X212152137Y-125186360D01*
X212147188Y-125228251D01*
X212143044Y-125280199D01*
X212139635Y-125343815D01*
X212136889Y-125420711D01*
X212134734Y-125512498D01*
X212133100Y-125620788D01*
X212131914Y-125747192D01*
X212131106Y-125893322D01*
X212130605Y-126060789D01*
X212130339Y-126251204D01*
X212130236Y-126466180D01*
X212130226Y-126707327D01*
X212130236Y-126962037D01*
X212130236Y-128674206D01*
X212325300Y-128674206D01*
X212413787Y-128675148D01*
X212477104Y-128678227D01*
X212519340Y-128683824D01*
X212544584Y-128692320D01*
X212548814Y-128695010D01*
X212558621Y-128704001D01*
X212565881Y-128717321D01*
X212570974Y-128739073D01*
X212574279Y-128773358D01*
X212576175Y-128824282D01*
X212577044Y-128895946D01*
X212577264Y-128992454D01*
X212577265Y-129002393D01*
X212577333Y-129112730D01*
X212575864Y-129197270D01*
X212570349Y-129259514D01*
X212558279Y-129302963D01*
X212537145Y-129331117D01*
X212504439Y-129347477D01*
X212457651Y-129355543D01*
X212394272Y-129358816D01*
X212320549Y-129360567D01*
X212130520Y-129365394D01*
X212126685Y-130804249D01*
X212122850Y-132243104D01*
X212036508Y-132477611D01*
X212013168Y-132542167D01*
X211981971Y-132630229D01*
X211944400Y-132737520D01*
X211901939Y-132859762D01*
X211856069Y-132992675D01*
X211808276Y-133131981D01*
X211760043Y-133273403D01*
X211734740Y-133347949D01*
X211519316Y-133983781D01*
X211451152Y-133787649D01*
X211432350Y-133733051D01*
X211405535Y-133654465D01*
X211371995Y-133555702D01*
X211333019Y-133440572D01*
X211289895Y-133312886D01*
X211243912Y-133176453D01*
X211196359Y-133035085D01*
X211156653Y-132916829D01*
X210930319Y-132242141D01*
X210919737Y-131051769D01*
X210917756Y-130808856D01*
X210916368Y-130592959D01*
X210915572Y-130404356D01*
X210915368Y-130243332D01*
X210915754Y-130110166D01*
X210916730Y-130005140D01*
X210918295Y-129928535D01*
X210920448Y-129880634D01*
X210923187Y-129861717D01*
X210923642Y-129861396D01*
X210937476Y-129873851D01*
X210952159Y-129904310D01*
X210953781Y-129909030D01*
X210963817Y-129936885D01*
X210982771Y-129987069D01*
X211008752Y-130054668D01*
X211039868Y-130134764D01*
X211074226Y-130222442D01*
X211082115Y-130242470D01*
X211124629Y-130351170D01*
X211171436Y-130472295D01*
X211218503Y-130595314D01*
X211261795Y-130709696D01*
X211289838Y-130784766D01*
X211325358Y-130879935D01*
X211362621Y-130978589D01*
X211398406Y-131072279D01*
X211429493Y-131152557D01*
X211446104Y-131194669D01*
X211507328Y-131348080D01*
X211518501Y-130989476D01*
X211519701Y-130935351D01*
X211520819Y-130853724D01*
X211521850Y-130746408D01*
X211522791Y-130615215D01*
X211523635Y-130461956D01*
X211524379Y-130288443D01*
X211525017Y-130096489D01*
X211525546Y-129887905D01*
X211525960Y-129664504D01*
X211526255Y-129428096D01*
X211526426Y-129180495D01*
X211526468Y-128923511D01*
X211526377Y-128658957D01*
X211526148Y-128388646D01*
X211525830Y-128148063D01*
X211521985Y-125665254D01*
X211164784Y-125316086D01*
X211079552Y-125233250D01*
X211000209Y-125157057D01*
X210929359Y-125089933D01*
X210869602Y-125034308D01*
X210823541Y-124992608D01*
X210793777Y-124967262D01*
X210783711Y-124960446D01*
X210753697Y-124953752D01*
X210711344Y-124945808D01*
X210704876Y-124944701D01*
X210649913Y-124935429D01*
X210649913Y-124811511D01*
X210649913Y-124687594D01*
X210741634Y-124687594D01*
X210833356Y-124687594D01*
X211177283Y-125031755D01*
G37*
G36*
X214536427Y-125303190D02*
G01*
X214778746Y-125303253D01*
X214994945Y-125303386D01*
X215186618Y-125303611D01*
X215355362Y-125303950D01*
X215502774Y-125304427D01*
X215630449Y-125305064D01*
X215739983Y-125305883D01*
X215832972Y-125306906D01*
X215911013Y-125308157D01*
X215975702Y-125309658D01*
X216028634Y-125311431D01*
X216071406Y-125313499D01*
X216105614Y-125315885D01*
X216132855Y-125318610D01*
X216154723Y-125321698D01*
X216172815Y-125325170D01*
X216188728Y-125329050D01*
X216193569Y-125330368D01*
X216327630Y-125381902D01*
X216444664Y-125456439D01*
X216542636Y-125551920D01*
X216619511Y-125666283D01*
X216673253Y-125797469D01*
X216680399Y-125823041D01*
X216683438Y-125837184D01*
X216686196Y-125856093D01*
X216688689Y-125881140D01*
X216690928Y-125913694D01*
X216692927Y-125955127D01*
X216694699Y-126006810D01*
X216696256Y-126070114D01*
X216697611Y-126146410D01*
X216698778Y-126237068D01*
X216699770Y-126343460D01*
X216700599Y-126466957D01*
X216701279Y-126608930D01*
X216701822Y-126770749D01*
X216702241Y-126953785D01*
X216702550Y-127159410D01*
X216702762Y-127388995D01*
X216702888Y-127643910D01*
X216702943Y-127925526D01*
X216702942Y-128204608D01*
X216702935Y-128512978D01*
X216702931Y-128793440D01*
X216702886Y-129047397D01*
X216702753Y-129276255D01*
X216702486Y-129481419D01*
X216702039Y-129664293D01*
X216701367Y-129826282D01*
X216700423Y-129968790D01*
X216699163Y-130093222D01*
X216697539Y-130200984D01*
X216695506Y-130293479D01*
X216693019Y-130372113D01*
X216690030Y-130438290D01*
X216686495Y-130493414D01*
X216682368Y-130538891D01*
X216677602Y-130576125D01*
X216672153Y-130606521D01*
X216665973Y-130631483D01*
X216659017Y-130652416D01*
X216651239Y-130670726D01*
X216642594Y-130687816D01*
X216633035Y-130705091D01*
X216622517Y-130723957D01*
X216620554Y-130727563D01*
X216569397Y-130804782D01*
X216502005Y-130882364D01*
X216427696Y-130950558D01*
X216366013Y-130993884D01*
X216345673Y-131005921D01*
X216326963Y-131016751D01*
X216308307Y-131026438D01*
X216288133Y-131035045D01*
X216264865Y-131042637D01*
X216236931Y-131049276D01*
X216202756Y-131055028D01*
X216160766Y-131059954D01*
X216109388Y-131064119D01*
X216047047Y-131067587D01*
X215972170Y-131070421D01*
X215883183Y-131072685D01*
X215778512Y-131074442D01*
X215656583Y-131075756D01*
X215515823Y-131076691D01*
X215354656Y-131077311D01*
X215171510Y-131077678D01*
X214964810Y-131077858D01*
X214732983Y-131077912D01*
X214474455Y-131077906D01*
X214288555Y-131077899D01*
X214010549Y-131077851D01*
X213760514Y-131077697D01*
X213537109Y-131077422D01*
X213338994Y-131077014D01*
X213164826Y-131076459D01*
X213013264Y-131075742D01*
X212882967Y-131074850D01*
X212772593Y-131073769D01*
X212680801Y-131072486D01*
X212606249Y-131070987D01*
X212547597Y-131069257D01*
X212503502Y-131067283D01*
X212472623Y-131065051D01*
X212453619Y-131062548D01*
X212445149Y-131059759D01*
X212444486Y-131058935D01*
X212442188Y-131038198D01*
X212440743Y-130993831D01*
X212440226Y-130931507D01*
X212440713Y-130856898D01*
X212441281Y-130820764D01*
X212445355Y-130601558D01*
X214204154Y-130594230D01*
X215962954Y-130586901D01*
X216014503Y-130554838D01*
X216087573Y-130498345D01*
X216137461Y-130432207D01*
X216152791Y-130400299D01*
X216155899Y-130390502D01*
X216158712Y-130375781D01*
X216161246Y-130354745D01*
X216163514Y-130326004D01*
X216165530Y-130288167D01*
X216167308Y-130239843D01*
X216168862Y-130179640D01*
X216170206Y-130106169D01*
X216171354Y-130018038D01*
X216172320Y-129913856D01*
X216173118Y-129792232D01*
X216173762Y-129651776D01*
X216174266Y-129491097D01*
X216174644Y-129308803D01*
X216174909Y-129103505D01*
X216175076Y-128873810D01*
X216175159Y-128618329D01*
X216175171Y-128335669D01*
X216175154Y-128172686D01*
X216175102Y-127877733D01*
X216175025Y-127610666D01*
X216174905Y-127370058D01*
X216174723Y-127154481D01*
X216174462Y-126962509D01*
X216174103Y-126792714D01*
X216173628Y-126643669D01*
X216173019Y-126513947D01*
X216172257Y-126402120D01*
X216171325Y-126306761D01*
X216170203Y-126226444D01*
X216168875Y-126159740D01*
X216167321Y-126105223D01*
X216165523Y-126061465D01*
X216163464Y-126027039D01*
X216161124Y-126000519D01*
X216158486Y-125980475D01*
X216155532Y-125965483D01*
X216152242Y-125954113D01*
X216148600Y-125944939D01*
X216146645Y-125940738D01*
X216116975Y-125885218D01*
X216087266Y-125847066D01*
X216048759Y-125815665D01*
X216036886Y-125807727D01*
X216029676Y-125803508D01*
X216020646Y-125799720D01*
X216008222Y-125796334D01*
X215990829Y-125793317D01*
X215966891Y-125790640D01*
X215934834Y-125788272D01*
X215893081Y-125786181D01*
X215840058Y-125784337D01*
X215774189Y-125782709D01*
X215693899Y-125781266D01*
X215597614Y-125779978D01*
X215483757Y-125778814D01*
X215350754Y-125777743D01*
X215197029Y-125776733D01*
X215021007Y-125775755D01*
X214821113Y-125774778D01*
X214595772Y-125773770D01*
X214343408Y-125772701D01*
X214219460Y-125772187D01*
X212445355Y-125764858D01*
X212441318Y-125534016D01*
X212437282Y-125303174D01*
X214266390Y-125303174D01*
X214536427Y-125303190D01*
G37*
D10*
%TO.C,SW10*%
X173000000Y-83000000D02*
X174000000Y-83000000D01*
X173000000Y-84000000D02*
X173000000Y-83000000D01*
X173000000Y-97000000D02*
X173000000Y-96000000D01*
X174000000Y-97000000D02*
X173000000Y-97000000D01*
X186000000Y-83000000D02*
X187000000Y-83000000D01*
X187000000Y-83000000D02*
X187000000Y-84000000D01*
X187000000Y-96000000D02*
X187000000Y-97000000D01*
X187000000Y-97000000D02*
X186000000Y-97000000D01*
%TO.C,SW6*%
X204000000Y-88000000D02*
X205000000Y-88000000D01*
X204000000Y-89000000D02*
X204000000Y-88000000D01*
X204000000Y-102000000D02*
X204000000Y-101000000D01*
X205000000Y-102000000D02*
X204000000Y-102000000D01*
X217000000Y-88000000D02*
X218000000Y-88000000D01*
X218000000Y-88000000D02*
X218000000Y-89000000D01*
X218000000Y-101000000D02*
X218000000Y-102000000D01*
X218000000Y-102000000D02*
X217000000Y-102000000D01*
D12*
%TO.C,D19*%
X104920000Y-122000000D02*
X105570000Y-122000000D01*
X105570000Y-120880000D02*
X105570000Y-123120000D01*
X105570000Y-123120000D02*
X109810000Y-123120000D01*
X106170000Y-120880000D02*
X106170000Y-123120000D01*
X106290000Y-120880000D02*
X106290000Y-123120000D01*
X106410000Y-120880000D02*
X106410000Y-123120000D01*
X109810000Y-120880000D02*
X105570000Y-120880000D01*
X109810000Y-123120000D02*
X109810000Y-120880000D01*
X110460000Y-122000000D02*
X109810000Y-122000000D01*
D10*
%TO.C,SW11*%
X188500000Y-103500000D02*
X189500000Y-103500000D01*
X188500000Y-104500000D02*
X188500000Y-103500000D01*
X188500000Y-117500000D02*
X188500000Y-116500000D01*
X189500000Y-117500000D02*
X188500000Y-117500000D01*
X201500000Y-103500000D02*
X202500000Y-103500000D01*
X202500000Y-103500000D02*
X202500000Y-104500000D01*
X202500000Y-116500000D02*
X202500000Y-117500000D01*
X202500000Y-117500000D02*
X201500000Y-117500000D01*
%TO.C,SW17*%
X188500000Y-119000000D02*
X189500000Y-119000000D01*
X188500000Y-120000000D02*
X188500000Y-119000000D01*
X188500000Y-133000000D02*
X188500000Y-132000000D01*
X189500000Y-133000000D02*
X188500000Y-133000000D01*
X201500000Y-119000000D02*
X202500000Y-119000000D01*
X202500000Y-119000000D02*
X202500000Y-120000000D01*
X202500000Y-132000000D02*
X202500000Y-133000000D01*
X202500000Y-133000000D02*
X201500000Y-133000000D01*
%TO.C,SW5*%
X188500000Y-88000000D02*
X189500000Y-88000000D01*
X188500000Y-89000000D02*
X188500000Y-88000000D01*
X188500000Y-102000000D02*
X188500000Y-101000000D01*
X189500000Y-102000000D02*
X188500000Y-102000000D01*
X201500000Y-88000000D02*
X202500000Y-88000000D01*
X202500000Y-88000000D02*
X202500000Y-89000000D01*
X202500000Y-101000000D02*
X202500000Y-102000000D01*
X202500000Y-102000000D02*
X201500000Y-102000000D01*
%TO.C,SW21*%
X133000000Y-124500000D02*
X134000000Y-124500000D01*
X133000000Y-125500000D02*
X133000000Y-124500000D01*
X133000000Y-138500000D02*
X133000000Y-137500000D01*
X134000000Y-138500000D02*
X133000000Y-138500000D01*
X146000000Y-124500000D02*
X147000000Y-124500000D01*
X147000000Y-124500000D02*
X147000000Y-125500000D01*
X147000000Y-137500000D02*
X147000000Y-138500000D01*
X147000000Y-138500000D02*
X146000000Y-138500000D01*
%TO.C,SW2*%
X133000000Y-78000000D02*
X134000000Y-78000000D01*
X133000000Y-79000000D02*
X133000000Y-78000000D01*
X133000000Y-92000000D02*
X133000000Y-91000000D01*
X134000000Y-92000000D02*
X133000000Y-92000000D01*
X146000000Y-78000000D02*
X147000000Y-78000000D01*
X147000000Y-78000000D02*
X147000000Y-79000000D01*
X147000000Y-91000000D02*
X147000000Y-92000000D01*
X147000000Y-92000000D02*
X146000000Y-92000000D01*
D12*
%TO.C,D7*%
X113180000Y-97390000D02*
X113180000Y-101630000D01*
X113180000Y-100790000D02*
X115420000Y-100790000D01*
X113180000Y-100910000D02*
X115420000Y-100910000D01*
X113180000Y-101030000D02*
X115420000Y-101030000D01*
X113180000Y-101630000D02*
X115420000Y-101630000D01*
X114300000Y-96740000D02*
X114300000Y-97390000D01*
X114300000Y-102280000D02*
X114300000Y-101630000D01*
X115420000Y-97390000D02*
X113180000Y-97390000D01*
X115420000Y-101630000D02*
X115420000Y-97390000D01*
%TO.C,D22*%
X137130000Y-161800000D02*
X137780000Y-161800000D01*
X137780000Y-160680000D02*
X137780000Y-162920000D01*
X137780000Y-162920000D02*
X142020000Y-162920000D01*
X138380000Y-160680000D02*
X138380000Y-162920000D01*
X138500000Y-160680000D02*
X138500000Y-162920000D01*
X138620000Y-160680000D02*
X138620000Y-162920000D01*
X142020000Y-160680000D02*
X137780000Y-160680000D01*
X142020000Y-162920000D02*
X142020000Y-160680000D01*
X142670000Y-161800000D02*
X142020000Y-161800000D01*
%TO.C,D12*%
X208330000Y-121900000D02*
X208980000Y-121900000D01*
X208980000Y-120780000D02*
X208980000Y-123020000D01*
X208980000Y-123020000D02*
X213220000Y-123020000D01*
X209580000Y-120780000D02*
X209580000Y-123020000D01*
X209700000Y-120780000D02*
X209700000Y-123020000D01*
X209820000Y-120780000D02*
X209820000Y-123020000D01*
X213220000Y-120780000D02*
X208980000Y-120780000D01*
X213220000Y-123020000D02*
X213220000Y-120780000D01*
X213870000Y-121900000D02*
X213220000Y-121900000D01*
D14*
%TO.C,J1*%
X100500000Y-105000000D02*
X100500000Y-117000000D01*
X111500000Y-105000000D02*
X100500000Y-105000000D01*
X111500000Y-105000000D02*
X111500000Y-117000000D01*
X111500000Y-117000000D02*
X100500000Y-117000000D01*
D15*
X112300000Y-111000000D02*
G75*
G02*
X112100000Y-111000000I-100000J0D01*
G01*
X112100000Y-111000000D02*
G75*
G02*
X112300000Y-111000000I100000J0D01*
G01*
D10*
%TO.C,SW15*%
X153000000Y-93500000D02*
X154000000Y-93500000D01*
X153000000Y-94500000D02*
X153000000Y-93500000D01*
X153000000Y-107500000D02*
X153000000Y-106500000D01*
X154000000Y-107500000D02*
X153000000Y-107500000D01*
X166000000Y-93500000D02*
X167000000Y-93500000D01*
X167000000Y-93500000D02*
X167000000Y-94500000D01*
X167000000Y-106500000D02*
X167000000Y-107500000D01*
X167000000Y-107500000D02*
X166000000Y-107500000D01*
D12*
%TO.C,D17*%
X176230000Y-120500000D02*
X176880000Y-120500000D01*
X176880000Y-119380000D02*
X176880000Y-121620000D01*
X176880000Y-121620000D02*
X181120000Y-121620000D01*
X177480000Y-119380000D02*
X177480000Y-121620000D01*
X177600000Y-119380000D02*
X177600000Y-121620000D01*
X177720000Y-119380000D02*
X177720000Y-121620000D01*
X181120000Y-119380000D02*
X176880000Y-119380000D01*
X181120000Y-121620000D02*
X181120000Y-119380000D01*
X181770000Y-120500000D02*
X181120000Y-120500000D01*
D10*
%TO.C,SW20*%
X117500000Y-124500000D02*
X118500000Y-124500000D01*
X117500000Y-125500000D02*
X117500000Y-124500000D01*
X117500000Y-138500000D02*
X117500000Y-137500000D01*
X118500000Y-138500000D02*
X117500000Y-138500000D01*
X130500000Y-124500000D02*
X131500000Y-124500000D01*
X131500000Y-124500000D02*
X131500000Y-125500000D01*
X131500000Y-137500000D02*
X131500000Y-138500000D01*
X131500000Y-138500000D02*
X130500000Y-138500000D01*
D12*
%TO.C,D23*%
X121630000Y-162000000D02*
X122280000Y-162000000D01*
X122280000Y-160880000D02*
X122280000Y-163120000D01*
X122280000Y-163120000D02*
X126520000Y-163120000D01*
X122880000Y-160880000D02*
X122880000Y-163120000D01*
X123000000Y-160880000D02*
X123000000Y-163120000D01*
X123120000Y-160880000D02*
X123120000Y-163120000D01*
X126520000Y-160880000D02*
X122280000Y-160880000D01*
X126520000Y-163120000D02*
X126520000Y-160880000D01*
X127170000Y-162000000D02*
X126520000Y-162000000D01*
%TO.C,D16*%
X169380000Y-104690000D02*
X169380000Y-108930000D01*
X169380000Y-108090000D02*
X171620000Y-108090000D01*
X169380000Y-108210000D02*
X171620000Y-108210000D01*
X169380000Y-108330000D02*
X171620000Y-108330000D01*
X169380000Y-108930000D02*
X171620000Y-108930000D01*
X170500000Y-104040000D02*
X170500000Y-104690000D01*
X170500000Y-109580000D02*
X170500000Y-108930000D01*
X171620000Y-104690000D02*
X169380000Y-104690000D01*
X171620000Y-108930000D02*
X171620000Y-104690000D01*
%TO.C,D2*%
X136920000Y-73600000D02*
X137570000Y-73600000D01*
X137570000Y-72480000D02*
X137570000Y-74720000D01*
X137570000Y-74720000D02*
X141810000Y-74720000D01*
X138170000Y-72480000D02*
X138170000Y-74720000D01*
X138290000Y-72480000D02*
X138290000Y-74720000D01*
X138410000Y-72480000D02*
X138410000Y-74720000D01*
X141810000Y-72480000D02*
X137570000Y-72480000D01*
X141810000Y-74720000D02*
X141810000Y-72480000D01*
X142460000Y-73600000D02*
X141810000Y-73600000D01*
D10*
%TO.C,SW16*%
X173000000Y-98500000D02*
X174000000Y-98500000D01*
X173000000Y-99500000D02*
X173000000Y-98500000D01*
X173000000Y-112500000D02*
X173000000Y-111500000D01*
X174000000Y-112500000D02*
X173000000Y-112500000D01*
X186000000Y-98500000D02*
X187000000Y-98500000D01*
X187000000Y-98500000D02*
X187000000Y-99500000D01*
X187000000Y-111500000D02*
X187000000Y-112500000D01*
X187000000Y-112500000D02*
X186000000Y-112500000D01*
D11*
%TO.C,U1*%
X194725000Y-80620000D02*
X194725000Y-61620000D01*
X195725000Y-60620000D02*
X211525000Y-60620000D01*
X211525000Y-81620000D02*
X195725000Y-81620000D01*
X212525000Y-61620000D02*
X212525000Y-80620000D01*
X194725000Y-61620000D02*
G75*
G02*
X195725000Y-60620000I999999J1D01*
G01*
X195725000Y-81620000D02*
G75*
G02*
X194725000Y-80620000I-1J999999D01*
G01*
X211525000Y-60620000D02*
G75*
G02*
X212525000Y-61620000I0J-1000000D01*
G01*
X212525000Y-80620000D02*
G75*
G02*
X211525000Y-81620000I-1000000J0D01*
G01*
D10*
%TO.C,SW19*%
X102000000Y-124500000D02*
X103000000Y-124500000D01*
X102000000Y-125500000D02*
X102000000Y-124500000D01*
X102000000Y-138500000D02*
X102000000Y-137500000D01*
X103000000Y-138500000D02*
X102000000Y-138500000D01*
X115000000Y-124500000D02*
X116000000Y-124500000D01*
X116000000Y-124500000D02*
X116000000Y-125500000D01*
X116000000Y-137500000D02*
X116000000Y-138500000D01*
X116000000Y-138500000D02*
X115000000Y-138500000D01*
%TO.C,SW3*%
X153000000Y-62500000D02*
X154000000Y-62500000D01*
X153000000Y-63500000D02*
X153000000Y-62500000D01*
X153000000Y-76500000D02*
X153000000Y-75500000D01*
X154000000Y-76500000D02*
X153000000Y-76500000D01*
X166000000Y-62500000D02*
X167000000Y-62500000D01*
X167000000Y-62500000D02*
X167000000Y-63500000D01*
X167000000Y-75500000D02*
X167000000Y-76500000D01*
X167000000Y-76500000D02*
X166000000Y-76500000D01*
%TO.C,SW23*%
X117540000Y-144080000D02*
X118540000Y-144080000D01*
X117540000Y-145080000D02*
X117540000Y-144080000D01*
X117540000Y-158080000D02*
X117540000Y-157080000D01*
X118540000Y-158080000D02*
X117540000Y-158080000D01*
X130540000Y-144080000D02*
X131540000Y-144080000D01*
X131540000Y-144080000D02*
X131540000Y-145080000D01*
X131540000Y-157080000D02*
X131540000Y-158080000D01*
X131540000Y-158080000D02*
X130540000Y-158080000D01*
D12*
%TO.C,D9*%
X149380000Y-83880000D02*
X149380000Y-88120000D01*
X149380000Y-87280000D02*
X151620000Y-87280000D01*
X149380000Y-87400000D02*
X151620000Y-87400000D01*
X149380000Y-87520000D02*
X151620000Y-87520000D01*
X149380000Y-88120000D02*
X151620000Y-88120000D01*
X150500000Y-83230000D02*
X150500000Y-83880000D01*
X150500000Y-88770000D02*
X150500000Y-88120000D01*
X151620000Y-83880000D02*
X149380000Y-83880000D01*
X151620000Y-88120000D02*
X151620000Y-83880000D01*
%TO.C,D5*%
X192230000Y-84500000D02*
X192880000Y-84500000D01*
X192880000Y-83380000D02*
X192880000Y-85620000D01*
X192880000Y-85620000D02*
X197120000Y-85620000D01*
X193480000Y-83380000D02*
X193480000Y-85620000D01*
X193600000Y-83380000D02*
X193600000Y-85620000D01*
X193720000Y-83380000D02*
X193720000Y-85620000D01*
X197120000Y-83380000D02*
X192880000Y-83380000D01*
X197120000Y-85620000D02*
X197120000Y-83380000D01*
X197770000Y-84500000D02*
X197120000Y-84500000D01*
D10*
%TO.C,SW8*%
X133000000Y-93500000D02*
X134000000Y-93500000D01*
X133000000Y-94500000D02*
X133000000Y-93500000D01*
X133000000Y-107500000D02*
X133000000Y-106500000D01*
X134000000Y-107500000D02*
X133000000Y-107500000D01*
X146000000Y-93500000D02*
X147000000Y-93500000D01*
X147000000Y-93500000D02*
X147000000Y-94500000D01*
X147000000Y-106500000D02*
X147000000Y-107500000D01*
X147000000Y-107500000D02*
X146000000Y-107500000D01*
D12*
%TO.C,D3*%
X148880000Y-67280000D02*
X148880000Y-71520000D01*
X148880000Y-70680000D02*
X151120000Y-70680000D01*
X148880000Y-70800000D02*
X151120000Y-70800000D01*
X148880000Y-70920000D02*
X151120000Y-70920000D01*
X148880000Y-71520000D02*
X151120000Y-71520000D01*
X150000000Y-66630000D02*
X150000000Y-67280000D01*
X150000000Y-72170000D02*
X150000000Y-71520000D01*
X151120000Y-67280000D02*
X148880000Y-67280000D01*
X151120000Y-71520000D02*
X151120000Y-67280000D01*
%TO.C,D11*%
X176420000Y-116500000D02*
X177070000Y-116500000D01*
X177070000Y-115380000D02*
X177070000Y-117620000D01*
X177070000Y-117620000D02*
X181310000Y-117620000D01*
X177670000Y-115380000D02*
X177670000Y-117620000D01*
X177790000Y-115380000D02*
X177790000Y-117620000D01*
X177910000Y-115380000D02*
X177910000Y-117620000D01*
X181310000Y-115380000D02*
X177070000Y-115380000D01*
X181310000Y-117620000D02*
X181310000Y-115380000D01*
X181960000Y-116500000D02*
X181310000Y-116500000D01*
%TD*%
M02*
