%TF.GenerationSoftware,KiCad,Pcbnew,8.0.1*%
%TF.CreationDate,2024-04-28T21:32:14+02:00*%
%TF.ProjectId,Sword-keyboard,53776f72-642d-46b6-9579-626f6172642e,rev?*%
%TF.SameCoordinates,Original*%
%TF.FileFunction,Copper,L2,Bot*%
%TF.FilePolarity,Positive*%
%FSLAX46Y46*%
G04 Gerber Fmt 4.6, Leading zero omitted, Abs format (unit mm)*
G04 Created by KiCad (PCBNEW 8.0.1) date 2024-04-28 21:32:14*
%MOMM*%
%LPD*%
G01*
G04 APERTURE LIST*
%TA.AperFunction,ComponentPad*%
%ADD10C,2.286000*%
%TD*%
%TA.AperFunction,ComponentPad*%
%ADD11R,1.600000X1.600000*%
%TD*%
%TA.AperFunction,ComponentPad*%
%ADD12O,1.600000X1.600000*%
%TD*%
%TA.AperFunction,ComponentPad*%
%ADD13O,1.308000X2.616000*%
%TD*%
%TA.AperFunction,ComponentPad*%
%ADD14O,2.616000X1.308000*%
%TD*%
%TA.AperFunction,ComponentPad*%
%ADD15C,1.824000*%
%TD*%
%TA.AperFunction,ViaPad*%
%ADD16C,0.600000*%
%TD*%
%TA.AperFunction,Conductor*%
%ADD17C,0.200000*%
%TD*%
G04 APERTURE END LIST*
D10*
%TO.P,SW13,1,1*%
%TO.N,Net-(D13-A)*%
X120690000Y-113460000D03*
X121960000Y-110920000D03*
%TO.P,SW13,2,2*%
%TO.N,col0*%
X127040000Y-110920000D03*
X128310000Y-113460000D03*
%TD*%
%TO.P,SW12,1,1*%
%TO.N,Net-(D12-A)*%
X207190000Y-107960000D03*
X208460000Y-105420000D03*
%TO.P,SW12,2,2*%
%TO.N,col5*%
X213540000Y-105420000D03*
X214810000Y-107960000D03*
%TD*%
%TO.P,SW22,1,1*%
%TO.N,Net-(D22-A)*%
X136230000Y-148540000D03*
X137500000Y-146000000D03*
%TO.P,SW22,2,2*%
%TO.N,col3*%
X142580000Y-146000000D03*
X143850000Y-148540000D03*
%TD*%
%TO.P,SW4,1,1*%
%TO.N,Net-(D4-A)*%
X176190000Y-71960000D03*
X177460000Y-69420000D03*
%TO.P,SW4,2,2*%
%TO.N,col3*%
X182540000Y-69420000D03*
X183810000Y-71960000D03*
%TD*%
D11*
%TO.P,D13,1,K*%
%TO.N,row2*%
X114200000Y-119020000D03*
D12*
%TO.P,D13,2,A*%
%TO.N,Net-(D13-A)*%
X114200000Y-111400000D03*
%TD*%
D11*
%TO.P,D20,1,K*%
%TO.N,row3*%
X105190000Y-140500000D03*
D12*
%TO.P,D20,2,A*%
%TO.N,Net-(D20-A)*%
X112810000Y-140500000D03*
%TD*%
D10*
%TO.P,SW1,1,1*%
%TO.N,Net-(D1-A)*%
X120690000Y-82460000D03*
X121960000Y-79920000D03*
%TO.P,SW1,2,2*%
%TO.N,col0*%
X127040000Y-79920000D03*
X128310000Y-82460000D03*
%TD*%
D11*
%TO.P,D14,1,K*%
%TO.N,row2*%
X150500000Y-119010000D03*
D12*
%TO.P,D14,2,A*%
%TO.N,Net-(D14-A)*%
X150500000Y-111390000D03*
%TD*%
D11*
%TO.P,D6,1,K*%
%TO.N,row0*%
X207190000Y-84500000D03*
D12*
%TO.P,D6,2,A*%
%TO.N,Net-(D6-A)*%
X214810000Y-84500000D03*
%TD*%
D11*
%TO.P,D21,1,K*%
%TO.N,row3*%
X120690000Y-140500000D03*
D12*
%TO.P,D21,2,A*%
%TO.N,Net-(D21-A)*%
X128310000Y-140500000D03*
%TD*%
D11*
%TO.P,D8,1,K*%
%TO.N,row1*%
X150500000Y-103520000D03*
D12*
%TO.P,D8,2,A*%
%TO.N,Net-(D8-A)*%
X150500000Y-95900000D03*
%TD*%
D11*
%TO.P,D10,1,K*%
%TO.N,row1*%
X170500000Y-93420000D03*
D12*
%TO.P,D10,2,A*%
%TO.N,Net-(D10-A)*%
X170500000Y-85800000D03*
%TD*%
D10*
%TO.P,SW24,1,1*%
%TO.N,Net-(D24-A)*%
X105230000Y-148540000D03*
X106500000Y-146000000D03*
%TO.P,SW24,2,2*%
%TO.N,col5*%
X111580000Y-146000000D03*
X112850000Y-148540000D03*
%TD*%
D11*
%TO.P,D1,1,K*%
%TO.N,row0*%
X114200000Y-88410000D03*
D12*
%TO.P,D1,2,A*%
%TO.N,Net-(D1-A)*%
X114200000Y-80790000D03*
%TD*%
D10*
%TO.P,SW14,1,1*%
%TO.N,Net-(D14-A)*%
X136190000Y-113460000D03*
X137460000Y-110920000D03*
%TO.P,SW14,2,2*%
%TO.N,col1*%
X142540000Y-110920000D03*
X143810000Y-113460000D03*
%TD*%
%TO.P,SW9,1,1*%
%TO.N,Net-(D9-A)*%
X156190000Y-82460000D03*
X157460000Y-79920000D03*
%TO.P,SW9,2,2*%
%TO.N,col2*%
X162540000Y-79920000D03*
X163810000Y-82460000D03*
%TD*%
%TO.P,SW7,1,1*%
%TO.N,Net-(D7-A)*%
X120690000Y-97960000D03*
X121960000Y-95420000D03*
%TO.P,SW7,2,2*%
%TO.N,col0*%
X127040000Y-95420000D03*
X128310000Y-97960000D03*
%TD*%
D11*
%TO.P,D15,1,K*%
%TO.N,row2*%
X156690000Y-119000000D03*
D12*
%TO.P,D15,2,A*%
%TO.N,Net-(D15-A)*%
X164310000Y-119000000D03*
%TD*%
D11*
%TO.P,D4,1,K*%
%TO.N,row0*%
X170500000Y-78310000D03*
D12*
%TO.P,D4,2,A*%
%TO.N,Net-(D4-A)*%
X170500000Y-70690000D03*
%TD*%
D11*
%TO.P,D24,1,K*%
%TO.N,row3*%
X112810000Y-162000000D03*
D12*
%TO.P,D24,2,A*%
%TO.N,Net-(D24-A)*%
X105190000Y-162000000D03*
%TD*%
D10*
%TO.P,SW10,1,1*%
%TO.N,Net-(D10-A)*%
X176190000Y-87460000D03*
X177460000Y-84920000D03*
%TO.P,SW10,2,2*%
%TO.N,col3*%
X182540000Y-84920000D03*
X183810000Y-87460000D03*
%TD*%
%TO.P,SW6,1,1*%
%TO.N,Net-(D6-A)*%
X207190000Y-92460000D03*
X208460000Y-89920000D03*
%TO.P,SW6,2,2*%
%TO.N,col5*%
X213540000Y-89920000D03*
X214810000Y-92460000D03*
%TD*%
D11*
%TO.P,D19,1,K*%
%TO.N,row3*%
X103880000Y-122000000D03*
D12*
%TO.P,D19,2,A*%
%TO.N,Net-(D19-A)*%
X111500000Y-122000000D03*
%TD*%
D10*
%TO.P,SW11,1,1*%
%TO.N,Net-(D11-A)*%
X191690000Y-107960000D03*
X192960000Y-105420000D03*
%TO.P,SW11,2,2*%
%TO.N,col4*%
X198040000Y-105420000D03*
X199310000Y-107960000D03*
%TD*%
%TO.P,SW17,1,1*%
%TO.N,Net-(D17-A)*%
X191690000Y-123460000D03*
X192960000Y-120920000D03*
%TO.P,SW17,2,2*%
%TO.N,col4*%
X198040000Y-120920000D03*
X199310000Y-123460000D03*
%TD*%
%TO.P,SW5,1,1*%
%TO.N,Net-(D5-A)*%
X191690000Y-92460000D03*
X192960000Y-89920000D03*
%TO.P,SW5,2,2*%
%TO.N,col4*%
X198040000Y-89920000D03*
X199310000Y-92460000D03*
%TD*%
%TO.P,SW21,1,1*%
%TO.N,Net-(D21-A)*%
X136190000Y-128960000D03*
X137460000Y-126420000D03*
%TO.P,SW21,2,2*%
%TO.N,col2*%
X142540000Y-126420000D03*
X143810000Y-128960000D03*
%TD*%
%TO.P,SW2,1,1*%
%TO.N,Net-(D2-A)*%
X136190000Y-82460000D03*
X137460000Y-79920000D03*
%TO.P,SW2,2,2*%
%TO.N,col1*%
X142540000Y-79920000D03*
X143810000Y-82460000D03*
%TD*%
D11*
%TO.P,D7,1,K*%
%TO.N,row1*%
X114300000Y-103320000D03*
D12*
%TO.P,D7,2,A*%
%TO.N,Net-(D7-A)*%
X114300000Y-95700000D03*
%TD*%
D11*
%TO.P,D22,1,K*%
%TO.N,row3*%
X136090000Y-161800000D03*
D12*
%TO.P,D22,2,A*%
%TO.N,Net-(D22-A)*%
X143710000Y-161800000D03*
%TD*%
D11*
%TO.P,D12,1,K*%
%TO.N,row1*%
X207290000Y-121900000D03*
D12*
%TO.P,D12,2,A*%
%TO.N,Net-(D12-A)*%
X214910000Y-121900000D03*
%TD*%
D13*
%TO.P,J1,1*%
%TO.N,DATA*%
X104000000Y-111000000D03*
D14*
%TO.P,J1,2*%
%TO.N,VCC*%
X109000000Y-116000000D03*
%TO.P,J1,3*%
%TO.N,GND*%
X109000000Y-106000000D03*
%TD*%
D10*
%TO.P,SW15,1,1*%
%TO.N,Net-(D15-A)*%
X156190000Y-97960000D03*
X157460000Y-95420000D03*
%TO.P,SW15,2,2*%
%TO.N,col2*%
X162540000Y-95420000D03*
X163810000Y-97960000D03*
%TD*%
D11*
%TO.P,D17,1,K*%
%TO.N,row2*%
X175190000Y-120500000D03*
D12*
%TO.P,D17,2,A*%
%TO.N,Net-(D17-A)*%
X182810000Y-120500000D03*
%TD*%
D10*
%TO.P,SW20,1,1*%
%TO.N,Net-(D20-A)*%
X120690000Y-128960000D03*
X121960000Y-126420000D03*
%TO.P,SW20,2,2*%
%TO.N,col1*%
X127040000Y-126420000D03*
X128310000Y-128960000D03*
%TD*%
D11*
%TO.P,D23,1,K*%
%TO.N,row3*%
X120590000Y-162000000D03*
D12*
%TO.P,D23,2,A*%
%TO.N,Net-(D23-A)*%
X128210000Y-162000000D03*
%TD*%
D11*
%TO.P,D16,1,K*%
%TO.N,row2*%
X170500000Y-110620000D03*
D12*
%TO.P,D16,2,A*%
%TO.N,Net-(D16-A)*%
X170500000Y-103000000D03*
%TD*%
D11*
%TO.P,D2,1,K*%
%TO.N,row0*%
X135880000Y-73600000D03*
D12*
%TO.P,D2,2,A*%
%TO.N,Net-(D2-A)*%
X143500000Y-73600000D03*
%TD*%
D10*
%TO.P,SW16,1,1*%
%TO.N,Net-(D16-A)*%
X176190000Y-102960000D03*
X177460000Y-100420000D03*
%TO.P,SW16,2,2*%
%TO.N,col3*%
X182540000Y-100420000D03*
X183810000Y-102960000D03*
%TD*%
D15*
%TO.P,U1,1,PA02_A0_D0*%
%TO.N,row0*%
X196000000Y-63500000D03*
%TO.P,U1,2,PA4_A1_D1*%
%TO.N,row1*%
X196000000Y-66040000D03*
%TO.P,U1,3,PA10_A2_D2*%
%TO.N,row2*%
X196000000Y-68580000D03*
%TO.P,U1,4,PA11_A3_D3*%
%TO.N,row3*%
X196000000Y-71120000D03*
%TO.P,U1,5,PA8_A4_D4_SDA*%
%TO.N,col0*%
X196000000Y-73660000D03*
%TO.P,U1,6,PA9_A5_D5_SCL*%
%TO.N,col1*%
X196000000Y-76200000D03*
%TO.P,U1,7,PB08_A6_D6_TX*%
%TO.N,col2*%
X196000000Y-78740000D03*
%TO.P,U1,8,PB09_A7_D7_RX*%
%TO.N,DATA*%
X211250000Y-78740000D03*
%TO.P,U1,9,PA7_A8_D8_SCK*%
%TO.N,col5*%
X211250000Y-76200000D03*
%TO.P,U1,10,PA5_A9_D9_MISO*%
%TO.N,col4*%
X211250000Y-73660000D03*
%TO.P,U1,11,PA6_A10_D10_MOSI*%
%TO.N,col3*%
X211250000Y-71120000D03*
%TO.P,U1,12,3V3*%
%TO.N,VCC*%
X211250000Y-68580000D03*
%TO.P,U1,13,GND*%
%TO.N,GND*%
X211250000Y-66040000D03*
%TO.P,U1,14,5V*%
%TO.N,unconnected-(U1-5V-Pad14)*%
X211250000Y-63500000D03*
%TD*%
D10*
%TO.P,SW19,1,1*%
%TO.N,Net-(D19-A)*%
X105190000Y-128960000D03*
X106460000Y-126420000D03*
%TO.P,SW19,2,2*%
%TO.N,col0*%
X111540000Y-126420000D03*
X112810000Y-128960000D03*
%TD*%
%TO.P,SW3,1,1*%
%TO.N,Net-(D3-A)*%
X156190000Y-66960000D03*
X157460000Y-64420000D03*
%TO.P,SW3,2,2*%
%TO.N,col2*%
X162540000Y-64420000D03*
X163810000Y-66960000D03*
%TD*%
%TO.P,SW23,1,1*%
%TO.N,Net-(D23-A)*%
X120730000Y-148540000D03*
X122000000Y-146000000D03*
%TO.P,SW23,2,2*%
%TO.N,col4*%
X127080000Y-146000000D03*
X128350000Y-148540000D03*
%TD*%
D11*
%TO.P,D9,1,K*%
%TO.N,row1*%
X150500000Y-89810000D03*
D12*
%TO.P,D9,2,A*%
%TO.N,Net-(D9-A)*%
X150500000Y-82190000D03*
%TD*%
D11*
%TO.P,D5,1,K*%
%TO.N,row0*%
X191190000Y-84500000D03*
D12*
%TO.P,D5,2,A*%
%TO.N,Net-(D5-A)*%
X198810000Y-84500000D03*
%TD*%
D10*
%TO.P,SW8,1,1*%
%TO.N,Net-(D8-A)*%
X136190000Y-97960000D03*
X137460000Y-95420000D03*
%TO.P,SW8,2,2*%
%TO.N,col1*%
X142540000Y-95420000D03*
X143810000Y-97960000D03*
%TD*%
D11*
%TO.P,D3,1,K*%
%TO.N,row0*%
X150000000Y-73210000D03*
D12*
%TO.P,D3,2,A*%
%TO.N,Net-(D3-A)*%
X150000000Y-65590000D03*
%TD*%
D11*
%TO.P,D11,1,K*%
%TO.N,row1*%
X175380000Y-116500000D03*
D12*
%TO.P,D11,2,A*%
%TO.N,Net-(D11-A)*%
X183000000Y-116500000D03*
%TD*%
D16*
%TO.N,row0*%
X147856700Y-88410000D03*
X201968000Y-84561900D03*
X193136000Y-78472400D03*
%TO.N,row1*%
X154841200Y-113337800D03*
%TO.N,Net-(D8-A)*%
X150018100Y-92343700D03*
%TO.N,Net-(D15-A)*%
X154355500Y-114709700D03*
%TO.N,col3*%
X181015300Y-98844100D03*
X177978100Y-82636100D03*
%TD*%
D17*
%TO.N,row0*%
X146000000Y-70500000D02*
X148710000Y-73210000D01*
X197664500Y-65164500D02*
X197664500Y-73762200D01*
X151036000Y-75347600D02*
X147856700Y-78526900D01*
X197664500Y-73762200D02*
X196496700Y-74930000D01*
X169398300Y-78310000D02*
X166435900Y-75347600D01*
X193136000Y-77277500D02*
X193136000Y-78472400D01*
X201968000Y-80401300D02*
X201968000Y-84561900D01*
X135880000Y-72120000D02*
X137500000Y-70500000D01*
X166435900Y-75347600D02*
X151036000Y-75347600D01*
X196000000Y-63500000D02*
X197664500Y-65164500D01*
X191190000Y-80418400D02*
X191190000Y-84500000D01*
X150000000Y-73210000D02*
X150000000Y-74311700D01*
X135880000Y-73600000D02*
X135880000Y-72120000D01*
X147856700Y-78526900D02*
X147856700Y-88410000D01*
X148710000Y-73210000D02*
X150000000Y-73210000D01*
X195483500Y-74930000D02*
X193136000Y-77277500D01*
X193136000Y-78472400D02*
X191190000Y-80418400D01*
X137500000Y-70500000D02*
X146000000Y-70500000D01*
X196496700Y-74930000D02*
X201968000Y-80401300D01*
X150000000Y-74311700D02*
X151036000Y-75347600D01*
X196496700Y-74930000D02*
X195483500Y-74930000D01*
X170500000Y-78310000D02*
X169398300Y-78310000D01*
%TO.N,Net-(D1-A)*%
X120690000Y-81190000D02*
X121960000Y-79920000D01*
X120690000Y-82460000D02*
X120690000Y-81190000D01*
%TO.N,Net-(D2-A)*%
X143500000Y-73600000D02*
X143500000Y-74701700D01*
X142678300Y-74701700D02*
X137460000Y-79920000D01*
X137460000Y-79920000D02*
X136190000Y-81190000D01*
X143500000Y-74701700D02*
X142678300Y-74701700D01*
X136190000Y-81190000D02*
X136190000Y-82460000D01*
%TO.N,Net-(D3-A)*%
X157460000Y-64420000D02*
X156190000Y-65690000D01*
X156190000Y-65690000D02*
X156190000Y-66960000D01*
%TO.N,Net-(D4-A)*%
X176190000Y-70690000D02*
X176190000Y-71960000D01*
X177460000Y-69420000D02*
X176190000Y-70690000D01*
%TO.N,Net-(D5-A)*%
X198810000Y-84500000D02*
X197708300Y-84500000D01*
X197708300Y-85171700D02*
X192960000Y-89920000D01*
X191690000Y-91190000D02*
X191690000Y-92460000D01*
X192960000Y-89920000D02*
X191690000Y-91190000D01*
X197708300Y-84500000D02*
X197708300Y-85171700D01*
%TO.N,Net-(D6-A)*%
X207190000Y-91190000D02*
X207190000Y-92460000D01*
X208460000Y-89920000D02*
X207190000Y-91190000D01*
%TO.N,Net-(D7-A)*%
X121960000Y-95420000D02*
X120690000Y-96690000D01*
X120690000Y-96690000D02*
X120690000Y-97960000D01*
%TO.N,row1*%
X149398300Y-92013400D02*
X149398300Y-101316600D01*
X150500000Y-104621700D02*
X154841200Y-108962900D01*
X150500000Y-90911700D02*
X149398300Y-92013400D01*
X149398300Y-101316600D02*
X150500000Y-102418300D01*
X170500000Y-93420000D02*
X170500000Y-89758900D01*
X150500000Y-89810000D02*
X150500000Y-90911700D01*
X177021100Y-83237800D02*
X178802200Y-83237800D01*
X170500000Y-89758900D02*
X177021100Y-83237800D01*
X154841200Y-108962900D02*
X154841200Y-113337800D01*
X150500000Y-103520000D02*
X150500000Y-102418300D01*
X178802200Y-83237800D02*
X196000000Y-66040000D01*
X150500000Y-103520000D02*
X150500000Y-104621700D01*
%TO.N,Net-(D8-A)*%
X150018100Y-94316400D02*
X150018100Y-92343700D01*
X136190000Y-96690000D02*
X136190000Y-97960000D01*
X150500000Y-95900000D02*
X150500000Y-94798300D01*
X150500000Y-94798300D02*
X150018100Y-94316400D01*
X137460000Y-95420000D02*
X136190000Y-96690000D01*
%TO.N,Net-(D9-A)*%
X156190000Y-81190000D02*
X156190000Y-82460000D01*
X157460000Y-79920000D02*
X156190000Y-81190000D01*
%TO.N,Net-(D10-A)*%
X176190000Y-86190000D02*
X176190000Y-87460000D01*
X177460000Y-84920000D02*
X176190000Y-86190000D01*
%TO.N,Net-(D11-A)*%
X183000000Y-116500000D02*
X183000000Y-115398300D01*
X190438300Y-107960000D02*
X191690000Y-107960000D01*
X183000000Y-115398300D02*
X190438300Y-107960000D01*
X191690000Y-106690000D02*
X191690000Y-107960000D01*
X192960000Y-105420000D02*
X191690000Y-106690000D01*
%TO.N,Net-(D12-A)*%
X207190000Y-106690000D02*
X207190000Y-107960000D01*
X207651900Y-113540200D02*
X207651900Y-108421900D01*
X214910000Y-121900000D02*
X214910000Y-120798300D01*
X214910000Y-120798300D02*
X207651900Y-113540200D01*
X208460000Y-105420000D02*
X207190000Y-106690000D01*
X207651900Y-108421900D02*
X207190000Y-107960000D01*
%TO.N,Net-(D13-A)*%
X121480000Y-111400000D02*
X121960000Y-110920000D01*
X120690000Y-111400000D02*
X121480000Y-111400000D01*
X120690000Y-111400000D02*
X120690000Y-113460000D01*
X114200000Y-111400000D02*
X120690000Y-111400000D01*
%TO.N,row2*%
X175190000Y-119398300D02*
X171868900Y-116077200D01*
X186929300Y-93789700D02*
X178042400Y-102676600D01*
X196000000Y-68580000D02*
X197225400Y-69805400D01*
X176511300Y-105113200D02*
X176511300Y-105977600D01*
X197225400Y-69805400D02*
X197225400Y-71614900D01*
X196450300Y-72390000D02*
X195515100Y-72390000D01*
X178042400Y-103582100D02*
X176511300Y-105113200D01*
X186929300Y-80975800D02*
X186929300Y-93789700D01*
X175190000Y-120500000D02*
X175190000Y-119398300D01*
X197225400Y-71614900D02*
X196450300Y-72390000D01*
X171868900Y-110620000D02*
X170500000Y-110620000D01*
X176511300Y-105977600D02*
X171868900Y-110620000D01*
X178042400Y-102676600D02*
X178042400Y-103582100D01*
X195515100Y-72390000D02*
X186929300Y-80975800D01*
X171868900Y-116077200D02*
X171868900Y-110620000D01*
%TO.N,Net-(D14-A)*%
X136190000Y-112190000D02*
X136190000Y-113460000D01*
X137460000Y-110920000D02*
X136190000Y-112190000D01*
%TO.N,Net-(D15-A)*%
X156365800Y-98135800D02*
X156365800Y-112699400D01*
X156365800Y-112699400D02*
X154355500Y-114709700D01*
X156190000Y-96690000D02*
X156190000Y-97960000D01*
X156190000Y-97960000D02*
X156365800Y-98135800D01*
X157460000Y-95420000D02*
X156190000Y-96690000D01*
%TO.N,Net-(D16-A)*%
X176190000Y-101690000D02*
X176190000Y-102960000D01*
X177460000Y-100420000D02*
X176190000Y-101690000D01*
%TO.N,Net-(D17-A)*%
X191690000Y-122190000D02*
X191690000Y-123460000D01*
X192960000Y-120920000D02*
X191690000Y-122190000D01*
%TO.N,row3*%
X105190000Y-140500000D02*
X105190000Y-139398300D01*
X179506600Y-86186600D02*
X179506600Y-85910300D01*
X136090000Y-161800000D02*
X137191700Y-161800000D01*
X120590000Y-162000000D02*
X120590000Y-160898300D01*
X147109900Y-151881800D02*
X147109900Y-126354100D01*
X137191700Y-161800000D02*
X147109900Y-151881800D01*
X176981900Y-94447700D02*
X176981900Y-88711300D01*
X118036900Y-158345200D02*
X118036900Y-144254800D01*
X105190000Y-139398300D02*
X102455100Y-136663400D01*
X120590000Y-160898300D02*
X118036900Y-158345200D01*
X120690000Y-140500000D02*
X120690000Y-141601700D01*
X103880000Y-122000000D02*
X103880000Y-123101700D01*
X179506600Y-85910300D02*
X194296900Y-71120000D01*
X194296900Y-71120000D02*
X196000000Y-71120000D01*
X102455100Y-124526600D02*
X103880000Y-123101700D01*
X102455100Y-136663400D02*
X102455100Y-124526600D01*
X118036900Y-144254800D02*
X120690000Y-141601700D01*
X154451100Y-116978500D02*
X176981900Y-94447700D01*
X154451100Y-119012900D02*
X154451100Y-116978500D01*
X147109900Y-126354100D02*
X154451100Y-119012900D01*
X176981900Y-88711300D02*
X179506600Y-86186600D01*
%TO.N,Net-(D19-A)*%
X110398300Y-122481700D02*
X106460000Y-126420000D01*
X106460000Y-126420000D02*
X105190000Y-127690000D01*
X105190000Y-127690000D02*
X105190000Y-128960000D01*
X111500000Y-122000000D02*
X110398300Y-122000000D01*
X110398300Y-122000000D02*
X110398300Y-122481700D01*
%TO.N,Net-(D20-A)*%
X120863200Y-132068100D02*
X120863200Y-128960000D01*
X113533000Y-139398300D02*
X120863200Y-132068100D01*
X121960000Y-126420000D02*
X120863200Y-127516800D01*
X120863200Y-127516800D02*
X120863200Y-128960000D01*
X112810000Y-140500000D02*
X112810000Y-139398300D01*
X120863200Y-128960000D02*
X120690000Y-128960000D01*
X112810000Y-139398300D02*
X113533000Y-139398300D01*
%TO.N,Net-(D21-A)*%
X135441400Y-128960000D02*
X136190000Y-128960000D01*
X128310000Y-136091400D02*
X135441400Y-128960000D01*
X136190000Y-127690000D02*
X136190000Y-128960000D01*
X137460000Y-126420000D02*
X136190000Y-127690000D01*
X128310000Y-140500000D02*
X128310000Y-136091400D01*
%TO.N,Net-(D22-A)*%
X137500000Y-146000000D02*
X136230000Y-147270000D01*
X136230000Y-147270000D02*
X136230000Y-148540000D01*
%TO.N,Net-(D23-A)*%
X120730000Y-147270000D02*
X120730000Y-148540000D01*
X128210000Y-162000000D02*
X128210000Y-160898300D01*
X128210000Y-160898300D02*
X121191900Y-153880200D01*
X121191900Y-149001900D02*
X120730000Y-148540000D01*
X121191900Y-153880200D02*
X121191900Y-149001900D01*
X122000000Y-146000000D02*
X120730000Y-147270000D01*
%TO.N,Net-(D24-A)*%
X105230000Y-147270000D02*
X105230000Y-148540000D01*
X105190000Y-160898300D02*
X105405800Y-160682500D01*
X105190000Y-162000000D02*
X105190000Y-160898300D01*
X105405800Y-160682500D02*
X105405800Y-148715800D01*
X106500000Y-146000000D02*
X105230000Y-147270000D01*
X105405800Y-148715800D02*
X105230000Y-148540000D01*
%TO.N,col0*%
X127848300Y-94611700D02*
X127040000Y-95420000D01*
X128177400Y-109782600D02*
X127040000Y-110920000D01*
X128310000Y-97960000D02*
X128177400Y-98092600D01*
X128310000Y-96690000D02*
X127040000Y-95420000D01*
X127848300Y-111728300D02*
X127040000Y-110920000D01*
X112810000Y-127690000D02*
X116453000Y-127690000D01*
X112810000Y-127690000D02*
X111540000Y-126420000D01*
X127848300Y-116294700D02*
X127848300Y-115108200D01*
X127848300Y-82921700D02*
X127848300Y-94611700D01*
X116453000Y-127690000D02*
X127848300Y-116294700D01*
X128310000Y-82460000D02*
X127848300Y-82921700D01*
X128310000Y-82460000D02*
X128310000Y-81190000D01*
X127848300Y-113921700D02*
X128310000Y-113460000D01*
X128310000Y-97960000D02*
X128310000Y-96690000D01*
X127848300Y-115108200D02*
X127848300Y-111728300D01*
X127848300Y-115108200D02*
X127848300Y-113921700D01*
X128310000Y-81190000D02*
X127040000Y-79920000D01*
X128177400Y-98092600D02*
X128177400Y-109782600D01*
X112810000Y-128960000D02*
X112810000Y-127690000D01*
%TO.N,col1*%
X128310000Y-127690000D02*
X131960000Y-127690000D01*
X143177800Y-113460000D02*
X143177800Y-111557800D01*
X143267800Y-94692200D02*
X142540000Y-95420000D01*
X143810000Y-82460000D02*
X143267800Y-83002200D01*
X143267800Y-83002200D02*
X143267800Y-94692200D01*
X143810000Y-97960000D02*
X143175000Y-98595000D01*
X143175000Y-110285000D02*
X142540000Y-110920000D01*
X143177800Y-111557800D02*
X142540000Y-110920000D01*
X143177800Y-116472200D02*
X143177800Y-113460000D01*
X128310000Y-127690000D02*
X127040000Y-126420000D01*
X143177800Y-113460000D02*
X143810000Y-113460000D01*
X143810000Y-97960000D02*
X143810000Y-96690000D01*
X131960000Y-127690000D02*
X143177800Y-116472200D01*
X143175000Y-98595000D02*
X143175000Y-110285000D01*
X143810000Y-82460000D02*
X143810000Y-81190000D01*
X128310000Y-128960000D02*
X128310000Y-127690000D01*
X143810000Y-81190000D02*
X142540000Y-79920000D01*
X143810000Y-96690000D02*
X142540000Y-95420000D01*
%TO.N,col2*%
X163712000Y-82460000D02*
X163712000Y-81092000D01*
X163175000Y-95420000D02*
X163175000Y-82997000D01*
X171610600Y-74017600D02*
X171610600Y-79270300D01*
X163175000Y-82997000D02*
X163712000Y-82460000D01*
X163712000Y-81092000D02*
X162540000Y-79920000D01*
X152457500Y-117487600D02*
X152457500Y-119155800D01*
X171610600Y-79270300D02*
X168420900Y-82460000D01*
X163712000Y-82460000D02*
X163810000Y-82460000D01*
X163810000Y-97960000D02*
X162545600Y-99224400D01*
X152457500Y-119155800D02*
X143923300Y-127690000D01*
X143810000Y-127690000D02*
X142540000Y-126420000D01*
X164553000Y-66960000D02*
X171610600Y-74017600D01*
X143923300Y-127690000D02*
X143810000Y-127690000D01*
X162545600Y-99224400D02*
X162545600Y-107399500D01*
X163810000Y-65690000D02*
X162540000Y-64420000D01*
X163810000Y-97960000D02*
X163810000Y-96055000D01*
X163810000Y-96055000D02*
X163175000Y-95420000D01*
X163810000Y-66960000D02*
X163810000Y-65690000D01*
X163810000Y-66960000D02*
X164553000Y-66960000D01*
X168420900Y-82460000D02*
X163810000Y-82460000D01*
X143810000Y-128960000D02*
X143810000Y-127690000D01*
X163175000Y-95420000D02*
X162540000Y-95420000D01*
X162545600Y-107399500D02*
X152457500Y-117487600D01*
%TO.N,col3*%
X183712000Y-87460000D02*
X183712000Y-86092000D01*
X167841300Y-102871500D02*
X153025600Y-117687200D01*
X183348300Y-96511100D02*
X183348300Y-87823700D01*
X183481100Y-71960000D02*
X183481100Y-70361100D01*
X153025600Y-117687200D02*
X153025600Y-119799600D01*
X153025600Y-119799600D02*
X146708200Y-126117000D01*
X146708200Y-126117000D02*
X146708200Y-141871800D01*
X183810000Y-102960000D02*
X183810000Y-101690000D01*
X181015300Y-98844100D02*
X183348300Y-96511100D01*
X183348300Y-87823700D02*
X183712000Y-87460000D01*
X183712000Y-86092000D02*
X182540000Y-84920000D01*
X183481100Y-70361100D02*
X182540000Y-69420000D01*
X183481100Y-71960000D02*
X183481100Y-77133100D01*
X177033000Y-82636100D02*
X167841300Y-91827800D01*
X167841300Y-91827800D02*
X167841300Y-102871500D01*
X183810000Y-101690000D02*
X182540000Y-100420000D01*
X146708200Y-141871800D02*
X142580000Y-146000000D01*
X183810000Y-87460000D02*
X183712000Y-87460000D01*
X143850000Y-147270000D02*
X142580000Y-146000000D01*
X177978100Y-82636100D02*
X177033000Y-82636100D01*
X183481100Y-77133100D02*
X177978100Y-82636100D01*
X143850000Y-148540000D02*
X143850000Y-147270000D01*
X183481100Y-71960000D02*
X183810000Y-71960000D01*
%TO.N,col4*%
X199310000Y-92460000D02*
X198848300Y-92921700D01*
X128350000Y-147270000D02*
X127080000Y-146000000D01*
X198677800Y-107960000D02*
X199310000Y-107960000D01*
X211250000Y-73660000D02*
X205746800Y-79163200D01*
X198677800Y-106057800D02*
X198040000Y-105420000D01*
X199310000Y-91190000D02*
X198040000Y-89920000D01*
X128350000Y-148540000D02*
X128350000Y-147270000D01*
X198848300Y-92921700D02*
X198848300Y-104611700D01*
X198677800Y-107960000D02*
X198677800Y-106057800D01*
X205746800Y-86023200D02*
X199310000Y-92460000D01*
X198040000Y-120920000D02*
X198677800Y-120282200D01*
X198848300Y-104611700D02*
X198040000Y-105420000D01*
X199310000Y-92460000D02*
X199310000Y-91190000D01*
X198040000Y-122190000D02*
X198040000Y-120920000D01*
X205746800Y-79163200D02*
X205746800Y-86023200D01*
X199310000Y-123460000D02*
X198040000Y-122190000D01*
X198677800Y-120282200D02*
X198677800Y-107960000D01*
%TO.N,col5*%
X213540000Y-78490000D02*
X213540000Y-89920000D01*
X213540000Y-89920000D02*
X213540000Y-91651800D01*
X112850000Y-148540000D02*
X112850000Y-147270000D01*
X213540000Y-106690000D02*
X213540000Y-105420000D01*
X214348200Y-92460000D02*
X214810000Y-92460000D01*
X214810000Y-107960000D02*
X213540000Y-106690000D01*
X213540000Y-91651800D02*
X214348200Y-92460000D01*
X112850000Y-147270000D02*
X111580000Y-146000000D01*
X211250000Y-76200000D02*
X213540000Y-78490000D01*
X214348200Y-92460000D02*
X214348200Y-104611800D01*
X214348200Y-104611800D02*
X213540000Y-105420000D01*
%TD*%
M02*
